<svg xmlns="http://www.w3.org/2000/svg" width="31" height="31" viewBox="0 0 31 31" fill="none">
  <path d="M6.45833 4.30561H21.9583C22.6435 4.30561 23.3006 4.53242 23.785 4.93615C24.2695 5.33987 24.5417 5.88744 24.5417 6.45839V23.6806C24.5417 24.2516 24.2695 24.7991 23.785 25.2029C23.3006 25.6066 22.6435 25.8334 21.9583 25.8334H6.45833C5.77319 25.8334 5.11611 25.6066 4.63164 25.2029C4.14717 24.7991 3.875 24.2516 3.875 23.6806V6.45839C3.875 5.88744 4.14717 5.33987 4.63164 4.93615C5.11611 4.53242 5.77319 4.30561 6.45833 4.30561ZM15.1771 16.6841C18.7292 16.6841 19.685 14.499 19.9304 13.3473C21.1058 13.0351 21.9583 12.1202 21.9583 11.033C21.9583 9.68755 20.6667 8.61117 19.0521 8.61117C17.4375 8.61117 16.1458 9.68755 16.1458 11.033C16.1458 12.0448 16.8821 12.9167 17.9412 13.2719C17.6571 13.9931 16.7917 15.0695 14.2083 15.0695C12.4258 15.0695 11.1858 15.4462 10.3333 15.9737V11.7004C11.4571 11.3667 12.2708 10.4733 12.2708 9.41846C12.2708 8.07297 10.9792 6.99658 9.36458 6.99658C7.75 6.99658 6.45833 8.07297 6.45833 9.41846C6.45833 10.4733 7.27208 11.3667 8.39583 11.7004V18.4386C7.27208 18.7723 6.45833 19.6657 6.45833 20.7205C6.45833 22.066 7.75 23.1424 9.36458 23.1424C10.9792 23.1424 12.2708 22.066 12.2708 20.7205C12.2708 19.7195 11.5475 18.8369 10.5013 18.4924C10.8629 17.7605 11.9221 16.6841 15.1771 16.6841ZM9.36458 19.9132C9.62151 19.9132 9.86792 19.9983 10.0496 20.1497C10.2313 20.3011 10.3333 20.5064 10.3333 20.7205C10.3333 20.9346 10.2313 21.14 10.0496 21.2914C9.86792 21.4428 9.62151 21.5278 9.36458 21.5278C9.10766 21.5278 8.86125 21.4428 8.67957 21.2914C8.4979 21.14 8.39583 20.9346 8.39583 20.7205C8.39583 20.5064 8.4979 20.3011 8.67957 20.1497C8.86125 19.9983 9.10766 19.9132 9.36458 19.9132ZM9.36458 8.61117C9.62151 8.61117 9.86792 8.69622 10.0496 8.84762C10.2313 8.99901 10.3333 9.20435 10.3333 9.41846C10.3333 9.63257 10.2313 9.8379 10.0496 9.9893C9.86792 10.1407 9.62151 10.2257 9.36458 10.2257C9.10766 10.2257 8.86125 10.1407 8.67957 9.9893C8.4979 9.8379 8.39583 9.63257 8.39583 9.41846C8.39583 9.20435 8.4979 8.99901 8.67957 8.84762C8.86125 8.69622 9.10766 8.61117 9.36458 8.61117ZM19.0521 10.2257C19.309 10.2257 19.5554 10.3108 19.7371 10.4622C19.9188 10.6136 20.0208 10.8189 20.0208 11.033C20.0208 11.2471 19.9188 11.4525 19.7371 11.6039C19.5554 11.7553 19.309 11.8403 19.0521 11.8403C18.7952 11.8403 18.5487 11.7553 18.3671 11.6039C18.1854 11.4525 18.0833 11.2471 18.0833 11.033C18.0833 10.8189 18.1854 10.6136 18.3671 10.4622C18.5487 10.3108 18.7952 10.2257 19.0521 10.2257Z" fill="#83868B"/>
</svg>