<svg width="581.738" height="93.311" viewBox="0 0 581.738 93.311" xmlns="http://www.w3.org/2000/svg"><g id="svgGroup" stroke-linecap="round" fill-rule="evenodd" font-size="9pt" stroke="#b72136" stroke-width="0.25mm" fill="#ff3030" style="stroke:#b72136;stroke-width:0.25mm;fill:#ff3030"><path d="M 323.389 70.898 L 323.145 70.898 Q 322.022 70.898 321.069 71.289 Q 320.117 71.68 319.165 72.144 Q 318.213 72.607 317.236 72.998 Q 316.26 73.389 315.186 73.389 A 3.115 3.115 0 0 1 314.282 73.26 A 2.891 2.891 0 0 1 314.087 73.193 Q 313.574 72.998 313.062 72.754 Q 312.549 72.51 312.036 72.314 A 3.033 3.033 0 0 0 311.029 72.12 A 3.466 3.466 0 0 0 310.938 72.119 Q 310.156 72.119 309.424 72.217 Q 308.691 72.314 307.959 72.314 A 5.864 5.864 0 0 1 307.49 72.294 Q 307.262 72.276 307.006 72.241 A 11.332 11.332 0 0 1 306.69 72.192 A 5.385 5.385 0 0 1 305.442 71.831 A 5.003 5.003 0 0 1 305.322 71.777 A 3.616 3.616 0 0 1 304.558 71.307 A 3.198 3.198 0 0 1 304.248 71.021 A 1.589 1.589 0 0 1 303.81 69.947 A 2.072 2.072 0 0 1 303.809 69.873 A 2.013 2.013 0 0 1 303.813 69.73 Q 303.824 69.583 303.857 69.482 A 1.296 1.296 0 0 1 303.601 69.684 A 1.05 1.05 0 0 1 303.32 69.8 Q 303.027 69.873 302.734 69.873 A 5.703 5.703 0 0 1 300.024 69.214 A 12.508 12.508 0 0 1 297.681 67.603 Q 296.582 66.65 295.63 65.552 A 40.749 40.749 0 0 0 294.332 64.122 A 34.912 34.912 0 0 0 293.75 63.525 Q 292.627 62.402 292.017 60.938 A 21.051 21.051 0 0 0 290.576 58.105 A 15.935 15.935 0 0 1 289.047 54.941 A 13.148 13.148 0 0 1 288.428 52.368 A 44.601 44.601 0 0 1 288.051 47.47 A 50.369 50.369 0 0 1 288.037 46.289 Q 288.037 45.786 288.091 45.156 A 19.497 19.497 0 0 1 288.11 44.946 A 4.387 4.387 0 0 1 288.165 44.553 Q 288.252 44.093 288.428 43.848 Q 288.623 43.604 288.916 43.481 A 19.787 19.787 0 0 0 289.342 43.298 A 17.723 17.723 0 0 0 289.478 43.237 A 2.868 2.868 0 0 0 289.728 43.109 A 2.156 2.156 0 0 0 289.941 42.969 A 0.473 0.473 0 0 0 290.124 42.668 A 0.733 0.733 0 0 0 290.137 42.529 A 2.348 2.348 0 0 0 289.795 41.284 A 2.348 2.348 0 0 1 289.453 40.039 A 1.807 1.807 0 0 1 289.495 39.643 A 1.336 1.336 0 0 1 289.673 39.209 A 62.089 62.089 0 0 0 289.899 38.855 A 74.934 74.934 0 0 0 290.137 38.477 Q 290.456 37.958 290.727 36.868 A 15.959 15.959 0 0 0 290.845 36.353 Q 291.162 34.863 291.528 33.374 A 15.081 15.081 0 0 1 291.943 31.97 A 11.448 11.448 0 0 1 292.456 30.737 Q 293.018 29.59 293.945 29.59 A 4.213 4.213 0 0 1 294.801 29.674 A 3.643 3.643 0 0 1 295.215 29.785 A 3.839 3.839 0 0 0 296.149 29.968 A 4.544 4.544 0 0 0 296.484 29.98 A 4.25 4.25 0 0 0 297.607 29.834 L 297.656 29.443 Q 297.656 29.145 297.561 28.96 A 0.511 0.511 0 0 0 297.29 28.711 A 3.037 3.037 0 0 0 296.561 28.522 A 3.376 3.376 0 0 0 296.509 28.516 A 10.514 10.514 0 0 1 296.009 28.445 A 8.877 8.877 0 0 1 295.728 28.394 A 0.477 0.477 0 0 1 295.538 28.315 Q 295.37 28.193 295.362 27.91 A 1.011 1.011 0 0 1 295.361 27.881 A 0.602 0.602 0 0 1 295.516 27.479 A 0.903 0.903 0 0 1 295.63 27.368 A 2.745 2.745 0 0 1 295.994 27.119 A 3.465 3.465 0 0 1 296.265 26.978 A 10.542 10.542 0 0 1 297.022 26.66 A 4.108 4.108 0 0 0 297.245 26.569 Q 297.449 26.479 297.578 26.388 A 1.09 1.09 0 0 0 297.607 26.367 A 3.894 3.894 0 0 0 297.906 26.105 Q 298.042 25.97 298.142 25.839 A 1.678 1.678 0 0 0 298.291 25.61 A 31.289 31.289 0 0 0 298.57 25.075 A 27.616 27.616 0 0 0 298.657 24.902 A 1.548 1.548 0 0 1 299.048 24.411 A 1.872 1.872 0 0 1 299.17 24.316 A 1.683 1.683 0 0 1 299.412 24.176 Q 299.67 24.05 300.059 23.939 A 7.447 7.447 0 0 1 300.293 23.877 A 7.851 7.851 0 0 1 301.66 23.706 L 303.027 23.657 Q 303.711 23.633 304.395 23.584 A 6.705 6.705 0 0 0 305.762 23.34 L 305.274 22.852 Q 305.518 22.412 305.957 22.144 Q 306.397 21.875 306.958 21.729 Q 307.52 21.582 308.081 21.558 A 28.552 28.552 0 0 1 308.549 21.541 Q 308.763 21.535 308.956 21.534 A 16.764 16.764 0 0 1 309.082 21.533 A 12.562 12.562 0 0 1 312.402 21.973 A 12.201 12.201 0 0 0 315.625 22.412 A 5.329 5.329 0 0 0 316.968 22.241 A 5.329 5.329 0 0 1 318.311 22.07 Q 319.336 22.07 320.239 22.583 A 72.818 72.818 0 0 0 321.124 23.077 A 62.618 62.618 0 0 0 321.973 23.535 L 322.168 23.584 A 0.917 0.917 0 0 0 322.854 23.294 A 1.165 1.165 0 0 0 322.9 23.242 A 1.431 1.431 0 0 1 323.063 23.079 Q 323.275 22.9 323.486 22.9 Q 323.731 22.9 323.877 23.12 A 9.438 9.438 0 0 0 324.097 23.436 A 8.385 8.385 0 0 0 324.17 23.535 A 1.701 1.701 0 0 0 324.926 24.022 A 2.247 2.247 0 0 0 325.22 24.097 Q 325.639 24.174 325.89 24.36 A 0.908 0.908 0 0 1 326.123 24.609 Q 326.465 25.195 326.904 25.415 A 3.947 3.947 0 0 0 327.557 25.674 A 3.486 3.486 0 0 0 327.783 25.732 A 41.381 41.381 0 0 0 328.235 25.83 A 48.137 48.137 0 0 0 328.711 25.928 A 2.12 2.12 0 0 1 329.43 26.22 A 2.603 2.603 0 0 1 329.639 26.367 L 329.639 27.734 A 15.359 15.359 0 0 0 330.325 28.568 Q 330.922 29.241 331.47 29.663 A 13.124 13.124 0 0 1 332.547 30.587 A 11.151 11.151 0 0 1 332.983 31.03 A 4.593 4.593 0 0 1 333.744 32.151 A 5.784 5.784 0 0 1 334.009 32.788 Q 334.375 33.838 334.375 35.84 Q 334.375 37.988 334.009 39.6 A 7.3 7.3 0 0 1 333.508 41.083 A 5.786 5.786 0 0 1 332.739 42.31 A 5.264 5.264 0 0 1 331.062 43.644 A 6.67 6.67 0 0 1 330.322 43.97 Q 328.809 44.531 326.563 44.482 L 323.389 44.434 A 66.487 66.487 0 0 0 323.172 44.084 Q 322.815 43.512 322.266 42.651 A 76.734 76.734 0 0 1 320.892 40.414 A 83.89 83.89 0 0 1 320.801 40.259 A 51.056 51.056 0 0 1 320.111 39.05 A 40.308 40.308 0 0 1 319.507 37.915 A 9.121 9.121 0 0 1 319.261 37.398 Q 319.038 36.883 318.972 36.512 A 1.631 1.631 0 0 1 318.945 36.23 A 8.896 8.896 0 0 1 319.067 34.766 A 8.896 8.896 0 0 0 319.19 33.301 A 5.101 5.101 0 0 0 318.824 32.512 A 3.756 3.756 0 0 0 318.286 31.787 Q 317.725 31.201 316.992 30.884 A 5.469 5.469 0 0 0 315.624 30.498 A 6.238 6.238 0 0 0 315.405 30.469 A 15.254 15.254 0 0 0 313.672 30.371 A 16.202 16.202 0 0 0 311.157 30.566 Q 309.912 30.762 308.74 31.201 A 1.537 1.537 0 0 0 308.521 30.396 A 0.718 0.718 0 0 0 308.055 30.062 Q 307.925 30.03 307.769 30.029 A 1.546 1.546 0 0 0 307.764 30.029 A 2.334 2.334 0 0 0 307.235 30.096 Q 306.737 30.212 306.123 30.532 A 7.54 7.54 0 0 0 306.104 30.542 A 14.929 14.929 0 0 0 304.765 31.34 A 17.827 17.827 0 0 0 304.126 31.787 A 17.493 17.493 0 0 0 302.532 33.1 A 15.805 15.805 0 0 0 302.295 33.325 Q 301.503 34.094 301.111 34.663 A 4.24 4.24 0 0 0 301.074 34.717 A 9.262 9.262 0 0 0 300.888 34.995 Q 300.586 35.461 300.147 36.23 Q 299.561 37.256 298.901 38.281 A 16.459 16.459 0 0 1 298.058 39.477 A 13.584 13.584 0 0 1 297.534 40.112 A 4.469 4.469 0 0 1 297.188 40.468 Q 296.68 40.93 296.24 40.967 A 731.341 731.341 0 0 1 296.32 41.338 Q 296.408 41.75 296.522 42.285 A 2337.831 2337.831 0 0 1 296.631 42.798 A 41.727 41.727 0 0 1 296.97 44.588 A 47.766 47.766 0 0 1 297.07 45.215 Q 297.266 46.484 297.412 47.632 A 27.902 27.902 0 0 1 297.476 48.174 Q 297.559 48.938 297.559 49.414 A 5.703 5.703 0 0 0 297.814 51.134 A 5.305 5.305 0 0 0 297.949 51.514 A 5.551 5.551 0 0 1 298.338 53.439 A 6.361 6.361 0 0 1 298.34 53.613 A 6.464 6.464 0 0 1 298.12 55.273 Q 297.9 56.104 297.9 56.934 A 3.829 3.829 0 0 0 297.913 57.25 Q 297.938 57.558 298.018 57.745 A 0.598 0.598 0 0 0 298.12 57.91 A 0.823 0.823 0 0 0 298.28 58.044 Q 298.532 58.209 299.024 58.35 A 2.331 2.331 0 0 1 299.525 58.569 A 1.585 1.585 0 0 1 300.122 59.18 Q 300.44 59.766 300.659 60.376 A 4.837 4.837 0 0 0 300.912 60.96 A 3.686 3.686 0 0 0 301.196 61.426 A 0.946 0.946 0 0 0 301.624 61.748 Q 301.916 61.865 302.344 61.865 L 302.588 61.865 L 303.174 61.816 A 3.631 3.631 0 0 1 303.882 63.574 A 3.631 3.631 0 0 0 304.59 65.332 A 0.812 0.812 0 0 0 304.761 65.29 Q 304.863 65.252 304.931 65.186 A 0.414 0.414 0 0 0 305.029 65.039 L 305.225 64.551 A 1.119 1.119 0 0 1 305.446 64.206 A 1.374 1.374 0 0 1 305.542 64.111 A 0.592 0.592 0 0 1 305.72 64.006 Q 305.898 63.936 306.177 63.921 A 3.036 3.036 0 0 1 306.348 63.916 A 1.615 1.615 0 0 1 306.738 63.961 A 1.175 1.175 0 0 1 307.227 64.209 Q 307.568 64.502 307.861 64.868 A 6.132 6.132 0 0 0 308.334 65.396 A 5.434 5.434 0 0 0 308.472 65.527 Q 308.789 65.82 309.277 65.82 A 5.115 5.115 0 0 0 310.15 65.741 Q 310.551 65.672 310.984 65.541 A 8.591 8.591 0 0 0 311.108 65.503 A 30.545 30.545 0 0 0 312.637 64.972 A 34.047 34.047 0 0 0 313.159 64.771 Q 314.209 64.355 315.234 63.916 A 20.787 20.787 0 0 1 316.094 63.569 Q 316.623 63.37 317.09 63.232 A 14.529 14.529 0 0 0 320.85 61.523 Q 322.607 60.4 323.682 58.545 Q 324.219 57.568 324.976 56.738 Q 325.732 55.908 326.172 54.883 A 9.808 9.808 0 0 0 327.149 54.834 A 9.969 9.969 0 0 1 327.908 54.788 A 11.421 11.421 0 0 1 328.174 54.785 L 328.638 54.785 A 4.517 4.517 0 0 1 329.128 54.813 A 5.137 5.137 0 0 1 329.297 54.834 Q 329.639 54.883 329.907 54.98 Q 330.094 55.048 330.151 55.14 A 0.158 0.158 0 0 1 330.176 55.225 A 0.984 0.984 0 0 1 330.117 55.571 A 0.865 0.865 0 0 1 329.858 55.933 A 5.189 5.189 0 0 1 329.175 56.421 A 4.154 4.154 0 0 0 328.628 56.81 A 3.754 3.754 0 0 0 328.516 56.909 Q 328.223 57.178 328.223 57.666 L 328.76 57.617 Q 329.289 57.617 330.137 57.856 A 11.56 11.56 0 0 1 330.322 57.91 A 10.261 10.261 0 0 1 332.132 58.653 A 11.331 11.331 0 0 1 332.251 58.716 A 9.213 9.213 0 0 1 333.321 59.386 A 7.606 7.606 0 0 1 333.911 59.863 Q 334.382 60.285 334.54 60.729 A 1.342 1.342 0 0 1 334.619 61.182 A 1.009 1.009 0 0 1 334.587 61.446 A 0.649 0.649 0 0 1 334.253 61.865 Q 333.887 62.061 333.545 62.256 A 3.59 3.59 0 0 0 333.043 62.584 A 2.795 2.795 0 0 0 332.666 62.939 A 6.827 6.827 0 0 0 332.05 63.765 A 7.468 7.468 0 0 0 332.031 63.794 Q 331.738 64.258 331.494 64.771 A 7.748 7.748 0 0 1 331.047 65.584 A 6.971 6.971 0 0 1 330.957 65.723 Q 330.274 66.748 329.077 67.139 A 77.91 77.91 0 0 1 326.709 67.871 A 8.332 8.332 0 0 0 325.012 68.569 A 7.523 7.523 0 0 0 324.585 68.823 A 2.418 2.418 0 0 0 323.704 69.849 Q 323.488 70.303 323.389 70.898 Z M 443.948 56.154 A 12.759 12.759 0 0 0 444.141 53.906 A 10.973 10.973 0 0 0 443.994 52.1 A 7.89 7.89 0 0 0 442.31 51.221 A 5.268 5.268 0 0 0 440.43 50.879 A 5.037 5.037 0 0 0 437.769 51.636 Q 436.524 52.393 435.645 53.516 A 12.724 12.724 0 0 0 435.375 53.642 A 14.546 14.546 0 0 0 434.546 54.077 A 7.825 7.825 0 0 0 433.472 54.81 Q 432.959 55.225 432.642 55.737 A 2.045 2.045 0 0 0 432.404 56.293 A 2.491 2.491 0 0 0 432.324 56.934 A 3.631 3.631 0 0 0 432.813 58.765 A 4.1 4.1 0 0 1 433.1 59.376 A 3.079 3.079 0 0 1 433.301 60.449 Q 433.301 61.426 432.422 62.085 A 6.609 6.609 0 0 1 431.523 62.649 A 8.419 8.419 0 0 1 430.322 63.159 Q 429.102 63.574 427.881 63.77 A 24.854 24.854 0 0 1 427.649 63.805 Q 426.956 63.91 426.433 63.946 A 7.396 7.396 0 0 1 425.928 63.965 A 7.523 7.523 0 0 1 425.301 63.94 Q 423.613 63.799 422.681 62.866 A 6.96 6.96 0 0 1 421.897 61.93 A 8.068 8.068 0 0 1 420.972 60.156 Q 420.361 58.545 419.971 56.738 A 18.922 18.922 0 0 0 419.582 55.232 A 14.529 14.529 0 0 0 418.945 53.516 Q 418.655 52.936 418.512 52.201 A 7.698 7.698 0 0 1 418.384 51.123 Q 418.311 49.707 418.311 47.363 A 37.095 37.095 0 0 0 417.993 42.48 A 37.095 37.095 0 0 1 417.676 37.598 A 15.585 15.585 0 0 1 417.699 36.731 Q 417.751 35.808 417.915 35.012 A 7.884 7.884 0 0 1 418.433 33.374 A 7.889 7.889 0 0 1 418.536 33.153 A 6.648 6.648 0 0 1 420.581 30.664 A 8.025 8.025 0 0 1 421.897 29.879 A 9.635 9.635 0 0 1 423.877 29.199 A 16.516 16.516 0 0 1 425.891 28.87 A 21.728 21.728 0 0 1 428.125 28.76 Q 429.541 28.76 430.957 28.857 Q 432.373 28.955 433.789 28.955 Q 434.668 28.955 435.693 28.882 A 7.568 7.568 0 0 0 435.823 28.871 A 6.742 6.742 0 0 0 437.622 28.467 A 4.401 4.401 0 0 0 437.636 28.461 A 3.788 3.788 0 0 0 439.136 27.441 A 2.145 2.145 0 0 0 439.307 27.222 Q 439.564 26.846 439.671 26.35 A 3.64 3.64 0 0 0 439.746 25.586 A 2.649 2.649 0 0 0 439.734 25.325 Q 439.711 25.089 439.642 24.901 A 1.014 1.014 0 0 0 439.185 24.341 A 3.149 3.149 0 0 0 438.526 24.066 A 4.284 4.284 0 0 0 437.842 23.926 Q 437.485 23.898 437.205 23.809 A 1.711 1.711 0 0 1 436.816 23.633 A 7.497 7.497 0 0 0 436.565 23.483 A 8.818 8.818 0 0 0 435.962 23.169 Q 435.498 22.949 434.815 22.754 A 3.225 3.225 0 0 0 434.672 22.717 Q 434.004 22.559 432.861 22.559 A 42.713 42.713 0 0 1 432.719 22.558 Q 431.338 22.554 429.297 22.461 A 118.927 118.927 0 0 1 425.049 22.192 A 59.856 59.856 0 0 1 423.047 21.997 A 44.56 44.56 0 0 1 421.24 21.753 A 19.992 19.992 0 0 1 420.828 21.684 Q 419.47 21.441 419.043 21.143 A 2.933 2.933 0 0 0 419.029 20.852 A 2.351 2.351 0 0 0 418.701 19.849 Q 418.359 19.287 417.944 18.75 A 9.206 9.206 0 0 1 417.212 17.651 A 2.42 2.42 0 0 1 417.071 17.358 A 2.542 2.542 0 0 1 416.895 16.406 Q 416.895 15.479 417.261 14.624 Q 417.627 13.77 417.627 12.842 A 6.909 6.909 0 0 0 417.601 12.26 Q 417.563 11.814 417.471 11.306 A 15.069 15.069 0 0 0 417.236 10.254 Q 416.846 8.74 416.846 7.178 A 41.438 41.438 0 0 1 416.846 7.026 Q 416.848 6.396 416.87 5.981 A 18.589 18.589 0 0 0 416.889 5.536 A 14.34 14.34 0 0 0 416.895 5.127 A 2.694 2.694 0 0 0 416.875 4.796 A 2.116 2.116 0 0 0 416.577 3.931 A 2.21 2.21 0 0 0 416.56 3.904 Q 416.315 3.52 415.669 2.838 A 26.372 26.372 0 0 0 415.186 2.344 Q 415.064 2.246 414.948 2.167 A 2.867 2.867 0 0 0 414.722 2.026 A 0.934 0.934 0 0 0 414.476 1.933 A 1.189 1.189 0 0 0 414.209 1.904 Q 413.77 1.904 413.355 2.148 A 4.117 4.117 0 0 0 413.091 2.317 A 4.812 4.812 0 0 0 412.549 2.759 A 10.658 10.658 0 0 0 411.816 3.516 A 8.369 8.369 0 0 1 411.695 3.652 Q 411.422 3.95 411.182 4.15 A 7.903 7.903 0 0 0 410.346 5.052 A 6.025 6.025 0 0 0 409.326 6.934 Q 408.838 8.447 408.838 10.254 A 24.919 24.919 0 0 0 408.838 10.351 A 22.83 22.83 0 0 0 409.033 13.281 A 21.194 21.194 0 0 1 409.045 13.373 A 22.95 22.95 0 0 1 409.229 16.309 Q 409.229 17.383 409.058 18.311 A 5.1 5.1 0 0 1 408.954 18.761 A 4.224 4.224 0 0 1 408.423 19.946 A 3.145 3.145 0 0 1 408.091 20.37 A 3.395 3.395 0 0 1 407.153 21.069 Q 406.65 21.329 405.984 21.426 A 5.936 5.936 0 0 1 405.127 21.484 A 15.941 15.941 0 0 1 405.1 21.484 A 14.519 14.519 0 0 1 404.273 21.46 A 13.355 13.355 0 0 0 404.247 21.458 A 14.594 14.594 0 0 0 403.418 21.436 A 3.581 3.581 0 0 0 402.983 21.461 A 2.763 2.763 0 0 0 401.66 21.973 A 4.51 4.51 0 0 1 400.841 22.446 A 5.913 5.913 0 0 1 399.878 22.778 Q 398.828 23.047 397.852 23.413 Q 396.875 23.779 396.167 24.39 A 1.913 1.913 0 0 0 395.993 24.56 Q 395.661 24.929 395.535 25.463 A 3.093 3.093 0 0 0 395.459 26.172 A 2.609 2.609 0 0 0 395.459 26.189 Q 395.464 26.958 395.923 27.368 A 3.049 3.049 0 0 0 396.415 27.725 A 3.852 3.852 0 0 0 397.07 28.027 Q 398.047 28.32 398.633 29.175 A 9.252 9.252 0 0 0 399.951 30.713 A 3.818 3.818 0 0 0 400.665 31.246 A 4.081 4.081 0 0 0 402.1 31.738 A 38.298 38.298 0 0 0 402.419 31.786 A 42.312 42.312 0 0 0 404.736 32.056 Q 406.104 32.178 407.471 32.446 Q 408.838 32.715 409.961 33.643 A 11.312 11.312 0 0 1 409.963 33.655 A 12.354 12.354 0 0 1 410.034 34.448 A 13.355 13.355 0 0 1 410.036 34.474 A 14.594 14.594 0 0 1 410.059 35.303 A 16.415 16.415 0 0 1 410.059 35.368 A 17.486 17.486 0 0 1 409.522 39.551 A 3.284 3.284 0 0 1 409.398 39.917 A 3.797 3.797 0 0 1 409.033 40.601 A 2.297 2.297 0 0 0 408.876 40.875 A 1.765 1.765 0 0 0 408.691 41.65 A 1.217 1.217 0 0 0 408.784 42.108 A 1.682 1.682 0 0 0 408.96 42.432 Q 409.229 42.822 409.229 43.408 Q 409.229 43.848 409.009 44.189 A 39.936 39.936 0 0 1 408.946 44.288 Q 408.849 44.438 408.738 44.605 A 70.494 70.494 0 0 1 408.496 44.971 Q 408.203 45.41 407.983 45.996 A 2.844 2.844 0 0 0 407.893 46.287 Q 407.764 46.788 407.764 47.461 A 15.246 15.246 0 0 1 407.764 47.535 Q 407.761 48.061 407.723 48.779 A 46.439 46.439 0 0 1 407.691 49.316 Q 407.617 50.439 407.544 51.611 A 596.508 596.508 0 0 1 407.526 51.903 A 542.205 542.205 0 0 1 407.398 53.882 A 42.122 42.122 0 0 0 407.358 54.548 Q 407.324 55.215 407.324 55.713 Q 407.324 56.348 407.617 56.934 A 15.77 15.77 0 0 0 408.252 58.081 Q 408.594 58.643 408.887 59.229 Q 409.18 59.814 409.18 60.498 A 12.788 12.788 0 0 0 409.182 60.719 A 14.008 14.008 0 0 0 409.302 62.305 A 6.27 6.27 0 0 0 409.381 62.772 A 5.257 5.257 0 0 0 409.79 63.989 Q 410.156 64.746 410.816 65.234 A 2.125 2.125 0 0 0 411.17 65.446 Q 411.486 65.596 411.88 65.665 A 4.185 4.185 0 0 0 412.598 65.723 A 0.213 0.213 0 0 1 412.703 65.751 Q 412.872 65.845 412.994 66.256 A 3.61 3.61 0 0 1 413.062 66.528 A 24.831 24.831 0 0 1 413.226 67.383 A 33.787 33.787 0 0 1 413.379 68.335 A 33.787 33.787 0 0 0 413.532 69.287 A 24.831 24.831 0 0 0 413.696 70.142 Q 413.867 70.947 414.16 70.947 A 3.878 3.878 0 0 1 414.408 70.955 Q 415.117 71 415.576 71.313 Q 416.113 71.68 416.553 72.241 A 166.485 166.485 0 0 1 417.004 72.821 A 198.139 198.139 0 0 1 417.481 73.438 A 5.372 5.372 0 0 0 417.899 73.919 A 6.474 6.474 0 0 0 418.701 74.609 A 45.49 45.49 0 0 1 420.48 74.424 A 58.304 58.304 0 0 1 422.974 74.268 A 79.268 79.268 0 0 0 427.686 73.926 Q 430.078 73.682 432.349 73.218 A 18.164 18.164 0 0 0 433.526 72.937 A 15.343 15.343 0 0 0 436.475 71.802 Q 438.33 70.85 439.649 69.238 A 7.739 7.739 0 0 0 440.814 67.26 A 10.227 10.227 0 0 0 441.406 65.186 A 18.783 18.783 0 0 1 442.114 62.329 A 527.143 527.143 0 0 0 443.018 59.595 Q 443.457 58.252 443.799 56.86 A 11.285 11.285 0 0 0 443.948 56.154 Z M 163.77 34.033 L 163.77 34.961 Q 163.77 35.6 163.916 36.052 A 1.848 1.848 0 0 0 164.111 36.475 A 5.269 5.269 0 0 0 164.488 36.997 A 4.058 4.058 0 0 0 164.844 37.378 A 233.377 233.377 0 0 0 165.222 37.732 A 189.871 189.871 0 0 0 165.576 38.062 A 1.029 1.029 0 0 1 165.874 38.578 Q 165.915 38.743 165.918 38.939 A 1.979 1.979 0 0 1 165.918 38.965 A 1.012 1.012 0 0 1 165.723 39.575 A 1.07 1.07 0 0 0 165.583 39.832 A 0.869 0.869 0 0 0 165.527 40.137 A 3.407 3.407 0 0 0 165.703 41.199 A 4.225 4.225 0 0 0 165.869 41.626 A 99.99 99.99 0 0 1 166.223 42.419 A 128.961 128.961 0 0 1 166.602 43.286 A 23.088 23.088 0 0 1 167.16 44.71 A 26.57 26.57 0 0 1 167.334 45.215 A 6.67 6.67 0 0 1 167.642 46.717 A 8.109 8.109 0 0 1 167.676 47.461 A 19.074 19.074 0 0 1 167.236 51.563 A 55.508 55.508 0 0 0 166.504 55.615 A 14.921 14.921 0 0 0 166.425 56.268 A 10.959 10.959 0 0 0 166.382 56.86 A 7.629 7.629 0 0 1 166.294 57.741 A 6.846 6.846 0 0 1 166.26 57.935 Q 166.162 58.447 165.918 58.96 A 3.641 3.641 0 0 1 165.624 59.462 Q 165.462 59.697 165.251 59.936 A 6.251 6.251 0 0 1 165.186 60.01 A 4.413 4.413 0 0 0 164.649 60.712 A 3.449 3.449 0 0 0 164.307 61.45 A 61.976 61.976 0 0 0 163.941 62.627 A 70.265 70.265 0 0 0 163.818 63.037 Q 163.629 63.573 163.41 63.936 A 2.403 2.403 0 0 1 163.159 64.282 Q 162.793 64.697 162.378 64.99 A 11.606 11.606 0 0 1 161.503 65.55 A 11.733 11.733 0 0 1 161.499 65.552 Q 161.035 65.82 160.547 66.357 A 2.017 2.017 0 0 0 160.348 66.63 Q 160.225 66.835 160.181 67.041 Q 160.107 67.383 160.059 67.7 Q 160.01 68.018 159.839 68.311 Q 159.714 68.525 159.42 68.687 A 2.171 2.171 0 0 1 159.18 68.799 Q 158.399 69.141 158.057 69.556 Q 157.795 69.873 157.419 70.263 A 20.043 20.043 0 0 1 157.178 70.508 Q 156.641 71.045 155.786 71.558 A 13.364 13.364 0 0 1 153.98 72.461 A 14.063 14.063 0 0 1 152.051 73.096 Q 151.074 73.34 150.342 73.34 A 8.64 8.64 0 0 1 148.511 73.145 A 8.64 8.64 0 0 0 146.68 72.949 A 2.72 2.72 0 0 0 146.399 72.963 Q 146.067 72.997 145.874 73.12 A 2.979 2.979 0 0 0 145.595 73.32 A 2.407 2.407 0 0 0 145.41 73.486 A 4.45 4.45 0 0 1 144.995 73.853 A 0.701 0.701 0 0 1 144.785 73.962 Q 144.6 74.023 144.336 74.023 A 3.073 3.073 0 0 1 143.807 73.971 Q 143.244 73.872 142.457 73.583 A 16.482 16.482 0 0 1 141.895 73.364 A 95.748 95.748 0 0 1 139.814 72.483 A 113.893 113.893 0 0 1 138.501 71.899 A 83.198 83.198 0 0 0 135.896 70.773 A 72.546 72.546 0 0 0 135.059 70.435 A 15.932 15.932 0 0 0 134.277 70.146 Q 133.179 69.775 132.52 69.775 A 1.754 1.754 0 0 0 131.937 69.868 A 1.485 1.485 0 0 0 131.274 70.337 Q 130.817 70.89 130.526 71.728 A 6.356 6.356 0 0 0 130.518 71.753 A 8.652 8.652 0 0 0 130.196 72.997 A 10.251 10.251 0 0 0 130.103 73.608 A 21.869 21.869 0 0 0 129.989 74.797 A 17.791 17.791 0 0 0 129.956 75.488 A 33.423 33.423 0 0 0 129.947 75.909 Q 129.938 76.514 129.956 76.953 L 129.981 77.539 Q 129.981 77.889 129.893 78.063 A 0.351 0.351 0 0 1 129.81 78.174 Q 129.653 78.308 129.393 78.319 A 1.114 1.114 0 0 1 129.346 78.32 A 3.146 3.146 0 0 1 128.955 78.296 Q 128.76 78.271 128.516 78.223 A 3.612 3.612 0 0 0 128.578 78.873 A 4.925 4.925 0 0 0 128.735 79.492 A 16.616 16.616 0 0 0 129.048 80.375 A 20.287 20.287 0 0 0 129.273 80.933 A 97.142 97.142 0 0 1 129.883 82.422 A 10.85 10.85 0 0 1 130.139 83.13 A 8.138 8.138 0 0 1 130.322 83.789 A 19.637 19.637 0 0 0 130.495 84.515 Q 130.683 85.24 130.877 85.709 A 3.711 3.711 0 0 0 131.03 86.035 Q 131.397 86.719 131.982 86.963 A 2.672 2.672 0 0 0 132.515 87.118 Q 132.93 87.197 133.447 87.183 A 9.279 9.279 0 0 1 133.675 87.179 Q 134.245 87.177 134.996 87.238 A 27.566 27.566 0 0 1 135.693 87.305 A 16.469 16.469 0 0 1 136.438 87.438 A 20.853 20.853 0 0 1 137.061 87.573 A 4.478 4.478 0 0 1 138.038 87.92 A 3.992 3.992 0 0 1 138.379 88.11 A 3.46 3.46 0 0 1 139.356 89.014 A 2.014 2.014 0 0 1 139.708 89.868 A 2.72 2.72 0 0 1 139.746 90.332 A 4.289 4.289 0 0 1 139.671 91.165 Q 139.575 91.647 139.359 92.01 A 2.028 2.028 0 0 1 138.794 92.627 A 3.517 3.517 0 0 1 137.502 93.193 Q 136.984 93.311 136.377 93.311 A 27.118 27.118 0 0 1 132.398 93.018 Q 130.42 92.725 128.369 92.725 Q 126.221 92.725 124.097 92.969 Q 121.973 93.213 119.873 93.213 A 4.13 4.13 0 0 1 119.507 93.195 Q 119.136 93.161 118.635 93.067 A 15.919 15.919 0 0 1 118.384 93.018 A 12.042 12.042 0 0 1 116.48 92.456 A 8.059 8.059 0 0 1 115.492 92.001 A 6.389 6.389 0 0 1 114.819 91.577 A 2.339 2.339 0 0 1 114.477 91.279 Q 114.111 90.886 114.111 90.43 A 0.828 0.828 0 0 1 114.231 90.011 Q 114.359 89.79 114.624 89.575 A 5.076 5.076 0 0 1 115.534 88.991 A 5.876 5.876 0 0 1 115.796 88.867 Q 116.455 88.574 117.139 88.403 A 8.464 8.464 0 0 1 117.519 88.317 Q 117.878 88.244 118.132 88.234 A 1.996 1.996 0 0 1 118.213 88.232 A 5.073 5.073 0 0 0 119.364 88.105 A 4.479 4.479 0 0 0 119.849 87.964 A 40.267 40.267 0 0 0 121.338 87.402 Q 122.07 87.109 122.803 86.841 A 4.473 4.473 0 0 1 124.262 86.573 A 5.075 5.075 0 0 1 124.365 86.572 Q 124.805 84.717 124.927 82.861 A 56.513 56.513 0 0 0 125.049 79.15 A 142.405 142.405 0 0 0 125.024 76.514 A 142.405 142.405 0 0 1 125 73.877 A 35.868 35.868 0 0 1 125.366 68.75 Q 125.732 66.211 125.732 63.574 A 42.646 42.646 0 0 0 125.61 60.352 Q 125.488 58.74 125.391 57.129 A 0.55 0.55 0 0 1 125.329 57.012 Q 125.207 56.715 125.054 55.864 A 22.088 22.088 0 0 1 125.049 55.835 A 45.79 45.79 0 0 1 124.86 54.681 A 59.525 59.525 0 0 1 124.683 53.418 A 55.74 55.74 0 0 1 124.475 51.586 A 47.768 47.768 0 0 1 124.414 50.903 Q 124.33 49.871 124.318 49.439 A 4.634 4.634 0 0 1 124.316 49.316 A 2.881 2.881 0 0 1 124.357 48.825 A 2.185 2.185 0 0 1 124.487 48.364 A 5.88 5.88 0 0 1 124.664 47.974 A 4.446 4.446 0 0 1 124.854 47.632 Q 125.043 47.325 125.209 47.086 A 8.139 8.139 0 0 1 125.22 47.07 Q 125.332 46.91 125.37 46.771 A 0.525 0.525 0 0 0 125.391 46.631 Q 125.391 46.589 125.285 46.371 A 8.033 8.033 0 0 0 125.244 46.289 A 6.208 6.208 0 0 1 125.131 46.049 Q 125.082 45.94 125.031 45.817 A 12.634 12.634 0 0 1 124.927 45.557 A 8.839 8.839 0 0 1 124.742 45.031 A 11.333 11.333 0 0 1 124.609 44.58 A 4.067 4.067 0 0 1 124.463 43.506 A 13.654 13.654 0 0 1 124.829 40.381 A 13.654 13.654 0 0 0 125.195 37.256 A 5.095 5.095 0 0 0 123.682 33.594 Q 123.078 32.99 122.673 32.619 A 13.784 13.784 0 0 0 122.51 32.471 A 3.565 3.565 0 0 0 122.112 32.162 Q 121.886 32.013 121.661 31.921 A 2.189 2.189 0 0 0 121.631 31.909 Q 121.191 31.738 120.606 31.665 A 50.198 50.198 0 0 1 120.285 31.624 Q 119.926 31.577 119.451 31.51 A 177.308 177.308 0 0 1 118.994 31.445 A 4.502 4.502 0 0 1 118.639 31.397 Q 118.283 31.336 117.808 31.21 A 17.618 17.618 0 0 1 117.505 31.128 A 16.111 16.111 0 0 1 115.625 30.469 A 8.083 8.083 0 0 1 114.557 29.927 A 6.719 6.719 0 0 1 113.989 29.541 Q 113.544 29.203 113.379 28.826 A 1.127 1.127 0 0 1 113.281 28.369 A 1.653 1.653 0 0 1 113.721 27.248 A 2.524 2.524 0 0 1 114.063 26.929 A 6.032 6.032 0 0 1 115.324 26.177 A 7.274 7.274 0 0 1 115.894 25.952 A 12.31 12.31 0 0 1 118.018 25.415 Q 119.014 25.257 119.632 25.245 A 5.08 5.08 0 0 1 119.727 25.244 A 7.763 7.763 0 0 1 121.094 25.366 A 2.155 2.155 0 0 1 122.266 25.977 A 2.607 2.607 0 0 1 123.572 25.271 A 3.11 3.11 0 0 1 123.584 25.269 A 7.315 7.315 0 0 1 124.728 25.108 A 6.445 6.445 0 0 1 125.098 25.098 A 11.175 11.175 0 0 1 126.287 25.157 Q 127.513 25.288 128.287 25.714 A 3.253 3.253 0 0 1 128.32 25.732 A 8.382 8.382 0 0 1 129.2 26.3 Q 129.727 26.692 130.103 27.124 A 16.772 16.772 0 0 1 130.563 27.674 Q 130.807 27.98 131.005 28.263 A 9.152 9.152 0 0 1 131.177 28.516 A 1.701 1.701 0 0 0 131.458 28.85 A 1.113 1.113 0 0 0 132.227 29.15 A 2.02 2.02 0 0 0 132.983 29.004 Q 133.35 28.857 133.74 28.662 Q 134.525 28.288 135.912 27.786 A 62.299 62.299 0 0 1 136.816 27.466 A 83.454 83.454 0 0 1 140.013 26.437 A 96.255 96.255 0 0 1 141.162 26.099 A 65.042 65.042 0 0 1 144.225 25.296 A 55.344 55.344 0 0 1 145.557 25 Q 147.256 24.644 148.284 24.576 A 6.82 6.82 0 0 1 148.731 24.561 A 3.041 3.041 0 0 1 149.069 24.582 Q 149.437 24.623 149.945 24.746 A 13.564 13.564 0 0 1 150.269 24.829 A 30.246 30.246 0 0 1 151.316 25.132 Q 151.875 25.304 152.49 25.513 A 34.626 34.626 0 0 1 154.215 26.153 A 40.545 40.545 0 0 1 155.029 26.489 A 37.055 37.055 0 0 1 156.601 27.201 A 30.774 30.774 0 0 1 157.471 27.637 A 24.155 24.155 0 0 1 158.459 28.181 Q 158.983 28.486 159.424 28.784 Q 160.126 29.259 160.444 29.647 A 1.751 1.751 0 0 1 160.547 29.785 A 9.739 9.739 0 0 0 161.174 30.697 A 7.694 7.694 0 0 0 161.694 31.299 A 3.46 3.46 0 0 0 162.512 31.92 A 4.79 4.79 0 0 0 163.33 32.275 A 2.004 2.004 0 0 1 163.608 32.776 A 1.768 1.768 0 0 1 163.696 33.105 A 5.449 5.449 0 0 1 163.765 33.792 A 6.273 6.273 0 0 1 163.77 34.033 Z M 228.251 36.368 A 4.068 4.068 0 0 0 228.32 35.596 A 4.755 4.755 0 0 0 227.979 33.813 Q 227.637 32.959 227.222 32.153 A 50.858 50.858 0 0 1 226.416 30.518 Q 226.025 29.688 225.879 28.76 A 4.32 4.32 0 0 0 225.37 27.213 A 5.318 5.318 0 0 0 224.463 26.025 A 11.696 11.696 0 0 0 223.868 25.471 A 13.027 13.027 0 0 0 221.607 23.901 A 17.492 17.492 0 0 0 218.189 22.461 A 21.647 21.647 0 0 0 217.379 22.233 Q 216.725 22.064 216.142 21.961 A 10.645 10.645 0 0 0 215.088 21.826 Q 214.79 22.124 214.357 22.385 A 6.092 6.092 0 0 1 213.745 22.705 A 12.499 12.499 0 0 1 211.939 23.364 A 15.939 15.939 0 0 1 210.034 23.779 Q 209.424 23.873 208.945 23.907 A 7.126 7.126 0 0 1 208.447 23.926 A 5.157 5.157 0 0 0 208.281 23.928 A 4.417 4.417 0 0 0 206.47 24.365 A 21.218 21.218 0 0 0 204.688 25.342 A 171.793 171.793 0 0 1 202.905 26.416 Q 202.002 26.953 200.928 27.1 Q 200.391 27.197 200 27.49 A 12.348 12.348 0 0 0 199.902 27.564 A 13.525 13.525 0 0 0 199.219 28.125 Q 198.828 28.467 198.413 28.735 A 1.63 1.63 0 0 1 197.51 29.004 A 3.306 3.306 0 0 1 197.362 29.001 Q 197.047 28.987 196.787 28.911 A 1.543 1.543 0 0 1 195.947 28.345 A 7.005 7.005 0 0 1 195.654 27.916 A 8.117 8.117 0 0 1 195.093 26.855 A 21.742 21.742 0 0 0 194.287 25.22 A 2.222 2.222 0 0 0 193.715 24.534 A 2.454 2.454 0 0 0 192.92 24.121 A 9.272 9.272 0 0 0 190.82 23.682 Q 189.746 23.584 188.672 23.584 Q 187.109 23.584 185.571 23.755 Q 184.033 23.926 182.471 23.926 A 25.299 25.299 0 0 1 182.275 23.925 A 27.778 27.778 0 0 1 180.859 23.877 A 29.799 29.799 0 0 0 180.653 23.866 A 27.136 27.136 0 0 0 179.248 23.828 Q 178.369 23.828 177.612 23.975 A 3.979 3.979 0 0 0 177.202 24.076 A 3.241 3.241 0 0 0 176.294 24.512 A 2.395 2.395 0 0 0 175.73 25.069 A 3.277 3.277 0 0 0 175.391 25.659 Q 175.166 26.156 175.089 26.852 A 7.146 7.146 0 0 0 175.049 27.637 Q 175.049 28.76 175.781 29.443 A 4.68 4.68 0 0 0 176.268 29.84 A 5.217 5.217 0 0 0 177.539 30.493 A 9.377 9.377 0 0 0 179.688 30.981 A 25.839 25.839 0 0 0 180.198 31.032 Q 180.61 31.068 180.977 31.086 A 13.684 13.684 0 0 0 181.641 31.104 Q 182.764 31.104 183.838 30.859 Q 184.912 30.615 185.986 30.615 Q 186.963 30.615 187.524 31.689 A 7.844 7.844 0 0 1 188 32.81 A 10.196 10.196 0 0 1 188.355 34.18 Q 188.623 35.596 188.672 37.012 A 133.402 133.402 0 0 1 188.692 37.638 Q 188.721 38.599 188.721 39.16 Q 188.721 40.771 188.648 42.358 Q 188.574 43.945 188.574 45.557 A 17.786 17.786 0 0 0 188.941 49.146 A 19.07 19.07 0 0 1 188.995 49.424 A 17.188 17.188 0 0 1 189.307 52.637 A 11.259 11.259 0 0 1 189.014 55.176 A 11.259 11.259 0 0 0 188.721 57.715 Q 188.721 58.35 188.818 58.96 Q 188.916 59.57 188.916 60.205 A 6.081 6.081 0 0 1 188.908 60.522 A 5.057 5.057 0 0 1 188.232 62.842 Q 187.549 64.014 186.45 64.795 Q 185.352 65.576 184.009 65.991 A 10.027 10.027 0 0 1 183.799 66.054 A 8.901 8.901 0 0 1 181.348 66.406 A 27.302 27.302 0 0 1 180.937 66.403 A 23.857 23.857 0 0 1 179.761 66.357 A 23.887 23.887 0 0 0 178.223 66.309 A 0.42 0.42 0 0 0 178.194 66.31 Q 177.901 66.33 177.344 66.748 A 8.554 8.554 0 0 0 176.868 67.133 A 10.624 10.624 0 0 0 176.172 67.798 A 13.391 13.391 0 0 0 175.992 67.989 A 11.96 11.96 0 0 0 175.122 69.043 Q 174.801 69.482 174.702 69.804 A 0.906 0.906 0 0 0 174.658 70.068 A 1.822 1.822 0 0 0 174.658 70.088 A 1.459 1.459 0 0 0 175.098 71.143 Q 175.537 71.582 176.172 71.875 A 5.398 5.398 0 0 0 177.49 72.29 A 10.052 10.052 0 0 0 177.803 72.341 Q 178.29 72.412 178.662 72.412 A 9.828 9.828 0 0 0 180.493 72.241 Q 181.397 72.07 182.3 71.851 A 72.21 72.21 0 0 1 184.107 71.436 A 8.64 8.64 0 0 1 185.938 71.24 A 1.834 1.834 0 0 1 186.144 71.251 Q 186.286 71.267 186.401 71.307 A 0.767 0.767 0 0 1 186.67 71.46 A 2.507 2.507 0 0 1 186.76 71.545 A 2.753 2.753 0 0 1 187.109 71.973 A 2.323 2.323 0 0 0 187.573 72.485 Q 187.842 72.705 188.379 72.705 Q 189.356 72.705 190.234 72.314 A 4.957 4.957 0 0 1 190.564 72.182 A 4.181 4.181 0 0 1 191.992 71.924 A 17.503 17.503 0 0 1 195.776 72.339 A 17.503 17.503 0 0 0 199.561 72.754 A 5.066 5.066 0 0 0 199.572 72.754 Q 199.814 72.753 200.171 72.729 A 4.945 4.945 0 0 0 200.879 72.632 A 1.634 1.634 0 0 0 201.034 72.591 A 1.331 1.331 0 0 0 201.465 72.363 A 0.622 0.622 0 0 0 201.673 72.069 A 0.768 0.768 0 0 0 201.709 71.826 A 0.98 0.98 0 0 0 201.441 71.143 A 0.98 0.98 0 0 1 201.172 70.459 Q 201.172 70.309 201.344 70.146 A 1.343 1.343 0 0 1 201.465 70.044 A 2.438 2.438 0 0 1 201.719 69.878 A 2.96 2.96 0 0 1 202.149 69.678 A 7.193 7.193 0 0 1 202.93 69.434 A 5.691 5.691 0 0 1 203.095 69.395 Q 203.267 69.357 203.391 69.344 A 1.162 1.162 0 0 1 203.516 69.336 A 1.729 1.729 0 0 1 203.782 69.356 A 1.298 1.298 0 0 1 204.346 69.58 A 144.812 144.812 0 0 0 204.706 69.836 A 192.485 192.485 0 0 0 205.103 70.117 Q 205.518 70.41 206.03 70.654 Q 206.351 70.807 206.777 70.864 A 4.121 4.121 0 0 0 207.324 70.898 A 2.649 2.649 0 0 0 207.338 70.898 A 2.768 2.768 0 0 0 208.203 70.752 Q 208.643 70.605 208.887 70.215 A 0.783 0.783 0 0 1 208.87 70.188 Q 208.785 70.049 208.74 69.849 A 2.196 2.196 0 0 1 208.711 69.687 A 1.769 1.769 0 0 1 208.691 69.434 A 1.49 1.49 0 0 1 208.699 69.285 A 1.204 1.204 0 0 1 208.838 68.823 A 3.511 3.511 0 0 1 209.18 68.311 A 3.511 3.511 0 0 0 209.522 67.798 A 1.157 1.157 0 0 0 209.668 67.236 A 0.97 0.97 0 0 0 209.655 67.075 A 0.633 0.633 0 0 0 209.399 66.65 A 1.814 1.814 0 0 0 209.292 66.578 A 1.966 1.966 0 0 0 208.789 66.357 Q 208.545 67.09 208.008 67.432 A 2.107 2.107 0 0 1 207.397 67.695 A 2.638 2.638 0 0 1 206.738 67.773 Q 206.674 67.581 206.652 67.431 A 1.009 1.009 0 0 1 206.641 67.285 A 3.816 3.816 0 0 1 206.641 67.225 Q 206.645 67.014 206.671 66.827 A 2.268 2.268 0 0 1 206.763 66.431 A 6.095 6.095 0 0 0 206.958 65.698 A 2.411 2.411 0 0 0 206.963 65.671 Q 207.029 65.319 206.982 64.99 A 0.99 0.99 0 0 0 206.914 64.749 Q 206.863 64.626 206.777 64.497 A 2.32 2.32 0 0 0 206.592 64.258 Q 205.615 64.258 204.468 64.331 Q 203.32 64.404 202.1 64.404 A 16.246 16.246 0 0 1 199.902 64.258 A 6.228 6.228 0 0 1 199.255 64.135 A 5.024 5.024 0 0 1 197.998 63.647 Q 197.168 63.184 196.68 62.354 Q 196.359 61.809 196.249 61.033 A 6.249 6.249 0 0 1 196.191 60.156 Q 196.191 59.033 196.362 57.861 Q 196.533 56.689 196.533 55.518 Q 196.533 53.711 195.996 51.953 A 13.257 13.257 0 0 1 195.87 51.514 A 11.65 11.65 0 0 1 195.459 48.486 A 5.885 5.885 0 0 1 195.471 48.107 A 4.888 4.888 0 0 1 196.069 46.021 A 15.796 15.796 0 0 1 196.306 45.609 A 17.678 17.678 0 0 1 197.51 43.848 Q 197.998 43.213 198.364 42.236 A 245.537 245.537 0 0 1 199.097 40.308 A 17.968 17.968 0 0 1 199.284 39.839 A 15.852 15.852 0 0 1 199.902 38.525 Q 200.102 38.149 200.341 37.863 A 2.625 2.625 0 0 1 200.977 37.305 Q 201.807 36.768 202.71 36.304 Q 203.613 35.84 204.639 35.742 Q 204.639 35.199 205.005 34.62 A 4.025 4.025 0 0 1 205.396 34.106 A 9.599 9.599 0 0 1 205.895 33.584 A 11.09 11.09 0 0 1 207.178 32.52 A 12.112 12.112 0 0 1 207.242 32.474 A 11.009 11.009 0 0 1 209.302 31.323 A 9.842 9.842 0 0 1 209.347 31.304 Q 210.04 31.016 210.586 30.914 A 3.007 3.007 0 0 1 211.133 30.859 A 1.176 1.176 0 0 1 211.963 31.177 A 1.431 1.431 0 0 0 211.987 31.199 A 1.11 1.11 0 0 0 212.744 31.494 Q 213.004 31.494 213.201 31.384 A 0.893 0.893 0 0 0 213.501 31.104 A 0.809 0.809 0 0 1 213.721 30.886 Q 213.869 30.788 214.068 30.746 A 1.613 1.613 0 0 1 214.404 30.713 A 1.33 1.33 0 0 1 214.555 30.722 Q 214.677 30.736 214.814 30.772 A 2.794 2.794 0 0 1 215.088 30.859 A 10.55 10.55 0 0 0 214.958 31.312 A 9.168 9.168 0 0 0 214.649 33.643 A 12.115 12.115 0 0 0 214.649 33.786 Q 214.655 34.294 214.704 34.86 A 20.384 20.384 0 0 0 214.844 36.06 Q 215.039 37.402 215.552 38.574 A 6.866 6.866 0 0 0 215.723 38.936 A 5.833 5.833 0 0 0 216.919 40.552 A 2.847 2.847 0 0 0 218.062 41.214 A 3.54 3.54 0 0 0 219.092 41.357 A 15.396 15.396 0 0 0 221.362 41.187 Q 222.51 41.016 223.682 41.016 A 9.092 9.092 0 0 1 224.634 41.064 Q 225.098 41.113 225.537 41.309 A 4.129 4.129 0 0 1 225.645 40.834 A 3.311 3.311 0 0 1 226.148 39.795 Q 226.611 39.16 227.075 38.55 A 11.859 11.859 0 0 0 227.93 37.256 A 2.563 2.563 0 0 0 227.944 37.231 Q 228.159 36.845 228.251 36.368 Z M 363.428 21.143 L 364.941 21.094 Q 367.041 21.094 369.238 21.46 A 23.259 23.259 0 0 1 373.535 22.607 A 23.04 23.04 0 0 1 377.515 24.536 A 15.945 15.945 0 0 1 380.859 27.246 Q 381.934 28.418 382.642 30.005 A 18.78 18.78 0 0 1 383.765 33.35 A 26.322 26.322 0 0 1 384.351 36.89 Q 384.522 38.672 384.522 40.186 A 65.381 65.381 0 0 1 384.399 44.214 A 65.381 65.381 0 0 0 384.277 48.242 Q 384.277 50.195 384.497 52.124 Q 384.717 54.053 385.01 55.981 Q 385.303 57.91 385.523 59.839 Q 385.742 61.768 385.742 63.672 Q 385.84 64.844 386.06 65.112 A 1.003 1.003 0 0 0 386.189 65.245 Q 386.267 65.311 386.348 65.345 A 0.451 0.451 0 0 0 386.524 65.381 A 2.848 2.848 0 0 0 387.299 65.28 A 2.161 2.161 0 0 0 388.257 64.722 Q 388.916 64.063 389.453 63.257 Q 389.99 62.451 390.625 61.768 A 2.088 2.088 0 0 1 392.146 61.085 A 2.723 2.723 0 0 1 392.236 61.084 A 8.581 8.581 0 0 1 393.082 61.127 A 9.419 9.419 0 0 1 393.14 61.133 A 2.983 2.983 0 0 1 393.762 61.264 A 2.633 2.633 0 0 1 393.994 61.353 A 1.63 1.63 0 0 1 394.48 61.674 A 1.532 1.532 0 0 1 394.629 61.841 A 1.104 1.104 0 0 1 394.815 62.225 Q 394.859 62.382 394.87 62.568 A 2.194 2.194 0 0 1 394.873 62.695 Q 394.873 63.525 394.58 64.258 A 20.695 20.695 0 0 0 394.043 65.771 Q 393.85 66.448 393.776 66.885 A 5.038 5.038 0 0 0 393.774 66.895 A 3.662 3.662 0 0 1 393.696 67.256 Q 393.646 67.439 393.58 67.595 A 2.141 2.141 0 0 1 393.555 67.651 A 1.551 1.551 0 0 1 393.313 68.02 A 2.048 2.048 0 0 1 393.091 68.237 A 2.695 2.695 0 0 1 392.863 68.408 Q 392.635 68.563 392.303 68.738 A 10.568 10.568 0 0 1 392.09 68.848 A 104.29 104.29 0 0 1 389.797 70.033 A 119.898 119.898 0 0 1 388.989 70.435 A 7.834 7.834 0 0 1 386.938 71.126 A 6.885 6.885 0 0 1 385.693 71.24 A 5.604 5.604 0 0 1 383.032 70.581 Q 381.787 69.922 380.737 69.116 A 138.881 138.881 0 0 1 379.736 68.341 A 104.492 104.492 0 0 1 378.833 67.627 Q 378.131 67.065 377.61 66.965 A 1.151 1.151 0 0 0 377.393 66.943 A 1.977 1.977 0 0 0 376.788 67.033 A 1.699 1.699 0 0 0 376.294 67.285 A 18.23 18.23 0 0 0 375.366 68.018 A 8.05 8.05 0 0 1 374.548 68.62 A 9.117 9.117 0 0 1 374.341 68.75 A 2.248 2.248 0 0 1 373.646 69.022 Q 373.325 69.092 372.949 69.092 Q 372.266 69.092 371.533 69.336 Q 370.801 69.58 370.068 69.897 Q 369.336 70.215 368.579 70.532 A 17.747 17.747 0 0 1 367.853 70.819 A 12.923 12.923 0 0 1 367.188 71.045 A 20.619 20.619 0 0 1 362.769 71.729 Q 360.547 71.826 358.301 71.826 A 41.019 41.019 0 0 1 357.968 71.825 Q 357.423 71.82 356.538 71.803 A 252.139 252.139 0 0 1 356.494 71.802 A 16.016 16.016 0 0 1 354.028 71.558 A 8.741 8.741 0 0 1 352.789 71.249 A 6.792 6.792 0 0 1 351.831 70.85 Q 350.879 70.361 350.879 69.482 A 1.327 1.327 0 0 1 350.888 69.321 Q 350.899 69.235 350.921 69.161 A 0.789 0.789 0 0 1 350.928 69.141 A 2.912 2.912 0 0 1 350.147 69.775 Q 349.707 70.02 349.17 70.02 A 1.501 1.501 0 0 1 348.622 69.905 Q 348.021 69.668 347.266 68.945 A 17.231 17.231 0 0 1 345.772 67.312 A 20.618 20.618 0 0 1 345.117 66.455 A 24.515 24.515 0 0 1 343.846 64.52 A 20.928 20.928 0 0 1 343.359 63.647 A 12.238 12.238 0 0 1 343.041 63.001 Q 342.766 62.393 342.674 61.963 A 1.882 1.882 0 0 1 342.627 61.572 A 1.629 1.629 0 0 1 342.944 60.596 A 1.629 1.629 0 0 0 343.262 59.619 A 4.898 4.898 0 0 0 343.157 58.596 A 4.422 4.422 0 0 0 343.091 58.325 A 4.699 4.699 0 0 1 342.923 57.222 A 5.349 5.349 0 0 1 342.92 57.031 A 5.165 5.165 0 0 1 343.028 56.004 A 6.867 6.867 0 0 1 343.262 55.151 Q 343.604 54.15 344.092 53.149 A 36.911 36.911 0 0 1 345.117 51.196 A 85.539 85.539 0 0 0 345.63 50.275 A 68.134 68.134 0 0 0 346.094 49.414 A 3.979 3.979 0 0 1 347.461 47.852 A 12.83 12.83 0 0 1 349.316 46.826 L 351.27 45.947 Q 352.246 45.508 352.979 44.775 A 2.393 2.393 0 0 0 354.729 45.602 A 3.19 3.19 0 0 0 354.883 45.605 A 7.976 7.976 0 0 0 357.275 45.239 A 7.976 7.976 0 0 1 359.668 44.873 A 8.894 8.894 0 0 1 361.491 45.056 A 8.287 8.287 0 0 1 361.548 45.068 A 8.848 8.848 0 0 0 363.367 45.263 A 9.728 9.728 0 0 0 363.428 45.264 Q 364.502 45.264 365.015 44.995 Q 365.478 44.753 366.16 44.172 A 14.871 14.871 0 0 0 366.309 44.043 A 4.742 4.742 0 0 1 367.367 43.351 A 6.368 6.368 0 0 1 368.286 42.993 A 19.855 19.855 0 0 1 370.776 42.407 Q 372.07 42.188 373.364 41.943 A 11.348 11.348 0 0 0 374.726 41.602 A 8.962 8.962 0 0 0 375.684 41.235 A 4.625 4.625 0 0 0 376.788 40.543 A 4.066 4.066 0 0 0 377.344 39.966 A 2.733 2.733 0 0 0 377.81 39.042 Q 377.926 38.652 377.962 38.185 A 5.694 5.694 0 0 0 377.979 37.744 A 6.143 6.143 0 0 0 377.708 35.984 Q 377.485 35.234 377.075 34.448 A 13.239 13.239 0 0 0 374.756 31.274 A 13.199 13.199 0 0 0 371.631 28.906 A 8.477 8.477 0 0 0 370.215 28.289 Q 369.322 27.998 368.473 27.98 A 5.291 5.291 0 0 0 368.359 27.979 A 1.605 1.605 0 0 0 367.969 28.027 A 1.927 1.927 0 0 1 367.829 28.057 Q 367.719 28.076 367.627 28.076 A 19.776 19.776 0 0 1 366.382 28.241 A 27.122 27.122 0 0 1 364.991 28.345 A 12.624 12.624 0 0 0 363.079 28.582 A 10.835 10.835 0 0 0 362.256 28.784 A 5.236 5.236 0 0 0 360.758 29.475 A 4.771 4.771 0 0 0 360.107 30.005 Q 359.331 30.76 359.241 32.143 A 5.762 5.762 0 0 0 359.229 32.52 A 10.896 10.896 0 0 0 359.399 34.448 A 10.896 10.896 0 0 1 359.57 36.377 A 5.005 5.005 0 0 1 359.454 37.487 A 3.599 3.599 0 0 1 358.862 38.818 A 5.246 5.246 0 0 1 357.056 40.381 A 7.736 7.736 0 0 1 354.925 41.134 A 8.824 8.824 0 0 1 354.639 41.187 A 15.982 15.982 0 0 1 352.716 41.393 A 13.986 13.986 0 0 1 352.1 41.406 A 9.243 9.243 0 0 1 350.903 41.333 Q 350.169 41.237 349.561 41.016 A 2.61 2.61 0 0 1 348.557 40.34 Q 348.259 40.027 348.007 39.595 A 5.593 5.593 0 0 1 347.803 39.209 A 209.011 209.011 0 0 1 347.247 38.141 A 261.162 261.162 0 0 1 346.655 36.987 A 5.606 5.606 0 0 1 346.138 35.52 A 4.907 4.907 0 0 1 346.045 34.57 Q 346.045 33.252 346.509 32.104 A 23.431 23.431 0 0 1 347.559 29.858 A 141.971 141.971 0 0 0 348.706 27.661 A 8.844 8.844 0 0 0 349.512 25.293 A 3.04 3.04 0 0 1 349.752 25.171 Q 350.025 25.046 350.409 24.92 A 9.766 9.766 0 0 1 350.464 24.902 A 31.519 31.519 0 0 1 351.265 24.658 A 38.615 38.615 0 0 1 351.782 24.512 A 94.079 94.079 0 0 1 352.817 24.232 A 83.919 83.919 0 0 1 353.149 24.146 A 26.019 26.019 0 0 0 353.465 24.062 Q 353.917 23.938 354.246 23.829 A 14.717 14.717 0 0 0 354.248 23.828 A 20.815 20.815 0 0 0 356.519 23.022 Q 357.617 22.559 358.765 22.168 A 30.643 30.643 0 0 1 361.06 21.484 A 11.386 11.386 0 0 1 363.428 21.143 Z M 541.797 11.328 L 541.357 11.523 A 1.515 1.515 0 0 1 540.479 11.255 Q 540.088 10.986 539.746 10.669 Q 539.404 10.352 539.014 10.083 A 1.515 1.515 0 0 0 538.135 9.814 A 1.653 1.653 0 0 0 537.905 9.829 Q 537.563 9.877 537.451 10.083 A 1.219 1.219 0 0 1 537.286 10.313 Q 537.196 10.413 537.077 10.509 A 2.415 2.415 0 0 1 536.963 10.596 Q 536.426 10.645 535.864 10.669 A 25.3 25.3 0 0 1 534.766 10.693 L 532.617 10.693 A 2.711 2.711 0 0 1 531.986 10.614 Q 531.56 10.512 531.079 10.278 A 7.751 7.751 0 0 1 529.646 9.37 A 8.77 8.77 0 0 1 529.443 9.204 A 7.427 7.427 0 0 1 528.543 8.308 A 6.307 6.307 0 0 1 528.149 7.788 A 3.355 3.355 0 0 1 527.822 7.189 Q 527.649 6.769 527.638 6.357 A 2.098 2.098 0 0 1 527.637 6.299 A 2.218 2.218 0 0 1 527.747 5.625 Q 527.831 5.36 527.98 5.084 A 4.011 4.011 0 0 1 528.052 4.956 A 5.982 5.982 0 0 1 529.077 3.662 A 5.453 5.453 0 0 1 530.42 2.71 A 3.705 3.705 0 0 1 531.096 2.447 A 2.791 2.791 0 0 1 531.836 2.344 A 2.262 2.262 0 0 1 533.008 2.661 A 2.262 2.262 0 0 0 534.18 2.979 A 6.378 6.378 0 0 0 536.255 2.637 A 6.497 6.497 0 0 1 538.274 2.296 A 7.327 7.327 0 0 1 538.379 2.295 A 6.136 6.136 0 0 1 540.487 2.655 A 5.864 5.864 0 0 1 540.503 2.661 A 6.132 6.132 0 0 0 542.623 3.027 A 4.81 4.81 0 0 0 542.627 3.027 A 29.528 29.528 0 0 0 544.312 2.979 A 29.528 29.528 0 0 1 545.996 2.93 A 11.121 11.121 0 0 1 547.778 3.076 A 5.06 5.06 0 0 1 549.463 3.662 L 549.463 3.955 A 5.329 5.329 0 0 0 549.634 5.298 Q 549.805 5.957 550.024 6.616 A 23.076 23.076 0 0 1 550.404 7.87 A 21.097 21.097 0 0 1 550.415 7.91 Q 550.586 8.545 550.586 9.229 Q 550.586 10.107 550.171 10.913 Q 549.756 11.719 549.756 12.646 Q 549.756 14.355 550.147 16.04 Q 550.537 17.725 550.537 19.434 A 749.866 749.866 0 0 1 550.488 28.003 A 754.175 754.175 0 0 0 550.44 36.621 A 128.821 128.821 0 0 1 550.147 45.337 A 128.821 128.821 0 0 0 549.854 54.053 A 42.26 42.26 0 0 0 549.886 55.655 Q 549.922 56.614 550 57.69 A 14.679 14.679 0 0 0 550.56 60.822 A 13.357 13.357 0 0 0 550.781 61.499 Q 551.416 63.281 552.661 64.502 A 4.111 4.111 0 0 0 554.59 65.551 Q 555.28 65.723 556.104 65.723 Q 556.543 65.723 556.958 65.649 Q 557.373 65.576 557.813 65.576 A 2 2 0 0 1 558.532 65.703 A 1.857 1.857 0 0 1 558.936 65.918 A 3.039 3.039 0 0 1 559.711 66.714 A 3.494 3.494 0 0 1 559.766 66.797 A 4.204 4.204 0 0 1 560.278 67.969 Q 560.449 68.604 560.449 69.141 Q 560.449 69.775 560.132 70.41 Q 559.855 70.963 559.264 71.034 A 1.521 1.521 0 0 1 559.082 71.045 A 4.101 4.101 0 0 1 558.539 71.01 A 3.204 3.204 0 0 1 558.106 70.923 A 3.299 3.299 0 0 0 557.549 70.821 A 4.238 4.238 0 0 0 557.129 70.801 A 3.171 3.171 0 0 0 556.873 70.81 Q 556.343 70.853 556.323 71.094 A 3.076 3.076 0 0 1 556.288 71.364 Q 556.256 71.547 556.201 71.753 A 0.675 0.675 0 0 1 556.056 72.017 Q 555.875 72.229 555.493 72.412 A 1.85 1.85 0 0 1 555.133 72.533 Q 554.425 72.705 552.93 72.705 A 12.668 12.668 0 0 1 550.708 72.51 A 12.668 12.668 0 0 0 548.486 72.314 A 6.534 6.534 0 0 0 547.563 72.383 A 8.749 8.749 0 0 0 546.68 72.559 A 3.175 3.175 0 0 0 546.284 72.143 A 2.418 2.418 0 0 0 545.825 71.826 A 11.395 11.395 0 0 1 544.998 71.347 A 10.455 10.455 0 0 1 544.946 71.313 A 2.734 2.734 0 0 1 544.238 70.654 A 1.255 1.255 0 0 1 544.055 70.292 Q 543.945 69.96 543.945 69.482 A 0.594 0.594 0 0 0 543.901 69.243 Q 543.79 68.99 543.406 68.952 A 1.468 1.468 0 0 0 543.262 68.945 A 2.191 2.191 0 0 0 542.895 68.975 A 1.953 1.953 0 0 0 542.798 68.994 A 2.084 2.084 0 0 1 542.425 69.041 A 2.375 2.375 0 0 1 542.334 69.043 A 0.812 0.812 0 0 1 542.129 69.018 A 0.632 0.632 0 0 1 541.919 68.921 A 0.397 0.397 0 0 1 541.755 68.645 A 0.605 0.605 0 0 1 541.748 68.555 A 0.311 0.311 0 0 1 541.753 68.5 Q 541.758 68.47 541.77 68.446 A 0.145 0.145 0 0 1 541.797 68.408 A 2.78 2.78 0 0 0 541.15 68.511 A 1.844 1.844 0 0 0 540.234 69.092 A 35.932 35.932 0 0 1 539.525 69.904 A 42.658 42.658 0 0 1 539.063 70.41 A 3.513 3.513 0 0 1 538.582 70.815 A 2.803 2.803 0 0 1 538.135 71.069 Q 537.647 71.289 537.134 71.46 A 12.179 12.179 0 0 0 536.474 71.702 A 14.679 14.679 0 0 0 536.06 71.875 A 3.644 3.644 0 0 0 535.401 72.251 A 4.744 4.744 0 0 0 534.961 72.607 A 1.743 1.743 0 0 1 534.575 72.892 Q 534.192 73.106 533.604 73.242 A 6.254 6.254 0 0 1 533.496 73.267 A 20.218 20.218 0 0 1 531.889 73.541 A 23.347 23.347 0 0 1 531.323 73.608 Q 530.176 73.73 529.077 73.755 A 145.465 145.465 0 0 1 528.557 73.766 Q 528.05 73.775 527.667 73.778 A 42.167 42.167 0 0 1 527.344 73.779 A 14.61 14.61 0 0 1 526.483 73.755 Q 526.04 73.729 525.663 73.674 A 5.93 5.93 0 0 1 524.976 73.535 A 9.034 9.034 0 0 1 524.034 73.227 A 7.098 7.098 0 0 1 523.364 72.925 Q 522.656 72.559 521.875 72.144 A 8.671 8.671 0 0 0 521.227 71.836 Q 520.636 71.582 519.873 71.338 Q 518.987 71.075 517.859 70.504 A 23.548 23.548 0 0 1 516.699 69.873 A 24.833 24.833 0 0 1 513.159 67.383 A 17.325 17.325 0 0 1 510.962 65.185 A 15.255 15.255 0 0 1 510.303 64.331 Q 509.131 62.695 509.131 61.182 Q 509.131 60.498 508.814 59.79 A 8.206 8.206 0 0 0 508.032 58.423 A 66.813 66.813 0 0 0 507.08 57.104 Q 506.592 56.445 506.299 55.859 Q 505.371 54.004 505.103 51.953 A 31.556 31.556 0 0 1 504.834 47.852 A 22.347 22.347 0 0 1 505.02 44.925 A 19.895 19.895 0 0 1 505.127 44.214 A 39.83 39.83 0 0 1 505.859 40.796 A 200.49 200.49 0 0 1 506.763 37.451 A 59.254 59.254 0 0 0 507.518 34.434 A 65.777 65.777 0 0 0 507.617 33.984 Q 507.861 32.715 508.301 32.056 A 5.762 5.762 0 0 1 509.163 31.033 A 5.327 5.327 0 0 1 509.302 30.908 Q 509.863 30.42 510.523 29.98 A 4.914 4.914 0 0 0 511.099 29.526 Q 511.371 29.278 511.648 28.965 A 9.388 9.388 0 0 0 511.865 28.711 Q 512.155 28.373 512.23 28.107 A 0.818 0.818 0 0 0 512.232 28.101 A 4.994 4.994 0 0 1 512.284 27.92 Q 512.331 27.771 512.378 27.661 A 0.4 0.4 0 0 1 512.54 27.477 A 0.617 0.617 0 0 1 512.671 27.417 A 0.915 0.915 0 0 1 512.802 27.386 Q 513.021 27.348 513.435 27.344 A 10.228 10.228 0 0 1 513.525 27.344 Q 513.916 27.344 514.136 27.1 A 2.992 2.992 0 0 0 514.372 26.799 A 3.934 3.934 0 0 0 514.551 26.514 Q 514.746 26.172 514.917 25.806 A 1.506 1.506 0 0 1 515.115 25.487 A 1.211 1.211 0 0 1 515.381 25.244 Q 515.655 25.061 516.057 24.964 A 3.107 3.107 0 0 1 516.113 24.951 A 7.649 7.649 0 0 1 516.8 24.832 A 8.717 8.717 0 0 1 517.041 24.805 A 183.862 183.862 0 0 0 517.993 24.707 Q 518.457 24.658 518.848 24.512 A 40.139 40.139 0 0 0 519.338 24.298 Q 520.015 23.997 520.5 23.747 A 13.742 13.742 0 0 0 520.532 23.73 A 23.252 23.252 0 0 1 521.416 23.295 A 19.769 19.769 0 0 1 521.802 23.12 Q 522.412 22.852 523.193 22.705 A 7.159 7.159 0 0 1 523.788 22.622 Q 524.411 22.559 525.244 22.559 A 13.352 13.352 0 0 1 528.54 22.974 A 73.671 73.671 0 0 1 531.787 23.877 A 79.424 79.424 0 0 0 535.01 24.78 A 13.258 13.258 0 0 0 538.33 25.195 Q 539.354 25.195 540.063 24.867 A 2.616 2.616 0 0 0 540.503 24.609 Q 541.309 24.023 541.724 23.096 A 6.515 6.515 0 0 0 542.181 21.598 A 7.751 7.751 0 0 0 542.261 21.045 A 20.33 20.33 0 0 0 542.383 18.848 Q 542.383 16.943 542.139 15.063 A 48.989 48.989 0 0 1 541.797 11.328 Z M 95.947 24.609 L 95.899 24.609 Q 96.631 24.707 97.29 25.024 Q 97.949 25.342 98.682 25.439 A 7.337 7.337 0 0 0 99.469 26.251 Q 99.887 26.623 100.396 26.979 A 11.899 11.899 0 0 0 100.464 27.026 A 40.581 40.581 0 0 1 102.612 28.613 A 11.546 11.546 0 0 1 103.917 29.812 A 10.045 10.045 0 0 1 104.419 30.396 Q 105.176 31.348 105.176 32.568 A 3.146 3.146 0 0 1 105.151 32.959 Q 105.127 33.154 105.078 33.398 L 105.274 33.154 A 0.886 0.886 0 0 1 105.416 33.291 Q 105.478 33.364 105.537 33.459 A 2.206 2.206 0 0 1 105.64 33.643 A 6.105 6.105 0 0 1 105.841 34.092 A 7.545 7.545 0 0 1 105.957 34.399 Q 106.104 34.814 106.201 35.229 A 36.877 36.877 0 0 1 106.247 35.426 Q 106.311 35.706 106.348 35.889 A 3.017 3.017 0 0 0 107.398 36.914 A 2.892 2.892 0 0 1 108.447 37.988 A 1.644 1.644 0 0 0 107.976 38.975 A 2.26 2.26 0 0 0 107.959 39.258 A 4.15 4.15 0 0 0 108.296 40.881 A 4.721 4.721 0 0 0 108.301 40.894 A 4.166 4.166 0 0 1 108.642 42.452 A 4.025 4.025 0 0 1 108.643 42.529 A 17.791 17.791 0 0 1 108.573 44.125 A 15.985 15.985 0 0 1 108.545 44.409 A 17.227 17.227 0 0 0 108.449 46.016 A 19.225 19.225 0 0 0 108.447 46.289 A 1.517 1.517 0 0 1 108.369 46.788 A 1.245 1.245 0 0 1 107.886 47.412 A 7.377 7.377 0 0 1 106.668 48.095 A 7.518 7.518 0 0 1 106.665 48.096 A 18.374 18.374 0 0 0 105.962 48.425 A 14.342 14.342 0 0 0 105.469 48.682 A 1.234 1.234 0 0 0 105.188 48.886 A 0.847 0.847 0 0 0 104.932 49.512 A 0.467 0.467 0 0 1 104.908 49.666 Q 104.829 49.892 104.481 49.879 A 1.083 1.083 0 0 1 104.468 49.878 Q 104.053 49.856 103.775 49.854 A 7.698 7.698 0 0 0 103.711 49.854 A 17.365 17.365 0 0 1 99.439 49.316 Q 97.315 48.779 95.215 48.779 A 32.416 32.416 0 0 0 90.674 49.097 A 32.416 32.416 0 0 1 86.133 49.414 A 58.626 58.626 0 0 1 82.739 49.316 A 58.626 58.626 0 0 0 79.346 49.219 A 3.967 3.967 0 0 0 79.097 49.228 Q 78.732 49.252 78.099 49.334 A 41.646 41.646 0 0 0 77.686 49.39 A 42.55 42.55 0 0 0 75.949 49.671 A 49.778 49.778 0 0 0 75.122 49.829 A 28.575 28.575 0 0 0 72.943 50.352 A 25.677 25.677 0 0 0 72.559 50.464 Q 71.338 50.83 70.85 51.172 Q 70.806 51.392 70.801 51.772 A 7.411 7.411 0 0 0 70.801 51.855 A 8.716 8.716 0 0 0 71.274 54.632 A 11.936 11.936 0 0 0 72.144 56.592 A 17.097 17.097 0 0 0 75.346 60.72 A 19.374 19.374 0 0 0 75.684 61.035 A 20.491 20.491 0 0 0 80.615 64.355 Q 83.35 65.674 86.133 65.674 A 41.685 41.685 0 0 1 89.331 65.796 A 10.853 10.853 0 0 1 92.432 66.504 A 14.368 14.368 0 0 0 94.641 65.193 A 13.234 13.234 0 0 0 94.849 65.039 A 31.186 31.186 0 0 0 96.973 63.281 A 55.303 55.303 0 0 0 98.975 61.377 A 114.707 114.707 0 0 1 100.977 59.424 Q 101.158 59.243 101.822 59.083 A 7.559 7.559 0 0 1 101.929 59.058 Q 102.686 58.887 103.565 58.765 A 37.141 37.141 0 0 1 104.842 58.609 A 32.296 32.296 0 0 1 105.249 58.569 A 38.997 38.997 0 0 1 105.599 58.539 Q 106.123 58.496 106.348 58.496 A 6.524 6.524 0 0 1 107.918 58.68 A 5.85 5.85 0 0 1 108.447 58.838 Q 108.74 59.961 108.74 61.035 Q 108.74 62.354 108.325 63.281 A 6.323 6.323 0 0 1 107.251 64.941 A 10.062 10.062 0 0 1 106 66.108 A 11.383 11.383 0 0 1 105.737 66.309 A 38.527 38.527 0 0 0 104.442 67.316 A 42.913 42.913 0 0 0 104.004 67.676 A 10.589 10.589 0 0 1 103.532 68.059 Q 103.304 68.232 103.096 68.367 A 4.797 4.797 0 0 1 102.783 68.555 A 9.019 9.019 0 0 1 102.056 68.911 A 7.662 7.662 0 0 1 101.733 69.043 A 37.976 37.976 0 0 1 100.937 69.336 A 42.796 42.796 0 0 1 100.659 69.434 Q 100.229 69.583 99.699 69.819 A 19.628 19.628 0 0 0 99.365 69.971 A 26.365 26.365 0 0 0 98.678 70.327 Q 98.343 70.507 98.056 70.675 A 12.974 12.974 0 0 0 97.73 70.874 A 18.196 18.196 0 0 1 96.411 71.631 A 7.356 7.356 0 0 1 95.307 72.09 A 8.459 8.459 0 0 1 94.971 72.192 Q 94.19 72.412 93.018 72.559 A 84.93 84.93 0 0 0 89.087 73.145 A 23.042 23.042 0 0 1 85.156 73.486 A 1.969 1.969 0 0 1 84.62 73.409 A 2.47 2.47 0 0 1 84.351 73.315 A 10.353 10.353 0 0 0 83.92 73.15 Q 83.706 73.073 83.467 72.996 A 16.823 16.823 0 0 0 83.399 72.974 A 19.96 19.96 0 0 0 82.831 72.803 A 26.496 26.496 0 0 0 82.202 72.632 A 4.875 4.875 0 0 0 81.598 72.518 Q 81.291 72.479 80.942 72.467 A 9.306 9.306 0 0 0 80.615 72.461 A 5.306 5.306 0 0 1 80.003 72.428 Q 79.705 72.393 79.455 72.322 A 2.324 2.324 0 0 1 79.053 72.168 A 5.428 5.428 0 0 1 78.196 71.639 A 4.877 4.877 0 0 1 78.003 71.484 A 20.383 20.383 0 0 1 77.354 70.913 A 23.834 23.834 0 0 1 77.051 70.63 Q 76.593 70.195 75.878 69.867 A 6.193 6.193 0 0 0 75.781 69.824 A 21.009 21.009 0 0 1 72.802 68.196 A 16.77 16.77 0 0 1 70.801 66.65 Q 68.75 64.795 67.285 62.5 A 25.275 25.275 0 0 1 64.844 57.52 A 48.994 48.994 0 0 1 63.184 51.904 Q 62.647 49.854 62.647 47.803 A 10.121 10.121 0 0 1 63.916 42.822 A 8.584 8.584 0 0 1 63.521 41.315 A 7.022 7.022 0 0 1 63.428 40.186 A 4.732 4.732 0 0 1 63.47 39.592 Q 63.551 38.959 63.787 38.065 A 24.003 24.003 0 0 1 63.965 37.427 A 26.609 26.609 0 0 1 65.148 34.204 A 29.592 29.592 0 0 1 65.357 33.74 A 25.759 25.759 0 0 1 66.482 31.564 A 21.209 21.209 0 0 1 67.212 30.396 A 9.46 9.46 0 0 1 67.735 29.685 Q 68.446 28.815 69.092 28.564 A 11.929 11.929 0 0 0 69.408 28.447 Q 69.843 28.278 70.044 28.149 A 0.409 0.409 0 0 0 70.183 27.989 Q 70.307 27.751 70.312 27.244 A 4.386 4.386 0 0 0 70.313 27.197 A 1.211 1.211 0 0 1 70.7 26.289 A 1.565 1.565 0 0 1 70.776 26.221 A 3.456 3.456 0 0 1 71.451 25.78 A 4.365 4.365 0 0 1 71.899 25.586 A 20.85 20.85 0 0 1 73.218 25.146 A 12.677 12.677 0 0 0 73.681 25 Q 73.905 24.924 74.096 24.848 A 5.992 5.992 0 0 0 74.316 24.756 A 42.721 42.721 0 0 1 76.455 23.784 A 34.58 34.58 0 0 1 77.759 23.267 Q 79.395 22.656 81.03 22.241 Q 82.666 21.826 84.424 21.631 A 31.811 31.811 0 0 1 86.717 21.463 A 38.307 38.307 0 0 1 88.184 21.436 A 7.605 7.605 0 0 1 90.283 21.729 A 12.089 12.089 0 0 1 92.261 22.485 A 23.545 23.545 0 0 1 94.141 23.511 Q 95.068 24.072 95.947 24.609 Z M 266.992 24.609 L 266.943 24.609 Q 267.676 24.707 268.335 25.024 Q 268.994 25.342 269.727 25.439 A 7.337 7.337 0 0 0 270.514 26.251 Q 270.932 26.623 271.441 26.979 A 11.899 11.899 0 0 0 271.509 27.026 A 40.581 40.581 0 0 1 273.657 28.613 A 11.546 11.546 0 0 1 274.962 29.812 A 10.045 10.045 0 0 1 275.464 30.396 Q 276.221 31.348 276.221 32.568 A 3.146 3.146 0 0 1 276.196 32.959 Q 276.172 33.154 276.123 33.398 L 276.318 33.154 A 0.886 0.886 0 0 1 276.461 33.291 Q 276.523 33.364 276.582 33.459 A 2.206 2.206 0 0 1 276.685 33.643 A 6.105 6.105 0 0 1 276.886 34.092 A 7.545 7.545 0 0 1 277.002 34.399 Q 277.149 34.814 277.246 35.229 A 36.877 36.877 0 0 1 277.292 35.426 Q 277.356 35.706 277.393 35.889 A 3.017 3.017 0 0 0 278.442 36.914 A 2.892 2.892 0 0 1 279.492 37.988 A 1.644 1.644 0 0 0 279.021 38.975 A 2.26 2.26 0 0 0 279.004 39.258 A 4.15 4.15 0 0 0 279.34 40.881 A 4.721 4.721 0 0 0 279.346 40.894 A 4.166 4.166 0 0 1 279.687 42.452 A 4.025 4.025 0 0 1 279.688 42.529 A 17.791 17.791 0 0 1 279.618 44.125 A 15.985 15.985 0 0 1 279.59 44.409 A 17.227 17.227 0 0 0 279.494 46.016 A 19.225 19.225 0 0 0 279.492 46.289 A 1.517 1.517 0 0 1 279.414 46.788 A 1.245 1.245 0 0 1 278.931 47.412 A 7.377 7.377 0 0 1 277.713 48.095 A 7.518 7.518 0 0 1 277.71 48.096 A 18.374 18.374 0 0 0 277.007 48.425 A 14.342 14.342 0 0 0 276.514 48.682 A 1.234 1.234 0 0 0 276.233 48.886 A 0.847 0.847 0 0 0 275.977 49.512 A 0.467 0.467 0 0 1 275.953 49.666 Q 275.874 49.892 275.526 49.879 A 1.083 1.083 0 0 1 275.513 49.878 Q 275.098 49.856 274.82 49.854 A 7.698 7.698 0 0 0 274.756 49.854 A 17.365 17.365 0 0 1 270.483 49.316 Q 268.359 48.779 266.26 48.779 A 32.416 32.416 0 0 0 261.719 49.097 A 32.416 32.416 0 0 1 257.178 49.414 A 58.626 58.626 0 0 1 253.784 49.316 A 58.626 58.626 0 0 0 250.391 49.219 A 3.967 3.967 0 0 0 250.142 49.228 Q 249.777 49.252 249.143 49.334 A 41.646 41.646 0 0 0 248.731 49.39 A 42.55 42.55 0 0 0 246.994 49.671 A 49.778 49.778 0 0 0 246.167 49.829 A 28.575 28.575 0 0 0 243.988 50.352 A 25.677 25.677 0 0 0 243.604 50.464 Q 242.383 50.83 241.895 51.172 Q 241.85 51.392 241.846 51.772 A 7.411 7.411 0 0 0 241.846 51.855 A 8.716 8.716 0 0 0 242.319 54.632 A 11.936 11.936 0 0 0 243.189 56.592 A 17.097 17.097 0 0 0 246.39 60.72 A 19.374 19.374 0 0 0 246.729 61.035 A 20.491 20.491 0 0 0 251.66 64.355 Q 254.395 65.674 257.178 65.674 A 41.685 41.685 0 0 1 260.376 65.796 A 10.853 10.853 0 0 1 263.477 66.504 A 14.368 14.368 0 0 0 265.686 65.193 A 13.234 13.234 0 0 0 265.894 65.039 A 31.186 31.186 0 0 0 268.018 63.281 A 55.303 55.303 0 0 0 270.02 61.377 A 114.707 114.707 0 0 1 272.022 59.424 Q 272.203 59.243 272.867 59.083 A 7.559 7.559 0 0 1 272.974 59.058 Q 273.731 58.887 274.609 58.765 A 37.141 37.141 0 0 1 275.887 58.609 A 32.296 32.296 0 0 1 276.294 58.569 A 38.997 38.997 0 0 1 276.644 58.539 Q 277.168 58.496 277.393 58.496 A 6.524 6.524 0 0 1 278.963 58.68 A 5.85 5.85 0 0 1 279.492 58.838 Q 279.785 59.961 279.785 61.035 Q 279.785 62.354 279.37 63.281 A 6.323 6.323 0 0 1 278.296 64.941 A 10.062 10.062 0 0 1 277.045 66.108 A 11.383 11.383 0 0 1 276.782 66.309 A 38.527 38.527 0 0 0 275.487 67.316 A 42.913 42.913 0 0 0 275.049 67.676 A 10.589 10.589 0 0 1 274.576 68.059 Q 274.349 68.232 274.141 68.367 A 4.797 4.797 0 0 1 273.828 68.555 A 9.019 9.019 0 0 1 273.101 68.911 A 7.662 7.662 0 0 1 272.778 69.043 A 37.976 37.976 0 0 1 271.982 69.336 A 42.796 42.796 0 0 1 271.704 69.434 Q 271.274 69.583 270.744 69.819 A 19.628 19.628 0 0 0 270.41 69.971 A 26.365 26.365 0 0 0 269.722 70.327 Q 269.387 70.507 269.101 70.675 A 12.974 12.974 0 0 0 268.774 70.874 A 18.196 18.196 0 0 1 267.456 71.631 A 7.356 7.356 0 0 1 266.352 72.09 A 8.459 8.459 0 0 1 266.016 72.192 Q 265.234 72.412 264.063 72.559 A 84.93 84.93 0 0 0 260.132 73.145 A 23.042 23.042 0 0 1 256.201 73.486 A 1.969 1.969 0 0 1 255.665 73.409 A 2.47 2.47 0 0 1 255.396 73.315 A 10.353 10.353 0 0 0 254.965 73.15 Q 254.751 73.073 254.512 72.996 A 16.823 16.823 0 0 0 254.443 72.974 A 19.96 19.96 0 0 0 253.876 72.803 A 26.496 26.496 0 0 0 253.247 72.632 A 4.875 4.875 0 0 0 252.643 72.518 Q 252.336 72.479 251.987 72.467 A 9.306 9.306 0 0 0 251.66 72.461 A 5.306 5.306 0 0 1 251.048 72.428 Q 250.75 72.393 250.5 72.322 A 2.324 2.324 0 0 1 250.098 72.168 A 5.428 5.428 0 0 1 249.241 71.639 A 4.877 4.877 0 0 1 249.048 71.484 A 20.383 20.383 0 0 1 248.399 70.913 A 23.834 23.834 0 0 1 248.096 70.63 Q 247.638 70.195 246.923 69.867 A 6.193 6.193 0 0 0 246.826 69.824 A 21.009 21.009 0 0 1 243.847 68.196 A 16.77 16.77 0 0 1 241.846 66.65 Q 239.795 64.795 238.33 62.5 A 25.275 25.275 0 0 1 235.889 57.52 A 48.994 48.994 0 0 1 234.229 51.904 Q 233.691 49.854 233.691 47.803 A 10.121 10.121 0 0 1 234.961 42.822 A 8.584 8.584 0 0 1 234.566 41.315 A 7.022 7.022 0 0 1 234.473 40.186 A 4.732 4.732 0 0 1 234.515 39.592 Q 234.596 38.959 234.832 38.065 A 24.003 24.003 0 0 1 235.01 37.427 A 26.609 26.609 0 0 1 236.193 34.204 A 29.592 29.592 0 0 1 236.401 33.74 A 25.759 25.759 0 0 1 237.527 31.564 A 21.209 21.209 0 0 1 238.257 30.396 A 9.46 9.46 0 0 1 238.78 29.685 Q 239.491 28.815 240.137 28.564 A 11.929 11.929 0 0 0 240.453 28.447 Q 240.888 28.278 241.089 28.149 A 0.409 0.409 0 0 0 241.228 27.989 Q 241.352 27.751 241.357 27.244 A 4.386 4.386 0 0 0 241.357 27.197 A 1.211 1.211 0 0 1 241.745 26.289 A 1.565 1.565 0 0 1 241.821 26.221 A 3.456 3.456 0 0 1 242.496 25.78 A 4.365 4.365 0 0 1 242.944 25.586 A 20.85 20.85 0 0 1 244.263 25.146 A 12.677 12.677 0 0 0 244.726 25 Q 244.95 24.924 245.141 24.848 A 5.992 5.992 0 0 0 245.361 24.756 A 42.721 42.721 0 0 1 247.5 23.784 A 34.58 34.58 0 0 1 248.804 23.267 Q 250.44 22.656 252.075 22.241 Q 253.711 21.826 255.469 21.631 A 31.811 31.811 0 0 1 257.761 21.463 A 38.307 38.307 0 0 1 259.229 21.436 A 7.605 7.605 0 0 1 261.328 21.729 A 12.089 12.089 0 0 1 263.306 22.485 A 23.545 23.545 0 0 1 265.186 23.511 Q 266.113 24.072 266.992 24.609 Z M 483.691 24.609 L 483.643 24.609 Q 484.375 24.707 485.034 25.024 Q 485.693 25.342 486.426 25.439 A 7.337 7.337 0 0 0 487.213 26.251 Q 487.631 26.623 488.14 26.979 A 11.899 11.899 0 0 0 488.208 27.026 A 40.581 40.581 0 0 1 490.357 28.613 A 11.546 11.546 0 0 1 491.662 29.812 A 10.045 10.045 0 0 1 492.163 30.396 Q 492.92 31.348 492.92 32.568 A 3.146 3.146 0 0 1 492.896 32.959 Q 492.871 33.154 492.822 33.398 L 493.018 33.154 A 0.886 0.886 0 0 1 493.16 33.291 Q 493.222 33.364 493.281 33.459 A 2.206 2.206 0 0 1 493.384 33.643 A 6.105 6.105 0 0 1 493.586 34.092 A 7.545 7.545 0 0 1 493.701 34.399 Q 493.848 34.814 493.945 35.229 A 36.877 36.877 0 0 1 493.991 35.426 Q 494.055 35.706 494.092 35.889 A 3.017 3.017 0 0 0 495.142 36.914 A 2.892 2.892 0 0 1 496.191 37.988 A 1.644 1.644 0 0 0 495.72 38.975 A 2.26 2.26 0 0 0 495.703 39.258 A 4.15 4.15 0 0 0 496.04 40.881 A 4.721 4.721 0 0 0 496.045 40.894 A 4.166 4.166 0 0 1 496.386 42.452 A 4.025 4.025 0 0 1 496.387 42.529 A 17.791 17.791 0 0 1 496.317 44.125 A 15.985 15.985 0 0 1 496.289 44.409 A 17.227 17.227 0 0 0 496.193 46.016 A 19.225 19.225 0 0 0 496.191 46.289 A 1.517 1.517 0 0 1 496.113 46.788 A 1.245 1.245 0 0 1 495.63 47.412 A 7.377 7.377 0 0 1 494.412 48.095 A 7.518 7.518 0 0 1 494.409 48.096 A 18.374 18.374 0 0 0 493.706 48.425 A 14.342 14.342 0 0 0 493.213 48.682 A 1.234 1.234 0 0 0 492.933 48.886 A 0.847 0.847 0 0 0 492.676 49.512 A 0.467 0.467 0 0 1 492.653 49.666 Q 492.573 49.892 492.226 49.879 A 1.083 1.083 0 0 1 492.212 49.878 Q 491.797 49.856 491.519 49.854 A 7.698 7.698 0 0 0 491.455 49.854 A 17.365 17.365 0 0 1 487.183 49.316 Q 485.059 48.779 482.959 48.779 A 32.416 32.416 0 0 0 478.418 49.097 A 32.416 32.416 0 0 1 473.877 49.414 A 58.626 58.626 0 0 1 470.483 49.316 A 58.626 58.626 0 0 0 467.09 49.219 A 3.967 3.967 0 0 0 466.841 49.228 Q 466.476 49.252 465.843 49.334 A 41.646 41.646 0 0 0 465.43 49.39 A 42.55 42.55 0 0 0 463.694 49.671 A 49.778 49.778 0 0 0 462.866 49.829 A 28.575 28.575 0 0 0 460.687 50.352 A 25.677 25.677 0 0 0 460.303 50.464 Q 459.082 50.83 458.594 51.172 Q 458.55 51.392 458.545 51.772 A 7.411 7.411 0 0 0 458.545 51.855 A 8.716 8.716 0 0 0 459.018 54.632 A 11.936 11.936 0 0 0 459.888 56.592 A 17.097 17.097 0 0 0 463.09 60.72 A 19.374 19.374 0 0 0 463.428 61.035 A 20.491 20.491 0 0 0 468.359 64.355 Q 471.094 65.674 473.877 65.674 A 41.685 41.685 0 0 1 477.075 65.796 A 10.853 10.853 0 0 1 480.176 66.504 A 14.368 14.368 0 0 0 482.385 65.193 A 13.234 13.234 0 0 0 482.593 65.039 A 31.186 31.186 0 0 0 484.717 63.281 A 55.303 55.303 0 0 0 486.719 61.377 A 114.707 114.707 0 0 1 488.721 59.424 Q 488.902 59.243 489.566 59.083 A 7.559 7.559 0 0 1 489.673 59.058 Q 490.43 58.887 491.309 58.765 A 37.141 37.141 0 0 1 492.586 58.609 A 32.296 32.296 0 0 1 492.993 58.569 A 38.997 38.997 0 0 1 493.343 58.539 Q 493.868 58.496 494.092 58.496 A 6.524 6.524 0 0 1 495.662 58.68 A 5.85 5.85 0 0 1 496.191 58.838 Q 496.484 59.961 496.484 61.035 Q 496.484 62.354 496.069 63.281 A 6.323 6.323 0 0 1 494.995 64.941 A 10.062 10.062 0 0 1 493.744 66.108 A 11.383 11.383 0 0 1 493.482 66.309 A 38.527 38.527 0 0 0 492.186 67.316 A 42.913 42.913 0 0 0 491.748 67.676 A 10.589 10.589 0 0 1 491.276 68.059 Q 491.048 68.232 490.84 68.367 A 4.797 4.797 0 0 1 490.527 68.555 A 9.019 9.019 0 0 1 489.8 68.911 A 7.662 7.662 0 0 1 489.478 69.043 A 37.976 37.976 0 0 1 488.681 69.336 A 42.796 42.796 0 0 1 488.403 69.434 Q 487.973 69.583 487.443 69.819 A 19.628 19.628 0 0 0 487.109 69.971 A 26.365 26.365 0 0 0 486.422 70.327 Q 486.087 70.507 485.8 70.675 A 12.974 12.974 0 0 0 485.474 70.874 A 18.196 18.196 0 0 1 484.155 71.631 A 7.356 7.356 0 0 1 483.051 72.09 A 8.459 8.459 0 0 1 482.715 72.192 Q 481.934 72.412 480.762 72.559 A 84.93 84.93 0 0 0 476.831 73.145 A 23.042 23.042 0 0 1 472.9 73.486 A 1.969 1.969 0 0 1 472.365 73.409 A 2.47 2.47 0 0 1 472.095 73.315 A 10.353 10.353 0 0 0 471.664 73.15 Q 471.45 73.073 471.211 72.996 A 16.823 16.823 0 0 0 471.143 72.974 A 19.96 19.96 0 0 0 470.575 72.803 A 26.496 26.496 0 0 0 469.946 72.632 A 4.875 4.875 0 0 0 469.342 72.518 Q 469.035 72.479 468.686 72.467 A 9.306 9.306 0 0 0 468.359 72.461 A 5.306 5.306 0 0 1 467.747 72.428 Q 467.449 72.393 467.2 72.322 A 2.324 2.324 0 0 1 466.797 72.168 A 5.428 5.428 0 0 1 465.941 71.639 A 4.877 4.877 0 0 1 465.747 71.484 A 20.383 20.383 0 0 1 465.098 70.913 A 23.834 23.834 0 0 1 464.795 70.63 Q 464.337 70.195 463.622 69.867 A 6.193 6.193 0 0 0 463.525 69.824 A 21.009 21.009 0 0 1 460.546 68.196 A 16.77 16.77 0 0 1 458.545 66.65 Q 456.494 64.795 455.029 62.5 A 25.275 25.275 0 0 1 452.588 57.52 A 48.994 48.994 0 0 1 450.928 51.904 Q 450.391 49.854 450.391 47.803 A 10.121 10.121 0 0 1 451.66 42.822 A 8.584 8.584 0 0 1 451.265 41.315 A 7.022 7.022 0 0 1 451.172 40.186 A 4.732 4.732 0 0 1 451.214 39.592 Q 451.295 38.959 451.531 38.065 A 24.003 24.003 0 0 1 451.709 37.427 A 26.609 26.609 0 0 1 452.892 34.204 A 29.592 29.592 0 0 1 453.101 33.74 A 25.759 25.759 0 0 1 454.226 31.564 A 21.209 21.209 0 0 1 454.956 30.396 A 9.46 9.46 0 0 1 455.479 29.685 Q 456.191 28.815 456.836 28.564 A 11.929 11.929 0 0 0 457.152 28.447 Q 457.587 28.278 457.788 28.149 A 0.409 0.409 0 0 0 457.927 27.989 Q 458.051 27.751 458.056 27.244 A 4.386 4.386 0 0 0 458.057 27.197 A 1.211 1.211 0 0 1 458.444 26.289 A 1.565 1.565 0 0 1 458.521 26.221 A 3.456 3.456 0 0 1 459.195 25.78 A 4.365 4.365 0 0 1 459.644 25.586 A 20.85 20.85 0 0 1 460.962 25.146 A 12.677 12.677 0 0 0 461.425 25 Q 461.649 24.924 461.84 24.848 A 5.992 5.992 0 0 0 462.061 24.756 A 42.721 42.721 0 0 1 464.199 23.784 A 34.58 34.58 0 0 1 465.503 23.267 Q 467.139 22.656 468.774 22.241 Q 470.41 21.826 472.168 21.631 A 31.811 31.811 0 0 1 474.461 21.463 A 38.307 38.307 0 0 1 475.928 21.436 A 7.605 7.605 0 0 1 478.027 21.729 A 12.089 12.089 0 0 1 480.005 22.485 A 23.545 23.545 0 0 1 481.885 23.511 Q 482.813 24.072 483.691 24.609 Z M 18.066 72.852 L 11.182 71.924 A 10.461 10.461 0 0 1 9.619 72.192 A 16.731 16.731 0 0 1 8.057 72.266 Q 7.08 72.266 6.128 72.168 A 41.65 41.65 0 0 1 4.199 71.924 Q 4.053 71.191 3.735 70.532 A 33.652 33.652 0 0 1 3.125 69.189 A 20.479 20.479 0 0 1 2.588 67.798 Q 2.344 67.09 2.344 66.357 A 4.01 4.01 0 0 1 2.394 65.699 Q 2.522 64.93 2.979 64.526 A 3.252 3.252 0 0 1 3.932 63.947 A 4.297 4.297 0 0 1 4.59 63.745 A 18.297 18.297 0 0 1 6.09 63.475 A 21.245 21.245 0 0 1 6.665 63.403 Q 7.764 63.281 8.74 62.842 Q 9.717 62.402 10.352 61.475 A 3.051 3.051 0 0 0 10.732 60.668 Q 10.97 59.916 10.985 58.837 A 10.527 10.527 0 0 0 10.986 58.691 Q 10.986 57.568 10.816 56.445 Q 10.645 55.322 10.425 54.175 Q 10.205 53.027 10.034 51.904 Q 9.863 50.781 9.863 49.658 A 9.125 9.125 0 0 1 10.01 48.022 A 9.125 9.125 0 0 0 10.156 46.387 Q 10.156 44.873 9.937 43.384 A 20.546 20.546 0 0 1 9.717 40.381 A 31.156 31.156 0 0 1 9.912 36.89 A 31.156 31.156 0 0 0 10.107 33.398 A 16.517 16.517 0 0 0 9.79 30.151 A 16.747 16.747 0 0 1 9.473 26.909 A 18.347 18.347 0 0 1 9.473 26.855 A 35.297 35.297 0 0 1 9.522 25 A 35.297 35.297 0 0 0 9.57 23.145 A 21.64 21.64 0 0 0 9.496 21.321 A 19.625 19.625 0 0 0 9.473 21.069 Q 9.375 20.068 9.082 19.043 A 10.728 10.728 0 0 1 8.723 17.128 A 9.627 9.627 0 0 1 8.691 16.65 A 11.667 11.667 0 0 0 8.584 15.467 A 8.941 8.941 0 0 0 8.399 14.526 A 3.66 3.66 0 0 0 7.471 12.866 A 2.676 2.676 0 0 0 6.86 12.405 Q 6.25 12.059 5.307 11.845 A 9.548 9.548 0 0 0 5.176 11.816 A 2.867 2.867 0 0 1 4.866 11.743 Q 4.555 11.65 4.37 11.499 Q 4.102 11.279 3.857 11.06 Q 3.629 10.854 3.293 10.669 A 4.268 4.268 0 0 0 3.247 10.645 Q 2.916 10.468 2.287 10.371 A 7.015 7.015 0 0 0 2.149 10.352 A 3.329 3.329 0 0 1 1.234 10.104 Q 0 9.55 0 7.959 A 5.325 5.325 0 0 1 0.11 6.854 A 4.196 4.196 0 0 1 0.44 5.884 A 6.643 6.643 0 0 1 1.563 4.248 Q 2.246 3.516 3.101 2.905 A 64.261 64.261 0 0 0 4.785 1.66 A 8.266 8.266 0 0 1 5.679 1.056 Q 6.163 0.776 6.624 0.615 A 4.049 4.049 0 0 1 7.178 0.464 A 11.914 11.914 0 0 1 8.868 0.262 A 13.982 13.982 0 0 1 9.57 0.244 L 11.67 0.244 A 32.115 32.115 0 0 0 14.478 0.122 A 32.115 32.115 0 0 1 17.285 0 A 14.828 14.828 0 0 1 18.97 0.098 A 9.972 9.972 0 0 1 20.654 0.439 Q 21.094 0.586 21.509 0.757 A 2.224 2.224 0 0 0 22.363 0.928 A 1.875 1.875 0 0 0 23.03 0.812 A 1.704 1.704 0 0 0 23.535 0.513 A 2.58 2.58 0 0 1 23.802 0.312 Q 24.133 0.098 24.414 0.098 Q 24.492 0.098 24.508 0.159 A 0.144 0.144 0 0 1 24.512 0.195 A 0.931 0.931 0 0 1 24.506 0.292 Q 24.5 0.35 24.487 0.415 A 1.388 1.388 0 0 0 24.471 0.517 Q 24.463 0.58 24.463 0.635 A 0.308 0.308 0 0 0 24.491 0.77 Q 24.567 0.928 24.854 0.928 Q 25.089 0.928 25.211 0.656 A 0.859 0.859 0 0 0 25.22 0.635 Q 25.342 0.342 25.781 0.244 A 2.857 2.857 0 0 1 26.013 0.355 Q 26.124 0.415 26.213 0.479 A 1.344 1.344 0 0 1 26.318 0.562 A 52.989 52.989 0 0 0 26.508 0.726 A 42.809 42.809 0 0 0 26.685 0.879 A 1.178 1.178 0 0 0 26.88 1.013 Q 26.99 1.074 27.124 1.123 Q 27.316 1.193 27.594 1.213 A 3.334 3.334 0 0 0 27.832 1.221 Q 28.857 1.221 29.883 1.05 Q 30.908 0.879 31.934 0.879 A 6.937 6.937 0 0 1 33.649 1.085 A 6.148 6.148 0 0 1 34.375 1.318 Q 35.498 1.758 36.499 2.417 A 16.512 16.512 0 0 1 38.428 3.906 A 81.906 81.906 0 0 0 40.283 5.518 A 6.404 6.404 0 0 0 41.06 6.092 A 5.122 5.122 0 0 0 41.675 6.421 A 36.422 36.422 0 0 1 42.696 6.897 A 31.831 31.831 0 0 1 43.018 7.056 A 7.033 7.033 0 0 1 44.238 7.837 A 2.926 2.926 0 0 1 44.723 8.332 Q 44.925 8.589 45.105 8.917 A 5.81 5.81 0 0 1 45.264 9.229 A 14.183 14.183 0 0 0 46.411 11.206 A 91.591 91.591 0 0 0 47.73 13.062 A 53.356 53.356 0 0 1 49.024 14.917 A 14.351 14.351 0 0 1 50.147 16.943 A 24.626 24.626 0 0 1 51.88 22.778 Q 52.393 25.83 52.93 28.809 Q 53.174 30.078 53.467 31.372 A 11.58 11.58 0 0 1 53.76 33.936 Q 53.76 34.619 53.516 35.254 Q 53.272 35.889 53.272 36.572 A 2.251 2.251 0 0 0 53.308 36.987 A 1.741 1.741 0 0 0 53.418 37.354 A 6.655 6.655 0 0 0 53.736 37.994 A 7.267 7.267 0 0 0 53.76 38.037 A 3.898 3.898 0 0 1 53.964 38.453 A 4.984 4.984 0 0 1 54.102 38.818 A 2.721 2.721 0 0 1 54.212 39.294 Q 54.248 39.551 54.248 39.844 A 17.938 17.938 0 0 1 54.192 41.213 Q 54.12 42.152 53.955 43.237 A 45.607 45.607 0 0 1 53.448 45.982 A 54.03 54.03 0 0 1 53.149 47.29 A 91.955 91.955 0 0 1 52.14 51.101 A 101.905 101.905 0 0 1 51.978 51.66 A 85.376 85.376 0 0 1 50.768 55.46 A 77.805 77.805 0 0 1 50.586 55.981 A 71.539 71.539 0 0 1 49.661 58.461 A 58.987 58.987 0 0 1 49.097 59.839 A 41.885 41.885 0 0 1 48.539 61.097 Q 48.084 62.079 47.656 62.842 Q 47.363 63.33 46.753 63.843 A 63.573 63.573 0 0 0 45.666 64.777 A 69.685 69.685 0 0 0 45.508 64.917 Q 44.873 65.479 44.385 66.016 Q 44.074 66.358 43.961 66.681 A 1.087 1.087 0 0 0 43.897 67.041 A 6.929 6.929 0 0 0 43.674 67.073 Q 43.298 67.133 42.676 67.261 A 19.838 19.838 0 0 0 41.5 67.542 A 23.253 23.253 0 0 0 40.942 67.7 A 17.718 17.718 0 0 0 39.896 68.046 A 14.389 14.389 0 0 0 39.282 68.286 A 4.973 4.973 0 0 0 38.98 68.424 Q 38.493 68.668 38.379 68.896 A 41.903 41.903 0 0 0 38.164 69.312 Q 37.815 69.997 37.72 70.264 Q 37.63 70.514 37.528 70.62 A 0.285 0.285 0 0 1 37.451 70.679 A 0.385 0.385 0 0 1 37.373 70.706 Q 37.216 70.746 36.903 70.728 A 4.183 4.183 0 0 1 36.89 70.728 A 1.32 1.32 0 0 0 36.83 70.725 Q 36.395 70.72 35.303 70.947 Q 34.863 71.045 34.204 71.24 A 74.417 74.417 0 0 1 33.013 71.582 A 82.106 82.106 0 0 1 32.837 71.631 Q 32.129 71.826 31.494 71.948 Q 30.859 72.07 30.469 72.07 A 6.378 6.378 0 0 1 28.394 71.729 Q 27.393 71.387 26.318 71.387 A 4.095 4.095 0 0 0 25.671 71.436 A 3.116 3.116 0 0 0 25.098 71.582 A 21.499 21.499 0 0 1 23.119 72.227 A 17.146 17.146 0 0 1 21.655 72.559 A 18.347 18.347 0 0 1 19.715 72.795 A 23.403 23.403 0 0 1 18.066 72.852 Z M 46.094 36.572 A 12.954 12.954 0 0 0 45.557 32.861 Q 45.02 31.055 43.897 29.492 Q 44.434 28.955 44.58 28.223 A 7.461 7.461 0 0 0 44.717 27.151 A 6.561 6.561 0 0 0 44.727 26.807 Q 44.727 26.074 44.653 25.342 A 14.487 14.487 0 0 1 44.582 24.141 A 12.975 12.975 0 0 1 44.58 23.926 A 0.98 0.98 0 0 0 44.312 23.242 A 6.411 6.411 0 0 0 43.726 22.681 A 23.44 23.44 0 0 0 43.066 22.144 A 1.494 1.494 0 0 1 42.578 21.484 Q 42.383 20.996 42.31 20.63 A 13.347 13.347 0 0 1 42.214 20.094 A 11.861 11.861 0 0 1 42.188 19.922 Q 42.139 19.58 41.992 19.189 A 3.426 3.426 0 0 0 41.862 18.89 Q 41.723 18.606 41.504 18.262 A 5.319 5.319 0 0 1 41.26 17.83 A 4.212 4.212 0 0 1 41.113 17.505 Q 40.967 17.139 40.967 16.602 A 3.641 3.641 0 0 1 41.03 15.94 A 4.465 4.465 0 0 1 41.113 15.576 A 1.5 1.5 0 0 0 40.752 15.116 A 1.998 1.998 0 0 0 40.479 14.917 A 3.686 3.686 0 0 0 39.667 14.551 A 4.212 4.212 0 0 0 39.502 14.502 A 6.364 6.364 0 0 0 38.807 14.315 A 8.337 8.337 0 0 0 38.184 14.209 Q 37.472 14.209 36.691 13.794 A 4.743 4.743 0 0 1 36.646 13.77 Q 35.84 13.33 34.961 12.793 A 21.218 21.218 0 0 0 33.179 11.816 Q 32.275 11.377 31.348 11.377 Q 29.932 11.377 28.565 11.621 A 71.086 71.086 0 0 1 25.781 12.061 A 18.288 18.288 0 0 1 24.511 12.187 A 23.174 23.174 0 0 1 23.438 12.231 Q 22.168 12.256 21.069 12.5 A 4.449 4.449 0 0 0 20.062 12.848 A 3.615 3.615 0 0 0 19.238 13.403 Q 18.638 13.944 18.53 14.994 A 4.741 4.741 0 0 0 18.506 15.479 A 27.932 27.932 0 0 0 18.726 18.945 A 29.112 29.112 0 0 1 18.945 22.559 A 93.155 93.155 0 0 1 18.628 30.249 A 93.749 93.749 0 0 0 18.311 37.988 A 32.92 32.92 0 0 0 18.506 41.577 A 33.374 33.374 0 0 1 18.701 45.215 A 30.634 30.634 0 0 1 18.335 49.951 A 30.634 30.634 0 0 0 17.969 54.688 L 17.969 56.787 A 11.701 11.701 0 0 0 18.098 58.548 A 10.543 10.543 0 0 0 18.164 58.936 A 5.176 5.176 0 0 0 18.831 60.686 A 4.965 4.965 0 0 0 18.897 60.791 A 2.919 2.919 0 0 0 19.975 61.773 A 3.895 3.895 0 0 0 20.508 62.012 A 337.554 337.554 0 0 0 23.511 63.062 A 9.604 9.604 0 0 0 26.647 63.574 A 11.06 11.06 0 0 0 26.66 63.574 A 4.189 4.189 0 0 0 28.477 63.153 A 4.874 4.874 0 0 0 28.565 63.11 A 11.894 11.894 0 0 1 30.469 62.354 Q 31.101 62.159 31.903 61.989 A 23.251 23.251 0 0 1 31.909 61.987 A 25.086 25.086 0 0 0 33.496 61.597 A 7.87 7.87 0 0 0 34.985 61.011 Q 35.693 60.645 36.182 60.107 Q 36.914 59.277 37.598 58.643 Q 38.281 58.008 39.502 57.764 Q 40.05 57.672 40.235 57.389 A 0.556 0.556 0 0 0 40.259 57.349 A 2.216 2.216 0 0 0 40.433 56.92 A 2.826 2.826 0 0 0 40.503 56.616 A 6.369 6.369 0 0 1 40.619 56.092 A 7.899 7.899 0 0 1 40.723 55.737 A 1.395 1.395 0 0 1 41.039 55.205 A 1.988 1.988 0 0 1 41.357 54.932 A 4.392 4.392 0 0 0 42.182 54.134 A 3.823 3.823 0 0 0 42.554 53.564 A 6.55 6.55 0 0 0 43.164 51.904 Q 43.359 51.025 43.482 50.122 A 13.312 13.312 0 0 1 43.848 48.34 A 57.958 57.958 0 0 1 45.093 44.385 Q 45.801 42.383 45.801 40.332 Q 45.801 39.795 45.557 39.38 A 1.771 1.771 0 0 1 45.324 38.657 A 2.201 2.201 0 0 1 45.313 38.428 A 1.091 1.091 0 0 1 45.318 38.31 Q 45.339 38.119 45.435 38.062 A 1.695 1.695 0 0 0 45.544 37.99 Q 45.6 37.95 45.661 37.901 A 3.136 3.136 0 0 0 45.703 37.866 A 0.815 0.815 0 0 0 45.818 37.747 Q 45.899 37.645 45.972 37.5 Q 46.09 37.264 46.094 36.618 A 7.396 7.396 0 0 0 46.094 36.572 Z M 571.338 38.037 L 571.338 35.059 A 14.672 14.672 0 0 0 571.052 32.122 A 13.141 13.141 0 0 0 570.85 31.274 A 19.563 19.563 0 0 1 570.235 27.783 A 21.547 21.547 0 0 1 570.215 27.539 A 41.663 41.663 0 0 1 570.011 23.473 A 38.458 38.458 0 0 1 570.02 22.681 A 57.812 57.812 0 0 0 570.032 21.489 A 62.447 62.447 0 0 0 569.922 17.822 Q 569.824 16.162 569.531 14.575 Q 569.238 12.988 569.238 11.328 Q 569.238 10.902 569.271 10.574 A 4.054 4.054 0 0 1 569.312 10.278 A 8.544 8.544 0 0 1 569.391 9.882 A 6.618 6.618 0 0 1 569.482 9.521 Q 569.58 9.18 569.727 8.838 Q 569.873 8.496 570.02 7.959 A 591.343 591.343 0 0 1 570.3 6.979 Q 570.647 5.776 570.912 4.876 A 198.183 198.183 0 0 1 570.996 4.59 A 9.696 9.696 0 0 1 571.285 3.75 Q 571.58 3.011 571.948 2.515 A 3.062 3.062 0 0 1 573.364 1.44 Q 574.219 1.123 575.732 1.123 Q 576.416 1.123 576.88 1.685 A 3.468 3.468 0 0 0 577.491 2.269 A 2.979 2.979 0 0 0 577.93 2.539 A 1.101 1.101 0 0 0 578.21 2.712 A 0.911 0.911 0 0 0 578.565 2.783 A 1.036 1.036 0 0 1 578.981 2.874 A 1.471 1.471 0 0 1 579.248 3.027 A 2.35 2.35 0 0 1 579.541 3.292 Q 579.678 3.437 579.816 3.621 A 5.263 5.263 0 0 1 580.029 3.931 A 7.258 7.258 0 0 1 580.52 4.839 A 8.637 8.637 0 0 1 580.713 5.298 Q 581.006 6.055 581.177 6.86 Q 581.348 7.666 581.348 8.35 A 20.133 20.133 0 0 1 581.31 9.594 A 18.229 18.229 0 0 1 581.299 9.766 A 19.183 19.183 0 0 0 581.25 11.133 Q 581.25 12.207 581.494 13.135 A 7.438 7.438 0 0 1 581.715 14.48 A 8.881 8.881 0 0 1 581.738 15.137 A 26.263 26.263 0 0 1 581.729 15.851 Q 581.702 16.858 581.592 17.48 Q 581.493 18.038 581.373 18.453 A 4.836 4.836 0 0 1 581.25 18.823 A 11.925 11.925 0 0 1 581.067 19.277 Q 580.963 19.519 580.859 19.727 A 1.976 1.976 0 0 0 580.727 20.077 Q 580.645 20.37 580.615 20.752 A 10.415 10.415 0 0 0 580.633 21.379 A 8.422 8.422 0 0 0 580.664 21.753 A 8.841 8.841 0 0 1 580.706 22.353 A 10.919 10.919 0 0 1 580.713 22.754 A 3.261 3.261 0 0 1 580.518 23.877 Q 580.322 24.414 580.225 24.951 A 13.745 13.745 0 0 0 579.883 27.539 A 72.57 72.57 0 0 0 579.834 30.225 A 8.931 8.931 0 0 1 579.492 32.69 A 12.419 12.419 0 0 0 579.053 35.156 A 8.869 8.869 0 0 0 579.076 35.784 A 10.465 10.465 0 0 0 579.102 36.084 A 9.808 9.808 0 0 1 579.15 37.061 A 3.728 3.728 0 0 1 579.138 37.335 Q 579.099 37.858 578.931 38.867 A 141.385 141.385 0 0 1 578.574 40.913 A 162.05 162.05 0 0 1 578.442 41.626 A 316.774 316.774 0 0 0 578.186 43.018 A 253.978 253.978 0 0 0 577.954 44.312 A 37.081 37.081 0 0 0 577.869 44.815 Q 577.759 45.491 577.739 45.818 A 2.143 2.143 0 0 0 577.734 45.947 A 2.41 2.41 0 0 0 577.812 46.568 A 2.045 2.045 0 0 0 577.979 46.997 A 3.233 3.233 0 0 1 578.097 47.244 Q 578.203 47.496 578.22 47.685 A 0.778 0.778 0 0 1 578.223 47.754 A 3.577 3.577 0 0 1 578.158 48.411 Q 578.098 48.731 577.982 49.085 A 7.203 7.203 0 0 1 577.857 49.438 A 9.969 9.969 0 0 1 577.103 50.993 A 9.102 9.102 0 0 1 576.978 51.196 A 8.211 8.211 0 0 1 576.395 52.004 A 6.427 6.427 0 0 1 575.879 52.563 A 3.427 3.427 0 0 1 575.595 52.809 Q 575.278 53.052 575.01 53.108 A 0.764 0.764 0 0 1 574.854 53.125 A 1.46 1.46 0 0 1 574.044 52.877 A 1.936 1.936 0 0 1 573.853 52.734 A 3.591 3.591 0 0 1 573.324 52.177 A 4.609 4.609 0 0 1 573.023 51.733 Q 572.656 51.123 572.437 50.317 A 6.374 6.374 0 0 1 572.217 48.633 A 10.53 10.53 0 0 1 572.315 47.192 A 10.53 10.53 0 0 0 572.412 45.752 A 9.459 9.459 0 0 0 572.07 43.237 A 9.459 9.459 0 0 1 571.729 40.723 A 6.171 6.171 0 0 0 571.582 39.38 Q 571.436 38.721 571.338 38.037 Z M 139.893 30.176 L 139.649 30.176 Q 139.739 30.629 139.746 30.914 A 1.889 1.889 0 0 1 139.746 30.957 A 1.61 1.61 0 0 1 139.721 31.251 Q 139.676 31.493 139.551 31.665 A 1.688 1.688 0 0 1 139.198 32.02 A 2.055 2.055 0 0 1 139.038 32.129 A 6.596 6.596 0 0 1 138.49 32.43 A 7.458 7.458 0 0 1 138.355 32.495 A 5.419 5.419 0 0 0 137.935 32.712 A 4.406 4.406 0 0 0 137.695 32.861 A 2.449 2.449 0 0 0 137.429 33.256 Q 137.292 33.511 137.25 33.766 A 1.415 1.415 0 0 0 137.232 33.936 A 0.867 0.867 0 0 1 137.199 34.145 Q 137.1 34.473 136.719 34.473 A 1.949 1.949 0 0 1 136.52 34.463 Q 136.316 34.442 136.182 34.375 A 0.942 0.942 0 0 1 136.166 34.552 Q 136.147 34.652 136.104 34.728 A 0.431 0.431 0 0 1 135.986 34.863 A 1.881 1.881 0 0 1 135.611 35.081 A 2.135 2.135 0 0 1 135.547 35.107 A 6.441 6.441 0 0 0 135.059 35.327 A 0.517 0.517 0 0 0 134.783 35.663 A 0.728 0.728 0 0 0 134.766 35.742 A 1.312 1.312 0 0 0 134.119 35.98 Q 133.846 36.167 133.594 36.499 Q 133.057 37.207 132.666 38.281 A 17.219 17.219 0 0 0 132.258 39.567 A 22.111 22.111 0 0 0 131.982 40.674 Q 131.69 41.992 131.494 43.237 A 42.278 42.278 0 0 0 131.323 44.434 A 32.357 32.357 0 0 0 131.201 45.532 A 36.892 36.892 0 0 0 131.159 46.025 Q 131.121 46.5 131.109 46.839 A 8.105 8.105 0 0 0 131.104 47.119 Q 131.104 48.877 131.323 50.61 Q 131.543 52.344 131.543 54.102 Q 131.543 55.42 131.47 56.738 A 170.263 170.263 0 0 1 131.299 59.424 Q 132.52 60.742 133.643 62.061 A 20.507 20.507 0 0 0 135.778 64.23 A 18.808 18.808 0 0 0 136.011 64.429 Q 137.256 65.479 138.77 66.187 A 7.818 7.818 0 0 0 140.739 66.795 A 10.407 10.407 0 0 0 142.285 66.943 A 6.421 6.421 0 0 1 143.848 67.139 L 145.41 67.529 A 69.07 69.07 0 0 0 146.948 67.896 Q 147.705 68.066 148.486 68.066 A 3.863 3.863 0 0 0 149.341 67.966 A 5.211 5.211 0 0 0 150.049 67.749 A 10.091 10.091 0 0 0 151.584 67.004 A 11.1 11.1 0 0 0 151.685 66.943 A 17.047 17.047 0 0 0 153.223 65.894 Q 153.891 65.381 154.356 64.89 A 6.633 6.633 0 0 0 154.443 64.795 Q 154.834 64.355 155.396 64.16 A 2.559 2.559 0 0 0 156.101 63.789 A 2.344 2.344 0 0 0 156.348 63.574 A 1.682 1.682 0 0 0 156.586 63.279 A 1.321 1.321 0 0 0 156.738 62.939 A 10.484 10.484 0 0 0 156.909 62.256 Q 156.982 61.914 157.129 61.597 A 0.969 0.969 0 0 1 157.32 61.326 Q 157.415 61.228 157.546 61.139 A 2.138 2.138 0 0 1 157.715 61.035 A 21.436 21.436 0 0 0 158.088 60.834 Q 158.587 60.559 158.805 60.394 A 1.262 1.262 0 0 0 158.887 60.327 A 0.606 0.606 0 0 0 159.036 60.111 Q 159.131 59.888 159.131 59.521 L 159.131 58.594 Q 159.131 58.297 159.221 58.1 A 0.642 0.642 0 0 1 159.375 57.886 A 7.399 7.399 0 0 1 159.734 57.584 A 8.707 8.707 0 0 1 159.912 57.446 A 2.085 2.085 0 0 0 160.226 57.153 A 2.769 2.769 0 0 0 160.449 56.86 A 1.099 1.099 0 0 0 160.575 56.59 Q 160.667 56.308 160.687 55.878 A 5.501 5.501 0 0 0 160.693 55.615 Q 160.693 54.98 160.596 54.37 Q 160.498 53.76 160.498 53.125 A 3.21 3.21 0 0 1 160.597 52.316 A 2.842 2.842 0 0 1 160.718 51.953 A 9.917 9.917 0 0 1 161.206 50.928 Q 161.475 50.439 161.694 49.976 Q 161.914 49.512 161.914 48.975 Q 161.914 47.51 161.524 46.118 A 18.848 18.848 0 0 0 160.547 43.433 A 24.637 24.637 0 0 0 159.229 40.918 Q 158.496 39.697 157.764 38.525 Q 157.568 38.232 157.52 37.866 A 5.536 5.536 0 0 1 157.471 37.134 Q 157.471 36.768 157.398 36.401 A 1.464 1.464 0 0 0 157.08 35.742 A 2.671 2.671 0 0 0 156.864 35.524 Q 156.593 35.282 156.348 35.229 Q 156.006 35.156 155.689 35.107 A 1.771 1.771 0 0 1 155.38 35.029 Q 155.233 34.979 155.077 34.901 A 3.114 3.114 0 0 1 155.005 34.863 Q 154.683 34.691 154.379 34.141 A 4.394 4.394 0 0 1 154.297 33.984 A 1.587 1.587 0 0 0 154.096 33.708 Q 153.872 33.454 153.483 33.172 A 7.17 7.17 0 0 0 153.247 33.008 A 17.158 17.158 0 0 0 151.985 32.245 A 19.945 19.945 0 0 0 151.489 31.982 A 15.726 15.726 0 0 0 150.218 31.398 A 13.315 13.315 0 0 0 149.634 31.177 A 9.261 9.261 0 0 0 149.208 31.038 Q 148.755 30.903 148.435 30.87 A 1.888 1.888 0 0 0 148.242 30.859 A 4.753 4.753 0 0 0 146.433 31.224 A 5.46 5.46 0 0 0 146.314 31.274 A 4.866 4.866 0 0 1 144.75 31.675 A 4.576 4.576 0 0 1 144.385 31.689 A 3.322 3.322 0 0 1 143.616 31.603 A 2.831 2.831 0 0 1 143.14 31.445 A 16.495 16.495 0 0 1 142.098 30.949 A 15.132 15.132 0 0 1 142.066 30.933 A 20.905 20.905 0 0 0 141.016 30.42 Q 140.479 30.176 139.893 30.176 Z M 511.865 53.076 L 512.256 53.076 A 5.636 5.636 0 0 1 512.995 53.121 Q 513.747 53.221 514.233 53.54 Q 514.941 54.004 515.308 54.761 A 7.147 7.147 0 0 1 515.673 55.682 A 9.308 9.308 0 0 1 515.894 56.494 A 32.222 32.222 0 0 0 516.406 58.472 Q 516.699 59.473 517.261 60.4 Q 517.822 61.328 518.897 62.061 A 127.868 127.868 0 0 0 519.721 62.622 A 169.478 169.478 0 0 0 520.63 63.232 Q 521.582 63.867 522.632 64.404 A 16.746 16.746 0 0 0 524.6 65.261 A 15.395 15.395 0 0 0 524.732 65.308 A 6.68 6.68 0 0 0 525.937 65.611 A 5.51 5.51 0 0 0 526.758 65.674 Q 528.32 65.674 529.834 65.21 Q 531.348 64.746 532.91 64.746 Q 533.496 64.746 534.18 64.893 Q 535.303 63.135 536.792 61.548 A 8.001 8.001 0 0 1 540.43 59.326 L 540.381 58.252 Q 540.381 56.641 540.747 55.103 A 99.924 99.924 0 0 1 541.539 52.003 A 107.71 107.71 0 0 1 541.553 51.953 A 61.962 61.962 0 0 0 542.358 48.633 A 16.406 16.406 0 0 0 542.673 46.382 A 20.176 20.176 0 0 0 542.725 44.922 A 23.386 23.386 0 0 0 542.601 42.568 A 28.814 28.814 0 0 0 542.407 41.064 A 14.841 14.841 0 0 0 541.431 37.568 A 13.819 13.819 0 0 0 541.284 37.231 A 8.783 8.783 0 0 0 539.426 34.542 A 8.427 8.427 0 0 0 539.087 34.229 A 5.252 5.252 0 0 0 536.48 33.007 A 6.941 6.941 0 0 0 535.596 32.91 Q 535.156 32.861 534.546 32.52 A 34.702 34.702 0 0 1 533.459 31.884 A 38.159 38.159 0 0 1 533.301 31.787 Q 532.666 31.396 532.056 31.079 A 3.468 3.468 0 0 0 531.651 30.898 Q 531.278 30.762 530.957 30.762 Q 530.518 30.762 530.127 30.933 Q 529.736 31.104 529.346 31.323 Q 528.955 31.543 528.565 31.714 A 2.035 2.035 0 0 1 527.981 31.868 A 2.55 2.55 0 0 1 527.686 31.885 A 12.8 12.8 0 0 1 526.482 31.83 A 11.297 11.297 0 0 1 526.099 31.787 A 12.016 12.016 0 0 0 524.922 31.696 A 13.654 13.654 0 0 0 524.512 31.689 A 7.245 7.245 0 0 0 520.093 33.154 A 13.953 13.953 0 0 0 516.71 36.775 A 15.46 15.46 0 0 0 516.699 36.792 Q 515.283 38.965 514.502 41.479 Q 513.721 43.994 513.721 46.094 A 12.763 12.763 0 0 0 513.843 47.852 A 12.763 12.763 0 0 1 513.965 49.609 A 1.764 1.764 0 0 1 513.917 50.03 A 1.254 1.254 0 0 1 513.648 50.562 A 7.208 7.208 0 0 1 513.213 51.019 A 8.802 8.802 0 0 1 512.915 51.294 A 5.52 5.52 0 0 0 512.223 52.024 A 5.109 5.109 0 0 0 512.183 52.075 Q 511.865 52.49 511.865 53.076 Z M 378.809 50.537 A 11.681 11.681 0 0 0 378.807 50.364 Q 378.803 50.094 378.788 49.625 A 102.293 102.293 0 0 0 378.784 49.512 A 15.73 15.73 0 0 0 378.662 48.022 A 7.003 7.003 0 0 0 378.534 47.308 A 5.191 5.191 0 0 0 378.345 46.68 A 1.458 1.458 0 0 0 378.23 46.437 Q 378.022 46.094 377.686 46.094 Q 377.588 46.094 377.441 46.167 A 0.992 0.992 0 0 1 377.359 46.204 Q 377.273 46.237 377.208 46.24 A 0.271 0.271 0 0 1 377.197 46.24 A 123.906 123.906 0 0 1 375.881 46.958 Q 375.364 47.235 374.9 47.477 A 60.595 60.595 0 0 1 374.024 47.925 A 18.942 18.942 0 0 1 371.978 48.806 A 16.813 16.813 0 0 1 371.411 48.999 Q 370.117 49.414 368.652 49.561 A 25.592 25.592 0 0 1 367.478 49.648 Q 366.929 49.678 366.307 49.692 A 55.998 55.998 0 0 1 364.99 49.707 A 1.631 1.631 0 0 0 364.844 49.716 Q 364.45 49.753 363.379 49.951 A 149.755 149.755 0 0 0 362 50.214 A 194.11 194.11 0 0 0 360.498 50.513 Q 358.936 50.83 357.568 51.147 Q 356.289 51.444 355.908 51.549 A 4.697 4.697 0 0 0 355.859 51.563 A 5.648 5.648 0 0 0 355.531 51.7 Q 355.231 51.838 355.048 51.975 A 1.27 1.27 0 0 0 354.956 52.051 A 1.946 1.946 0 0 0 354.662 52.384 A 1.682 1.682 0 0 0 354.541 52.588 A 21.426 21.426 0 0 0 354.285 53.119 A 23.62 23.62 0 0 0 354.248 53.198 Q 354.141 53.431 353.902 53.677 A 3.237 3.237 0 0 1 353.711 53.857 A 4.63 4.63 0 0 1 352.661 54.492 A 3.238 3.238 0 0 0 351.892 54.969 A 3.958 3.958 0 0 0 351.611 55.225 Q 350.977 55.859 350.416 56.842 A 11.443 11.443 0 0 0 350.244 57.153 A 6.1 6.1 0 0 0 349.833 58.105 Q 349.639 58.696 349.613 59.254 A 3.688 3.688 0 0 0 349.609 59.424 A 4.325 4.325 0 0 0 349.87 60.94 A 3.989 3.989 0 0 0 350.293 61.768 A 6.08 6.08 0 0 0 351.759 63.289 A 7.15 7.15 0 0 0 352.1 63.525 A 12.452 12.452 0 0 0 353.762 64.431 A 15.016 15.016 0 0 0 354.639 64.795 A 18.367 18.367 0 0 0 357.495 65.625 A 31.654 31.654 0 0 0 359.601 65.982 A 27.887 27.887 0 0 0 360.278 66.064 Q 361.306 66.177 362.12 66.203 A 14.814 14.814 0 0 0 362.598 66.211 Q 363.495 66.211 364.65 66.111 A 38.424 38.424 0 0 0 365.381 66.04 Q 366.992 65.869 368.604 65.503 A 16.294 16.294 0 0 0 371.274 64.656 A 14.948 14.948 0 0 0 371.631 64.502 A 7.377 7.377 0 0 0 372.812 63.844 A 5.469 5.469 0 0 0 373.877 62.891 Q 374.12 62.613 374.264 62.373 A 2.002 2.002 0 0 0 374.365 62.183 Q 374.512 61.865 374.683 61.548 A 9.278 9.278 0 0 1 374.915 61.142 A 11.097 11.097 0 0 1 375.073 60.889 Q 375.293 60.547 375.781 60.156 A 7.695 7.695 0 0 0 376.883 59.051 A 6.33 6.33 0 0 0 377.515 58.105 A 9.564 9.564 0 0 0 378.418 55.762 A 12.9 12.9 0 0 0 378.76 53.223 A 72.57 72.57 0 0 0 378.809 50.537 Z M 100.147 33.105 L 100.098 33.105 A 0.897 0.897 0 0 1 99.981 33.544 A 1.167 1.167 0 0 1 99.902 33.667 A 0.618 0.618 0 0 1 99.459 33.93 A 0.798 0.798 0 0 1 99.365 33.936 A 2.314 2.314 0 0 1 98.242 33.643 A 3.421 3.421 0 0 1 97.315 32.91 A 118.714 118.714 0 0 1 95.551 32.104 A 87.633 87.633 0 0 1 93.97 31.348 A 33.656 33.656 0 0 0 90.991 30.054 A 18.566 18.566 0 0 0 88.339 29.28 A 20.869 20.869 0 0 0 87.817 29.175 Q 86.259 28.881 84.261 28.859 A 29.632 29.632 0 0 0 83.936 28.857 A 2.78 2.78 0 0 0 83.701 28.867 A 2.31 2.31 0 0 0 83.569 28.882 A 0.507 0.507 0 0 0 83.356 28.966 A 0.704 0.704 0 0 0 83.252 29.053 L 83.496 29.59 L 83.106 29.688 Q 81.787 29.932 80.933 30.151 Q 80.078 30.371 79.395 30.762 A 8.526 8.526 0 0 0 78.383 31.444 A 9.879 9.879 0 0 0 78.052 31.714 A 444.116 444.116 0 0 0 77.699 32.014 Q 77.215 32.428 76.579 32.972 A 1302.619 1302.619 0 0 0 76.367 33.154 Q 75.879 33.594 75.317 33.813 A 15.333 15.333 0 0 1 74.194 34.204 A 16.783 16.783 0 0 0 73.249 34.522 A 15.171 15.171 0 0 0 73.12 34.57 Q 72.607 34.766 72.266 35.205 A 10.34 10.34 0 0 1 71.265 37.573 A 4.78 4.78 0 0 0 70.606 39.99 A 1.643 1.643 0 0 0 71.022 41.084 A 2.307 2.307 0 0 0 71.216 41.284 Q 71.817 41.837 72.751 42.225 A 7.302 7.302 0 0 0 72.778 42.236 A 14.686 14.686 0 0 0 74.043 42.686 A 18.135 18.135 0 0 0 74.878 42.92 A 19.229 19.229 0 0 0 77.149 43.359 A 44.985 44.985 0 0 0 78.229 43.488 A 34.841 34.841 0 0 0 79.224 43.579 A 37.347 37.347 0 0 0 79.674 43.611 Q 80.161 43.643 80.511 43.65 A 9.586 9.586 0 0 0 80.713 43.652 Q 82.568 43.652 84.375 43.286 Q 86.182 42.92 88.037 42.92 Q 89.941 42.92 91.846 43.091 Q 93.75 43.262 95.654 43.262 A 13.865 13.865 0 0 0 95.929 43.259 Q 96.387 43.25 97.119 43.213 A 11.005 11.005 0 0 0 99.048 42.944 A 6.704 6.704 0 0 0 99.965 42.666 A 5.145 5.145 0 0 0 100.708 42.31 A 1.785 1.785 0 0 0 101.066 42.039 A 1.128 1.128 0 0 0 101.416 41.211 Q 101.416 40.479 101.172 39.795 A 10.084 10.084 0 0 1 100.781 38.379 A 15.378 15.378 0 0 1 100.543 36.124 A 13.904 13.904 0 0 1 100.537 35.718 A 9.103 9.103 0 0 0 100.194 33.27 A 10.193 10.193 0 0 0 100.147 33.105 Z M 271.191 33.105 L 271.143 33.105 A 0.897 0.897 0 0 1 271.026 33.544 A 1.167 1.167 0 0 1 270.947 33.667 A 0.618 0.618 0 0 1 270.503 33.93 A 0.798 0.798 0 0 1 270.41 33.936 A 2.314 2.314 0 0 1 269.287 33.643 A 3.421 3.421 0 0 1 268.359 32.91 A 118.714 118.714 0 0 1 266.596 32.104 A 87.633 87.633 0 0 1 265.015 31.348 A 33.656 33.656 0 0 0 262.036 30.054 A 18.566 18.566 0 0 0 259.384 29.28 A 20.869 20.869 0 0 0 258.862 29.175 Q 257.304 28.881 255.306 28.859 A 29.632 29.632 0 0 0 254.981 28.857 A 2.78 2.78 0 0 0 254.746 28.867 A 2.31 2.31 0 0 0 254.614 28.882 A 0.507 0.507 0 0 0 254.401 28.966 A 0.704 0.704 0 0 0 254.297 29.053 L 254.541 29.59 L 254.15 29.688 Q 252.832 29.932 251.978 30.151 Q 251.123 30.371 250.44 30.762 A 8.526 8.526 0 0 0 249.428 31.444 A 9.879 9.879 0 0 0 249.097 31.714 A 444.116 444.116 0 0 0 248.744 32.014 Q 248.26 32.428 247.624 32.972 A 1302.619 1302.619 0 0 0 247.412 33.154 Q 246.924 33.594 246.362 33.813 A 15.333 15.333 0 0 1 245.239 34.204 A 16.783 16.783 0 0 0 244.294 34.522 A 15.171 15.171 0 0 0 244.165 34.57 Q 243.652 34.766 243.311 35.205 A 10.34 10.34 0 0 1 242.31 37.573 A 4.78 4.78 0 0 0 241.65 39.99 A 1.643 1.643 0 0 0 242.067 41.084 A 2.307 2.307 0 0 0 242.261 41.284 Q 242.862 41.837 243.795 42.225 A 7.302 7.302 0 0 0 243.823 42.236 A 14.686 14.686 0 0 0 245.088 42.686 A 18.135 18.135 0 0 0 245.923 42.92 A 19.229 19.229 0 0 0 248.193 43.359 A 44.985 44.985 0 0 0 249.274 43.488 A 34.841 34.841 0 0 0 250.269 43.579 A 37.347 37.347 0 0 0 250.719 43.611 Q 251.206 43.643 251.556 43.65 A 9.586 9.586 0 0 0 251.758 43.652 Q 253.613 43.652 255.42 43.286 Q 257.227 42.92 259.082 42.92 Q 260.986 42.92 262.891 43.091 Q 264.795 43.262 266.699 43.262 A 13.865 13.865 0 0 0 266.974 43.259 Q 267.432 43.25 268.164 43.213 A 11.005 11.005 0 0 0 270.093 42.944 A 6.704 6.704 0 0 0 271.01 42.666 A 5.145 5.145 0 0 0 271.753 42.31 A 1.785 1.785 0 0 0 272.111 42.039 A 1.128 1.128 0 0 0 272.461 41.211 Q 272.461 40.479 272.217 39.795 A 10.084 10.084 0 0 1 271.826 38.379 A 15.378 15.378 0 0 1 271.588 36.124 A 13.904 13.904 0 0 1 271.582 35.718 A 9.103 9.103 0 0 0 271.239 33.27 A 10.193 10.193 0 0 0 271.191 33.105 Z M 487.891 33.105 L 487.842 33.105 A 0.897 0.897 0 0 1 487.725 33.544 A 1.167 1.167 0 0 1 487.647 33.667 A 0.618 0.618 0 0 1 487.203 33.93 A 0.798 0.798 0 0 1 487.109 33.936 A 2.314 2.314 0 0 1 485.986 33.643 A 3.421 3.421 0 0 1 485.059 32.91 A 118.714 118.714 0 0 1 483.295 32.104 A 87.633 87.633 0 0 1 481.714 31.348 A 33.656 33.656 0 0 0 478.735 30.054 A 18.566 18.566 0 0 0 476.083 29.28 A 20.869 20.869 0 0 0 475.562 29.175 Q 474.003 28.881 472.005 28.859 A 29.632 29.632 0 0 0 471.68 28.857 A 2.78 2.78 0 0 0 471.445 28.867 A 2.31 2.31 0 0 0 471.314 28.882 A 0.507 0.507 0 0 0 471.1 28.966 A 0.704 0.704 0 0 0 470.996 29.053 L 471.24 29.59 L 470.85 29.688 Q 469.531 29.932 468.677 30.151 Q 467.822 30.371 467.139 30.762 A 8.526 8.526 0 0 0 466.127 31.444 A 9.879 9.879 0 0 0 465.796 31.714 A 444.116 444.116 0 0 0 465.443 32.014 Q 464.96 32.428 464.324 32.972 A 1302.619 1302.619 0 0 0 464.111 33.154 Q 463.623 33.594 463.062 33.813 A 15.333 15.333 0 0 1 461.939 34.204 A 16.783 16.783 0 0 0 460.993 34.522 A 15.171 15.171 0 0 0 460.864 34.57 Q 460.352 34.766 460.01 35.205 A 10.34 10.34 0 0 1 459.009 37.573 A 4.78 4.78 0 0 0 458.35 39.99 A 1.643 1.643 0 0 0 458.766 41.084 A 2.307 2.307 0 0 0 458.96 41.284 Q 459.561 41.837 460.495 42.225 A 7.302 7.302 0 0 0 460.523 42.236 A 14.686 14.686 0 0 0 461.787 42.686 A 18.135 18.135 0 0 0 462.622 42.92 A 19.229 19.229 0 0 0 464.893 43.359 A 44.985 44.985 0 0 0 465.973 43.488 A 34.841 34.841 0 0 0 466.968 43.579 A 37.347 37.347 0 0 0 467.418 43.611 Q 467.905 43.643 468.255 43.65 A 9.586 9.586 0 0 0 468.457 43.652 Q 470.313 43.652 472.119 43.286 Q 473.926 42.92 475.781 42.92 Q 477.686 42.92 479.59 43.091 Q 481.494 43.262 483.399 43.262 A 13.865 13.865 0 0 0 483.673 43.259 Q 484.131 43.25 484.863 43.213 A 11.005 11.005 0 0 0 486.792 42.944 A 6.704 6.704 0 0 0 487.709 42.666 A 5.145 5.145 0 0 0 488.452 42.31 A 1.785 1.785 0 0 0 488.81 42.039 A 1.128 1.128 0 0 0 489.16 41.211 Q 489.16 40.479 488.916 39.795 A 10.084 10.084 0 0 1 488.525 38.379 A 15.378 15.378 0 0 1 488.287 36.124 A 13.904 13.904 0 0 1 488.281 35.718 A 9.103 9.103 0 0 0 487.938 33.27 A 10.193 10.193 0 0 0 487.891 33.105 Z M 579.582 66.958 A 5.777 5.777 0 0 0 579.834 65.234 A 5.51 5.51 0 0 0 579.771 64.413 A 6.68 6.68 0 0 0 579.468 63.208 Q 579.102 62.158 578.442 61.304 Q 577.783 60.449 576.88 59.888 Q 575.977 59.326 574.951 59.326 A 8.883 8.883 0 0 0 573.858 59.392 A 6.678 6.678 0 0 0 570.288 60.913 A 5.073 5.073 0 0 0 568.63 63.574 A 7.314 7.314 0 0 0 568.408 65.43 Q 568.408 66.553 568.774 67.603 Q 569.141 68.652 569.849 69.458 A 5.484 5.484 0 0 0 571.533 70.752 Q 572.51 71.24 573.731 71.24 Q 574.951 71.24 576.074 70.776 A 5.934 5.934 0 0 0 578.027 69.482 A 6.439 6.439 0 0 0 579.346 67.578 A 5.291 5.291 0 0 0 579.582 66.958 Z M 144.043 27.295 L 143.848 27.393 A 2.556 2.556 0 0 0 144.083 27.381 Q 144.365 27.354 144.751 27.271 A 1.033 1.033 0 0 0 144.99 27.19 Q 145.294 27.04 145.311 26.702 A 0.809 0.809 0 0 0 145.313 26.66 Q 145.313 26.458 145.145 26.256 A 1.214 1.214 0 0 0 145.068 26.172 A 1.101 1.101 0 0 0 144.92 26.046 Q 144.75 25.928 144.58 25.928 Q 144.192 25.928 144.035 26.251 A 0.924 0.924 0 0 0 143.97 26.44 A 5.162 5.162 0 0 0 143.891 26.837 Q 143.848 27.112 143.848 27.344 Q 143.848 27.286 143.865 27.262 A 0.037 0.037 0 0 1 143.897 27.246 A 0.311 0.311 0 0 1 143.952 27.251 Q 143.982 27.256 144.005 27.268 A 0.145 0.145 0 0 1 144.043 27.295 Z M 331.104 63.916 A 0.699 0.699 0 0 0 330.898 63.418 A 0.917 0.917 0 0 0 330.884 63.403 A 0.766 0.766 0 0 0 330.658 63.244 A 0.688 0.688 0 0 0 330.371 63.184 A 0.528 0.528 0 0 0 330.023 63.318 Q 329.894 63.426 329.785 63.623 A 3.409 3.409 0 0 0 329.678 63.831 Q 329.541 64.124 329.541 64.307 A 0.357 0.357 0 0 0 329.557 64.419 Q 329.613 64.589 329.867 64.576 A 0.774 0.774 0 0 0 329.883 64.575 A 26.372 26.372 0 0 1 330.021 64.566 Q 330.246 64.551 330.322 64.551 A 1.1 1.1 0 0 0 330.613 64.51 A 1.482 1.482 0 0 0 330.835 64.429 A 0.429 0.429 0 0 0 331.076 64.139 Q 331.098 64.059 331.103 63.962 A 1.068 1.068 0 0 0 331.104 63.916 Z" vector-effect="non-scaling-stroke"/></g></svg>