<?xml version="1.0" standalone="no"?>
<!DOCTYPE svg PUBLIC "-//W3C//DTD SVG 20010904//EN"
 "http://www.w3.org/TR/2001/REC-SVG-20010904/DTD/svg10.dtd">
<svg version="1.0" xmlns="http://www.w3.org/2000/svg"
 width="768.000000pt" height="768.000000pt" viewBox="0 0 768.000000 768.000000"
 preserveAspectRatio="xMidYMid meet">
<metadata>
Created by potrace 1.11, written by Peter Selinger 2001-2013
</metadata>
<g transform="translate(0.000000,768.000000) scale(0.100000,-0.100000)"
fill="#000000" stroke="none">
<path d="M3669 7646 c-2 -2 -31 -7 -64 -11 -33 -3 -87 -12 -120 -21 -33 -8
-71 -16 -84 -19 -13 -2 -40 -10 -60 -17 -20 -7 -38 -13 -41 -13 -6 -2 -55 -21
-85 -34 -40 -17 -200 -96 -210 -104 -5 -4 -32 -22 -60 -39 -27 -18 -52 -35
-55 -38 -3 -3 -23 -18 -45 -34 -96 -70 -298 -284 -317 -335 -2 -5 -27 -5 -58
1 -94 16 -276 23 -360 14 -19 -3 -62 -7 -95 -11 -175 -18 -443 -114 -605 -218
-19 -12 -52 -33 -72 -46 -21 -12 -38 -26 -38 -30 0 -5 -9 -12 -19 -17 -21 -10
-135 -108 -160 -137 -9 -10 -35 -38 -58 -63 -24 -24 -43 -48 -43 -54 0 -5 -4
-10 -8 -10 -5 0 -41 -49 -81 -109 -144 -219 -224 -441 -257 -711 -6 -45 -5
-304 1 -330 3 -14 8 -47 11 -75 l5 -50 -49 -33 c-65 -43 -158 -127 -236 -212
-58 -63 -166 -210 -166 -226 0 -8 -3 -14 -8 -14 -7 0 -76 -118 -77 -131 0 -3
-11 -30 -24 -60 -44 -99 -51 -116 -54 -135 -1 -11 -6 -24 -9 -30 -4 -6 -9 -21
-11 -35 -3 -13 -10 -42 -15 -64 -6 -22 -14 -58 -17 -80 -4 -22 -9 -53 -12 -70
-9 -51 -11 -353 -3 -398 5 -23 11 -62 15 -87 11 -76 13 -82 39 -172 45 -152
137 -343 218 -453 92 -125 234 -274 323 -340 22 -17 46 -36 53 -42 7 -7 18
-13 24 -13 9 0 8 -27 -7 -140 -7 -50 -7 -266 -1 -320 2 -19 7 -53 11 -75 4
-22 8 -49 10 -60 11 -82 69 -260 119 -370 76 -164 171 -299 311 -441 90 -91
213 -194 233 -194 6 0 12 -3 14 -7 8 -20 268 -161 268 -146 0 3 7 0 15 -7 8
-7 15 -9 15 -5 0 4 6 3 12 -3 14 -11 177 -62 212 -67 12 -1 49 -8 84 -14 34
-7 66 -9 71 -6 6 3 12 1 16 -4 10 -17 407 -3 436 15 5 2 16 -4 26 -14 30 -31
63 -72 63 -78 0 -16 198 -206 275 -263 107 -80 135 -97 240 -149 128 -63 211
-97 265 -108 14 -3 34 -8 45 -11 27 -9 44 -13 85 -20 19 -3 42 -8 50 -12 8 -4
32 -7 52 -7 21 1 38 -2 38 -5 0 -8 353 -3 390 5 14 2 41 7 60 11 61 10 205 48
215 57 5 4 16 8 25 8 47 0 293 127 398 206 40 30 77 54 82 54 6 0 10 7 10 15
0 8 5 15 12 15 16 0 172 161 229 237 26 34 48 60 50 58 10 -9 128 -17 274 -19
171 -1 262 7 333 28 9 3 32 8 50 11 32 5 135 37 177 55 25 10 58 23 65 24 25
6 110 52 110 59 0 6 3 8 6 4 3 -3 25 6 48 20 111 69 166 106 166 112 0 4 14
15 30 24 37 22 180 163 235 232 22 28 43 52 48 53 4 2 7 10 7 18 0 8 5 14 10
14 6 0 10 6 10 14 0 8 3 16 8 18 10 4 62 85 62 97 0 5 6 16 13 23 40 43 138
301 161 429 2 13 5 24 6 24 7 0 22 135 26 233 2 51 6 97 9 103 4 5 3 9 -2 9
-4 0 -8 26 -9 58 -1 31 -4 82 -9 114 -7 53 -6 57 16 68 50 26 154 122 267 245
42 46 130 176 166 245 32 63 60 92 81 83 17 -6 17 -8 19 77 1 39 9 78 19 98
10 17 15 32 13 32 -3 0 -1 12 5 28 6 15 13 36 15 47 7 27 10 37 17 55 5 14 21
86 33 156 3 16 7 40 10 54 13 72 18 139 18 275 0 179 -5 226 -39 354 -14 57
-24 86 -51 156 -4 11 -8 22 -9 25 -1 3 -8 19 -15 35 -7 17 -13 46 -14 65 -1
27 -6 36 -21 38 -12 2 -35 28 -58 69 -52 89 -119 174 -202 260 -71 73 -213
193 -228 193 -4 0 -19 11 -34 24 -17 16 -23 28 -17 37 29 47 24 421 -6 564 -6
25 -14 65 -20 89 -13 60 -75 226 -116 310 -37 75 -149 248 -183 283 -11 12
-21 25 -21 28 0 8 -170 174 -215 210 -21 17 -44 36 -51 43 -7 6 -15 12 -18 12
-2 0 -34 20 -70 44 -120 80 -302 159 -461 200 -58 15 -75 18 -160 30 -41 6
-172 18 -190 18 -104 -3 -230 -13 -265 -21 -43 -10 -46 -9 -70 17 -14 15 -36
43 -50 62 -74 103 -296 296 -425 371 -51 29 -197 101 -210 103 -5 1 -21 8 -35
16 -14 7 -26 13 -27 12 -2 -1 -8 0 -15 3 -38 12 -126 37 -143 41 -11 2 -38 8
-60 13 -22 6 -58 13 -80 16 -50 7 -370 17 -376 11z"/>
</g>
</svg>
