<?xml version="1.0" standalone="no"?>
<!DOCTYPE svg PUBLIC "-//W3C//DTD SVG 20010904//EN"
 "http://www.w3.org/TR/2001/REC-SVG-20010904/DTD/svg10.dtd">
<svg version="1.0" xmlns="http://www.w3.org/2000/svg"
 width="1202.000000pt" height="1202.000000pt" viewBox="0 0 1202.000000 1202.000000"
 preserveAspectRatio="xMidYMid meet">
<metadata>
Created by potrace 1.11, written by Peter Selinger 2001-2013
</metadata>
<g transform="translate(0.000000,1202.000000) scale(0.100000,-0.100000)"
fill="#000000" stroke="none">
<path d="M5839 12016 c-2 -2 -35 -6 -74 -10 -103 -9 -138 -15 -265 -43 -444
-97 -849 -321 -1172 -649 -120 -122 -139 -144 -230 -266 -48 -64 -78 -96 -87
-92 -8 2 -30 7 -50 10 -20 3 -47 7 -61 10 -143 24 -502 23 -645 -1 -351 -61
-610 -153 -875 -313 -66 -40 -236 -157 -250 -172 -3 -3 -39 -34 -80 -70 -265
-229 -479 -515 -632 -845 -93 -200 -181 -504 -203 -700 -4 -33 -11 -82 -15
-108 -7 -47 -5 -452 3 -512 2 -16 8 -57 12 -90 4 -33 11 -70 16 -82 5 -15 5
-23 -2 -23 -11 0 -99 -65 -177 -132 -166 -141 -351 -351 -471 -533 -158 -239
-305 -594 -356 -856 -41 -210 -49 -295 -50 -519 0 -172 7 -291 21 -378 75
-449 204 -762 465 -1132 113 -160 343 -390 506 -507 l63 -45 -5 -46 c-3 -26
-8 -54 -10 -62 -28 -106 -26 -596 2 -725 4 -16 7 -37 8 -45 7 -71 67 -309 108
-425 163 -458 433 -834 817 -1137 65 -51 149 -111 170 -121 8 -4 35 -21 60
-37 48 -31 301 -160 314 -160 4 0 22 -6 39 -14 80 -36 339 -113 407 -121 8 0
31 -4 50 -8 182 -35 557 -42 705 -13 11 2 44 7 73 11 28 4 52 12 52 18 0 5 17
-15 38 -45 20 -31 48 -69 62 -86 14 -17 36 -46 50 -64 84 -110 267 -285 415
-397 322 -243 694 -399 1090 -456 22 -4 51 -9 65 -11 46 -10 414 -12 485 -4
130 16 170 22 245 37 507 100 997 389 1333 783 73 85 166 206 173 226 3 7 27
6 77 -2 152 -27 392 -35 577 -21 80 6 107 9 190 23 19 4 49 8 65 11 29 4 105
24 229 58 185 51 453 181 636 308 76 53 113 81 199 152 113 92 280 272 391
420 227 305 406 741 456 1110 4 28 8 59 10 70 27 142 18 613 -12 704 -4 13 39
61 55 61 3 0 17 10 31 23 14 12 43 37 65 56 94 80 212 200 280 286 22 27 46
56 53 64 37 39 188 281 240 386 112 224 203 472 241 660 5 22 16 74 25 115 19
91 42 246 53 355 10 102 10 421 0 500 -15 120 -19 141 -29 185 -5 25 -11 52
-13 61 -14 68 -55 203 -92 301 -154 413 -461 811 -826 1070 l-88 63 6 55 c3
30 7 66 10 80 9 43 19 221 18 325 0 105 -12 306 -18 316 -2 3 -7 28 -10 55
-10 73 -34 189 -57 274 -12 41 -23 87 -26 103 -2 15 -8 30 -13 33 -5 3 -9 12
-9 20 0 23 -68 190 -125 305 -126 257 -266 452 -474 660 -303 303 -614 487
-1030 609 -77 23 -94 27 -151 36 -19 3 -38 8 -42 10 -4 3 -29 7 -55 10 -26 2
-55 6 -63 9 -82 23 -512 24 -626 1 -12 -2 -45 -7 -75 -11 -30 -4 -57 -9 -60
-11 -4 -2 -10 3 -13 12 -15 38 -169 225 -275 333 -135 138 -236 222 -390 325
-293 196 -658 335 -976 372 -27 3 -57 8 -65 11 -16 6 -425 14 -431 9z"/>
</g>
</svg>
