<?xml version="1.0" standalone="no"?>
<!DOCTYPE svg PUBLIC "-//W3C//DTD SVG 20010904//EN"
 "http://www.w3.org/TR/2001/REC-SVG-20010904/DTD/svg10.dtd">
<svg version="1.0" xmlns="http://www.w3.org/2000/svg"
 width="700.000000pt" height="700.000000pt" viewBox="0 0 700.000000 700.000000"
 preserveAspectRatio="xMidYMid meet">
<metadata>
Created by potrace 1.11, written by Peter Selinger 2001-2013
</metadata>
<g transform="translate(0.000000,700.000000) scale(0.100000,-0.100000)"
fill="#000000" stroke="none">
<path d="M3388 6925 c-2 -1 -32 -6 -68 -9 -132 -14 -312 -68 -445 -133 -177
-88 -386 -259 -495 -406 -37 -50 -47 -57 -69 -53 -123 25 -332 25 -480 0 -115
-20 -313 -88 -410 -142 -164 -90 -290 -193 -423 -344 -70 -80 -159 -225 -210
-343 -50 -116 -66 -173 -104 -360 -18 -90 -11 -355 12 -455 3 -14 2 -22 -1
-18 -11 11 -121 -77 -220 -177 -146 -147 -261 -333 -326 -527 -32 -95 -34
-102 -49 -183 -5 -27 -12 -63 -15 -80 -16 -76 -12 -312 6 -420 40 -239 148
-481 294 -665 46 -56 198 -201 252 -239 l59 -41 -11 -75 c-24 -148 -14 -355
24 -515 66 -284 242 -567 464 -751 43 -35 84 -69 90 -74 92 -77 395 -210 523
-229 22 -4 51 -8 64 -11 120 -23 328 -23 453 0 32 6 36 3 77 -52 79 -104 247
-261 342 -318 72 -43 171 -97 213 -115 315 -137 695 -153 1015 -43 270 92 492
253 679 491 28 35 38 42 57 38 37 -10 152 -19 229 -20 223 0 443 52 645 154
176 89 389 274 503 437 205 292 293 640 252 993 l-7 66 43 28 c94 63 269 257
342 381 150 255 242 608 232 900 -12 388 -185 721 -512 984 -48 39 -93 71
-100 71 -7 0 -10 10 -7 23 39 219 18 480 -58 702 -19 58 -104 240 -130 280
-276 424 -717 670 -1198 668 -79 0 -199 -10 -236 -19 -17 -4 -28 3 -50 33
-216 288 -537 487 -886 549 -78 14 -350 28 -360 19z"/>
</g>
</svg>
