<?xml version="1.0" standalone="no"?>
<!DOCTYPE svg PUBLIC "-//W3C//DTD SVG 20010904//EN"
 "http://www.w3.org/TR/2001/REC-SVG-20010904/DTD/svg10.dtd">
<svg version="1.0" xmlns="http://www.w3.org/2000/svg"
 width="375.000000pt" height="375.000000pt" viewBox="0 0 375.000000 375.000000"
 preserveAspectRatio="xMidYMid meet">
<g transform="translate(0.000000,375.000000) scale(0.100000,-0.100000)"
fill="#000000" stroke="none">
<path d="M1870 3551 c0 -7 -6 -11 -15 -7 -8 3 -21 -2 -30 -10 -8 -9 -15 -11
-15 -6 0 5 -7 9 -15 9 -8 0 -12 -4 -9 -9 3 -4 -4 -8 -16 -8 -12 0 -18 -4 -15
-10 3 -5 -1 -10 -9 -10 -8 0 -21 -7 -30 -15 -8 -9 -19 -16 -23 -17 -21 -2 -32
-11 -26 -21 3 -5 1 -7 -4 -4 -6 4 -16 0 -23 -8 -7 -8 -21 -15 -32 -15 -10 0
-16 -4 -13 -10 3 -5 -1 -10 -9 -10 -9 0 -16 -6 -16 -12 0 -10 -2 -10 -9 0 -6
10 -10 9 -14 -7 -3 -15 -10 -19 -21 -15 -9 4 -16 3 -14 -2 2 -5 -1 -11 -7 -13
-5 -2 -15 -11 -22 -20 -11 -14 -12 -14 -13 -1 -1 9 -5 6 -10 -7 -6 -14 -18
-23 -31 -23 -15 0 -19 -4 -15 -16 5 -12 2 -15 -9 -10 -9 3 -18 -1 -22 -10 -3
-8 -11 -13 -18 -10 -7 2 -15 -5 -18 -16 -3 -11 -10 -17 -15 -14 -6 3 -13 -1
-16 -10 -3 -9 -12 -14 -20 -11 -7 3 -13 0 -12 -6 0 -7 -3 -13 -7 -14 -5 -1
-14 -9 -21 -19 -7 -9 -18 -14 -24 -10 -8 5 -10 1 -5 -10 5 -13 3 -16 -10 -11
-9 3 -19 1 -23 -5 -5 -7 -2 -8 7 -4 8 4 5 0 -6 -9 -11 -9 -19 -21 -17 -26 1
-5 -1 -8 -5 -8 -21 3 -33 -3 -33 -17 0 -8 -4 -12 -10 -9 -5 3 -10 1 -10 -4 0
-6 -8 -11 -17 -11 -9 0 -14 -3 -11 -6 6 -6 -27 -44 -38 -44 -12 0 -33 -28 -26
-36 4 -5 -1 -2 -10 5 -15 11 -17 10 -13 -9 2 -13 2 -20 -2 -16 -3 3 -13 -3
-21 -15 -8 -11 -20 -18 -27 -15 -7 2 -12 -3 -11 -12 0 -10 -6 -16 -16 -16 -10
1 -14 -4 -11 -12 3 -8 0 -14 -6 -14 -6 0 -11 -7 -11 -15 0 -8 -5 -15 -11 -15
-5 0 -7 5 -3 12 4 7 3 8 -5 4 -6 -4 -9 -11 -6 -16 7 -12 -74 -96 -89 -92 -6 2
-8 0 -4 -4 9 -8 -22 -64 -35 -64 -4 0 -5 -4 -2 -10 9 -14 -8 -12 -25 3 -12 10
-12 9 0 -7 12 -16 12 -20 -3 -31 -9 -7 -17 -17 -17 -23 0 -5 -7 -13 -16 -16
-8 -3 -12 -10 -9 -16 3 -5 1 -10 -4 -10 -6 0 -11 -7 -11 -15 0 -8 -5 -15 -10
-15 -6 0 -16 -12 -23 -27 -6 -15 -22 -38 -35 -52 -12 -14 -20 -31 -18 -38 3
-7 -1 -13 -10 -13 -8 0 -12 -4 -9 -10 3 -5 1 -10 -6 -10 -7 0 -10 -3 -6 -6 3
-4 -4 -15 -16 -25 -12 -10 -16 -18 -9 -19 6 0 12 5 12 12 0 6 3 8 7 4 5 -4 1
-13 -7 -19 -17 -14 -66 -107 -62 -119 1 -4 -5 -8 -14 -8 -13 0 -14 -3 -5 -14
9 -10 8 -15 -4 -20 -8 -3 -15 -15 -15 -26 0 -11 -6 -20 -12 -20 -9 0 -8 -4 2
-10 13 -8 13 -10 -2 -10 -9 0 -20 -5 -24 -12 -5 -7 -3 -8 6 -3 10 6 12 4 7 -9
-4 -10 -7 -20 -7 -22 0 -3 -6 -2 -12 2 -9 5 -9 2 1 -9 7 -9 9 -17 3 -17 -5 0
-13 -7 -16 -16 -4 -9 -2 -13 5 -8 6 3 4 -5 -5 -18 -9 -14 -13 -28 -9 -31 3 -4
1 -7 -6 -7 -8 0 -11 -7 -7 -15 3 -8 1 -15 -5 -15 -6 0 -7 -4 -4 -10 3 -5 3
-16 -2 -22 -8 -14 -14 -35 -15 -58 0 -8 -5 -21 -11 -27 -5 -7 -6 -13 -2 -13 4
0 1 -8 -6 -17 -10 -11 -10 -14 -2 -9 7 4 13 3 13 -3 0 -5 -6 -12 -12 -15 -10
-5 -10 -7 -1 -12 10 -4 9 -9 -3 -21 -11 -12 -12 -18 -4 -23 7 -4 8 -10 3 -13
-5 -3 -10 -25 -12 -48 -1 -24 -7 -49 -13 -56 -7 -9 -7 -17 2 -28 8 -9 9 -15 2
-15 -11 0 -9 -31 3 -50 3 -6 2 -10 -4 -10 -5 0 -8 -12 -7 -27 3 -27 -21 -66
-36 -57 -4 3 -8 -2 -8 -10 0 -9 -4 -16 -10 -16 -5 0 -10 -7 -10 -15 0 -8 -5
-15 -11 -15 -5 0 -7 -5 -3 -12 5 -7 2 -9 -7 -6 -10 4 -15 -5 -16 -35 -2 -22
-6 -43 -11 -46 -4 -3 -7 -13 -7 -21 1 -8 -1 -19 -4 -24 -9 -18 -7 -56 4 -56 7
0 6 -3 -1 -8 -13 -9 -13 -52 1 -52 5 0 3 -5 -5 -10 -11 -7 -11 -10 -2 -10 7 0
10 -4 7 -10 -3 -5 0 -10 7 -10 8 0 9 -3 3 -8 -13 -9 -18 -35 -5 -27 5 3 10 0
10 -9 0 -8 -6 -17 -12 -19 -8 -3 -5 -6 6 -6 12 -1 16 -6 12 -16 -3 -8 0 -15 6
-15 6 0 9 -3 5 -6 -3 -4 2 -23 13 -44 11 -21 16 -41 12 -45 -4 -5 -1 -5 6 -1
7 4 12 1 12 -8 0 -9 6 -16 13 -16 8 0 7 -4 -3 -10 -13 -8 -13 -10 1 -10 9 0
23 -8 30 -17 10 -11 10 -14 2 -9 -7 4 -13 3 -13 -1 0 -5 9 -14 20 -21 12 -7
18 -17 15 -21 -2 -5 2 -12 11 -15 9 -3 12 -11 8 -18 -4 -7 -4 -10 1 -6 4 4 25
-10 45 -32 21 -22 43 -40 49 -40 7 0 9 -4 6 -10 -3 -5 -1 -10 5 -10 6 0 8 -4
5 -10 -3 -5 0 -10 7 -10 8 0 20 -9 28 -20 8 -11 18 -20 23 -20 13 0 37 -27 30
-34 -4 -3 3 -6 14 -6 10 0 29 -10 41 -23 36 -38 65 -63 57 -49 -6 11 -3 11 14
0 12 -7 21 -16 21 -20 0 -5 7 -8 15 -8 8 0 15 -4 15 -10 0 -5 7 -10 15 -10 9
0 18 -6 21 -14 3 -8 12 -12 20 -9 7 3 21 -2 30 -11 9 -10 24 -14 35 -11 10 4
19 2 19 -3 0 -6 7 -13 16 -16 10 -4 13 -2 9 7 -4 6 0 4 9 -7 8 -10 20 -15 26
-11 6 4 21 -1 32 -12 12 -10 18 -12 14 -5 -4 6 -2 12 3 12 6 0 11 -4 11 -9 0
-6 9 -8 20 -6 11 2 20 0 20 -5 0 -4 9 -6 20 -3 11 3 20 1 20 -4 0 -5 16 -10
36 -11 20 -1 42 -6 49 -12 9 -8 15 -8 20 0 3 6 12 7 18 3 7 -4 23 -9 37 -10
14 -1 37 -4 53 -8 18 -3 27 -1 27 7 0 8 3 9 8 3 11 -16 47 -41 39 -29 -4 7 0
14 8 18 8 3 17 1 20 -4 6 -10 24 -8 44 4 9 6 12 5 8 0 -6 -11 153 -11 170 -1
7 4 14 3 17 -1 4 -7 51 -8 51 -2 0 3 51 8 113 12 23 1 42 5 42 9 0 5 15 7 87
12 12 0 20 4 17 8 -2 4 6 8 18 8 49 1 58 3 58 9 0 4 8 8 18 9 82 9 108 10 116
5 18 -11 66 -9 66 2 0 7 4 6 9 -2 4 -8 12 -14 16 -14 4 0 12 6 16 14 5 7 9 8
9 2 0 -10 26 -10 95 1 22 4 48 6 58 6 9 0 17 4 17 9 0 5 9 7 20 5 13 -3 18 0
14 7 -5 7 -2 9 9 5 9 -3 18 1 21 10 4 9 9 13 13 10 3 -4 12 1 20 11 8 9 12 11
8 5 -3 -7 -1 -13 4 -13 6 0 11 7 11 16 0 8 5 12 10 9 6 -3 10 -1 10 6 0 6 11
22 24 34 14 13 22 26 19 29 -4 3 -2 6 4 6 11 0 40 59 35 73 -1 4 2 7 7 7 9 0
21 49 22 85 0 16 2 17 9 5 8 -12 10 -12 16 3 5 14 9 15 21 6 8 -7 13 -8 11 -3
-2 5 0 9 3 9 3 0 13 8 23 18 14 14 21 15 32 6 12 -10 13 -9 8 6 -5 12 -4 16 4
11 6 -3 13 -2 17 4 4 6 11 8 16 5 5 -4 9 -1 9 5 0 6 6 10 14 8 8 -2 22 6 31
17 9 11 13 13 9 5 -7 -13 -5 -13 9 -2 9 8 22 10 29 6 9 -5 8 -2 -2 12 -8 10
-11 16 -6 12 5 -4 18 -3 29 3 15 9 18 8 11 -3 -6 -10 -5 -11 8 -1 8 7 18 10
22 6 4 -4 4 1 0 10 -3 10 -3 17 2 16 5 -1 22 3 37 9 16 7 35 12 43 12 9 0 12
5 8 12 -5 8 -2 9 9 5 10 -3 17 -2 17 4 0 6 4 8 9 5 5 -3 12 1 15 10 4 9 13 14
21 10 8 -3 15 -1 15 5 0 6 6 9 14 6 8 -3 17 1 20 9 3 9 11 12 17 8 7 -4 17 0
23 8 19 25 73 47 86 34 8 -8 9 -6 4 8 -6 15 -4 18 8 13 10 -3 19 0 22 9 3 9
10 12 16 9 6 -3 13 1 16 9 3 9 10 16 16 16 5 0 6 -6 2 -12 -5 -9 -3 -9 9 1 9
7 14 18 10 25 -4 6 2 4 12 -4 10 -8 16 -10 12 -4 -4 7 0 15 9 18 10 4 13 2 9
-7 -4 -6 1 -3 9 7 9 11 16 16 16 10 0 -5 7 0 15 10 8 11 15 14 15 8 0 -7 9 -3
20 8 11 11 28 20 38 20 14 0 15 2 2 10 -13 8 -8 14 11 12 3 -1 6 4 7 11 0 7 3
22 6 35 3 13 0 22 -7 22 -8 0 -8 3 -2 8 12 9 16 52 4 52 -5 0 -6 6 -3 14 7 19
-45 66 -74 66 -16 0 -21 4 -16 13 6 9 4 9 -8 -1 -11 -9 -18 -10 -23 -2 -3 6
-11 8 -16 4 -5 -3 -17 0 -26 7 -8 7 -27 15 -42 17 -14 2 -28 8 -29 13 -3 6
-11 4 -20 -3 -13 -11 -14 -11 -7 1 6 11 4 13 -8 8 -11 -4 -17 -1 -17 8 0 8 -8
12 -20 10 -11 -2 -20 0 -20 5 0 5 -7 6 -17 3 -11 -4 -14 -3 -9 5 6 11 -5 17
-26 13 -5 0 -8 4 -8 10 0 5 -5 7 -10 4 -6 -3 -10 -1 -10 5 0 6 -4 8 -10 5 -6
-3 -10 -1 -10 5 0 6 -4 9 -9 5 -5 -3 -16 2 -24 10 -9 8 -21 15 -27 15 -6 0 -8
5 -4 12 4 6 3 8 -4 4 -6 -3 -18 1 -26 10 -9 8 -16 12 -16 7 0 -4 -5 0 -11 9
-5 10 -16 18 -23 18 -9 0 -14 12 -14 35 0 20 5 35 12 35 7 0 7 3 1 8 -16 11
-18 44 -3 53 10 7 10 9 0 9 -8 0 -12 12 -10 36 1 22 -3 39 -12 44 -8 6 -10 10
-5 10 19 0 16 48 -3 55 -16 6 -16 7 2 21 12 8 15 14 7 14 -8 0 -11 8 -8 20 3
11 1 20 -5 20 -6 0 -8 7 -4 15 3 8 0 15 -6 15 -6 0 -5 6 3 17 10 11 10 14 2 9
-9 -5 -13 0 -13 18 0 14 -5 28 -11 31 -6 4 -8 13 -5 20 2 7 -3 23 -11 36 -13
17 -13 20 -2 14 9 -5 7 -1 -3 12 -10 11 -19 31 -20 46 -1 14 -5 24 -9 21 -3
-2 -14 17 -24 41 -9 25 -21 45 -26 45 -6 0 -7 5 -4 10 3 6 1 10 -6 10 -7 0
-10 3 -6 6 3 4 -1 13 -9 21 -8 8 -12 19 -8 24 3 5 0 8 -8 7 -7 -2 -12 5 -12
14 1 10 -2 15 -7 12 -8 -5 -13 9 -10 28 0 5 -2 7 -7 7 -17 -3 -32 1 -30 9 5
13 -94 120 -127 138 -11 6 -19 16 -18 22 2 7 -3 11 -10 9 -6 -1 -11 4 -9 11 1
8 -2 11 -7 8 -5 -4 -23 5 -39 19 -16 14 -35 25 -41 25 -6 0 -11 5 -11 10 0 6
-6 10 -14 10 -7 0 -21 10 -30 23 -9 12 -14 16 -10 9 5 -11 2 -11 -17 0 -13 7
-30 20 -37 28 -12 13 -13 13 -7 0 4 -9 1 -8 -8 3 -8 10 -24 19 -36 20 -12 1
-21 5 -21 9 0 4 -7 8 -15 8 -8 0 -15 4 -15 10 0 5 -7 7 -15 4 -8 -4 -15 -1
-15 6 0 7 -7 10 -15 6 -8 -3 -15 -1 -15 5 0 6 -7 9 -15 5 -9 -3 -15 1 -15 11
0 12 -3 13 -13 4 -19 -15 -30 -1 -14 17 10 13 9 14 -3 7 -21 -13 -39 -15 -46
-4 -3 5 -10 7 -15 4 -5 -4 -9 2 -9 12 0 15 -2 16 -10 3 -8 -12 -12 -13 -19 -2
-4 8 -11 13 -15 13 -3 -1 -9 0 -13 0 -5 1 -16 1 -25 0 -10 -1 -18 4 -18 11 0
9 -3 9 -10 -2 -10 -15 -13 -2 -13 53 0 9 -5 17 -11 17 -6 0 -5 4 3 9 7 5 13
25 13 45 0 20 5 36 12 36 6 0 4 5 -4 10 -13 8 -13 10 0 10 10 0 11 3 3 11 -8
8 -8 20 -3 34 5 13 6 26 3 29 -4 3 -2 6 3 6 5 0 8 20 7 45 -1 25 2 43 6 41 4
-3 6 15 5 40 -2 35 1 44 14 44 10 0 13 3 7 8 -13 8 -19 72 -8 72 5 0 8 20 9
45 0 25 -4 45 -10 45 -7 0 -8 3 -1 8 13 9 16 42 4 42 -5 0 -9 5 -9 11 0 5 4 7
10 4 5 -3 0 9 -13 28 -14 22 -25 30 -29 23 -7 -10 -12 -2 -10 15 1 4 -13 5
-31 4 -18 -2 -35 2 -39 8 -6 9 -8 8 -8 -2z"/>
</g>
</svg>
