<svg version="1.2" xmlns="http://www.w3.org/2000/svg" viewBox="0 0 1000 1000" width="1000" height="1000">
	<title>kubeflow-logo</title>
	<style>
		.s0 { fill: #0028aa } 
		.s1 { fill: #a1c3ff } 
		.s2 { fill: #4279f4 } 
		.s3 { fill: #6ca1ff } 
		.s4 { fill: #014bd1 } 
		.s5 { fill: #bedcff } 
	</style>
	<g id="Background">
		<path id="Path 0" class="s0" d="m392.2 872.5c-34.2 43.7-62.2 80-62.2 80.5 0 0.7 54.5 1 161.5 1 128.7 0 161.4-0.3 161.2-1.3-0.2-0.6-17.7-15.2-38.9-32.2-21.2-17-65.5-52.6-98.3-79-32.9-26.4-60.1-48.1-60.4-48.3-0.4-0.1-28.7 35.6-62.9 79.3z"/>
		<path id="Path 1" class="s1" d="m436.6 157.3c-50.5 63.3-91.4 115.6-90.9 116 0.4 0.5 107.9-18.8 238.8-42.9 130.9-24 238.5-44.1 239-44.5 0.5-0.5 0.8-1.1 0.5-1.4-0.3-0.2-66.9-32.4-148-71.5-81.1-39.1-147.5-71-147.6-71 0 0-41.4 51.9-91.8 115.3z"/>
		<path id="Path 2" class="s2" d="m589.1 297.3l-293.4 54.2c0.3 13.2 4.9 127 10.3 261.5 5.4 134.5 10.2 244.9 10.7 245.3 0.4 0.4 2.4-1.1 4.4-3.5 2-2.4 84.2-107.3 182.9-233.3 98.6-126 180.7-230.5 182.4-232.3 1.7-1.8 6-4.8 9.6-6.5 5.5-2.7 7.5-3.2 14-3.2 5.9 0 8.6 0.5 13 2.6 3.6 1.7 44.5 33.8 120.5 94.8 63.2 50.7 115.3 91.8 115.8 91.4 0.4-0.4-15-69.9-34.3-154.3-19.3-84.4-36-157.4-37-162.3-1.6-7-2.3-8.7-3.8-8.6-0.9 0-133.7 24.5-295.1 54.2z"/>
		<path id="Path 3" class="s3" d="m136.5 533.5c-50.6 63.5-92 116.1-91.9 116.8 0 0.6 46.2 58.9 102.5 129.5 56.3 70.6 102.7 128 103.1 127.5 0.3-0.4-3.8-110.6-9.2-244.8-5.4-134.2-9.9-244.1-9.9-244.3-0.1-0.1-0.7-0.2-1.4-0.2-0.6 0-42.6 52-93.2 115.5z"/>
		<path id="Path 4" class="s4" d="m701.3 477.7c-7.7 9.8-23.1 29.5-34.3 43.8-11.2 14.3-28.3 36.1-38 48.5-9.7 12.4-26.8 34.2-38 48.5-11.2 14.3-26.5 33.9-34.1 43.5-7.5 9.6-24.3 31-37.2 47.5l-23.6 30c3.4 3.3 55.6 45.2 118.2 95.4 62.5 50.1 114.3 91.3 115 91.6 0.7 0.2 46.4-56.3 111.2-137.6 60.5-76 110.1-138.6 110.2-139.2 0.1-0.7-17.9-15.6-40-33.3-22.1-17.7-73.2-58.6-113.5-91-40.4-32.4-75.3-60.4-77.6-62.2l-4.3-3.2z"/>
		<path id="Path 5" class="s5" d="m270.5 136.1c-84.2 40.6-153.3 74-153.7 74.1-0.3 0.2-17.7 75.2-38.6 166.8-23 100.4-37.7 166.9-37.1 167.5 0.5 0.6 1.7-0.1 3.1-2 1.3-1.6 87.7-110.1 192-241 104.3-130.9 189.5-238.3 189.3-238.8-0.3-0.4-0.8-0.7-1.3-0.6-0.4 0.1-69.6 33.3-153.7 74z"/>
	</g>
</svg>