<?xml version="1.0" standalone="no"?>
<!DOCTYPE svg PUBLIC "-//W3C//DTD SVG 20010904//EN"
 "http://www.w3.org/TR/2001/REC-SVG-20010904/DTD/svg10.dtd">
<svg version="1.0" xmlns="http://www.w3.org/2000/svg"
 width="250.000000pt" height="250.000000pt" viewBox="0 0 250.000000 250.000000"
 preserveAspectRatio="xMidYMid meet">

<g transform="translate(0.000000,250.000000) scale(0.100000,-0.100000)"
fill="#000000" stroke="none">
<path d="M1450 2003 c-8 -3 -106 -96 -217 -207 -256 -254 -250 -224 -80 -393
l122 -122 65 32 c60 30 71 32 170 32 120 0 173 -15 247 -72 l46 -35 100 101
c147 146 157 116 -143 416 -237 236 -271 263 -310 248z"/>
<path d="M697 1072 c-219 -219 -257 -262 -257 -287 0 -24 26 -55 158 -187 131
-132 163 -158 187 -158 24 0 56 27 192 163 l164 162 -16 45 c-37 103 -29 214
21 319 l26 53 -73 74 c-115 116 -93 126 -402 -184z"/>
</g>
</svg>
