<?xml version="1.0" encoding="UTF-8" standalone="no"?>
<svg
   xmlns:dc="http://purl.org/dc/elements/1.1/"
   xmlns:cc="http://creativecommons.org/ns#"
   xmlns:rdf="http://www.w3.org/1999/02/22-rdf-syntax-ns#"
   xmlns:svg="http://www.w3.org/2000/svg"
   xmlns="http://www.w3.org/2000/svg"
   xmlns:sodipodi="http://sodipodi.sourceforge.net/DTD/sodipodi-0.dtd"
   xmlns:inkscape="http://www.inkscape.org/namespaces/inkscape"
   width="197.40611"
   height="197.32823"
   version="1.1"
   viewBox="0 0 197.40612 197.32823"
   xml:space="preserve"
   id="svg700"
   sodipodi:docname="otomi_logo-ee.svg"
   inkscape:version="1.0rc1 (09960d6, 2020-04-09)"><defs
     id="defs704" /><sodipodi:namedview
     inkscape:document-rotation="0"
     pagecolor="#ffffff"
     bordercolor="#666666"
     borderopacity="1"
     objecttolerance="10"
     gridtolerance="10"
     guidetolerance="10"
     inkscape:pageopacity="0"
     inkscape:pageshadow="2"
     inkscape:window-width="1792"
     inkscape:window-height="1067"
     id="namedview702"
     showgrid="false"
     fit-margin-top="2"
     fit-margin-left="2"
     fit-margin-right="2"
     fit-margin-bottom="2"
     lock-margins="true"
     inkscape:zoom="1.6468244"
     inkscape:cx="98.697898"
     inkscape:cy="98.660199"
     inkscape:window-x="0"
     inkscape:window-y="25"
     inkscape:window-maximized="0"
     inkscape:current-layer="svg700" /><metadata
     id="metadata616"><rdf:RDF><cc:Work
         rdf:about=""><dc:format>image/svg+xml</dc:format><dc:type
           rdf:resource="http://purl.org/dc/dcmitype/StillImage" /><dc:title /></cc:Work></rdf:RDF></metadata><g
     transform="matrix(1.3333,0,0,-1.3333,3.3329,193.9952)"
     id="g698"><g
       transform="scale(0.1)"
       id="g696"><g
         fill="none"
         stroke="#f1c400"
         stroke-width="20"
         id="g668"><path
           d="M 805.03,207.81 715.003,298.411 624.976,207.81 C 581.874,164.431 528.515,137.47 472.656,126.872 525.934,50.22 614.576,0.002 715.006,0.002 c 100.41,0 189.04,50.199 242.32,126.83 -55.261,10.492 -108.09,37.043 -151,79.684 -0.652,0.636 -0.652,0.636 -1.301,1.297"
           id="path618"
           inkscape:connector-curvature="0" /><path
           d="m 624.97,1222.2 90.027,-90.61 90.027,90.61 c 43.11,43.37 96.457,70.33 152.33,80.93 -53.285,76.65 -141.93,126.87 -242.36,126.87 -100.41,0 -189.04,-50.21 -242.32,-126.84 55.262,-10.49 108.09,-37.03 151,-79.67 0.652,-0.65 0.652,-0.65 1.301,-1.29"
           id="path620"
           inkscape:connector-curvature="0" /><path
           d="m 420,1010 v 125 c 0,62.52 19.504,120.45 52.676,168.16 -91.961,17.46 -190.67,-9.56 -261.62,-80.96 l -0.367,-0.37 c -71,-71.44 -97.875,-170.14 -80.7,-262.26 47.098,31.836 103.88,50.434 165.01,50.434 h 125"
           id="path622"
           inkscape:connector-curvature="0" /><path
           d="M 1135,420 H 1010 V 295 c 0,-62.512 -19.504,-120.45 -52.676,-168.17 91.966,-17.449 190.68,9.57 261.63,80.973 l 0.37,0.371 c 69.59,70.027 96.73,166.25 81.62,256.78 -47.04,-32.246 -103.95,-48.566 -165.94,-44.957"
           id="path624"
           inkscape:connector-curvature="0" /><path
           d="M 1010,420 H 835.82 L 715,298.41 805.027,207.809 c 0.649,-0.661 0.649,-0.661 1.301,-1.297 42.902,-42.641 95.735,-69.192 151,-79.684 33.172,47.723 52.676,105.66 52.676,168.17 v 125"
           id="path626"
           inkscape:connector-curvature="0" /><path
           d="M 420,1010 H 594.18 L 715,1131.59 624.973,1222.2 c -0.649,0.64 -0.649,0.64 -1.301,1.29 -42.902,42.64 -95.734,69.18 -151,79.67 C 439.5,1255.45 419.996,1197.52 419.996,1135 v -125"
           id="path628"
           inkscape:connector-curvature="0" /><path
           d="m 1010,1010 h 125 c 60.09,0 117.37,-18.051 165.26,-48.937 16.62,91.687 -10.33,189.72 -80.94,260.77 l -1.67,1.67 c -70.93,70.48 -168.97,96.95 -260.3,79.63 33.153,-47.7 52.645,-105.62 52.645,-168.13 v -125"
           id="path630"
           inkscape:connector-curvature="0" /><path
           d="M 420,420 H 295 c -61.129,0 -117.91,18.602 -165.01,50.438 -17.175,-92.118 9.7,-190.83 80.7,-262.27 l 0.367,-0.371 c 0.648,-0.66 0.648,-0.66 1.3,-1.301 70.926,-70.48 168.96,-96.949 260.3,-79.629 -33.16,47.707 -52.652,105.63 -52.652,168.13 v 125"
           id="path632"
           inkscape:connector-curvature="0" /><path
           d="M 715,1131.6 835.82,1010.01 H 1010 v 125 c 0,62.51 -19.492,120.43 -52.645,168.13 -55.871,-10.6 -109.22,-37.56 -152.33,-80.93 l -90.027,-90.61"
           id="path634"
           inkscape:connector-curvature="0" /><path
           d="M 715,298.41 594.18,420 H 420 V 295 c 0,-62.5 19.492,-120.42 52.652,-168.13 55.86,10.598 109.22,37.559 152.32,80.938 l 90.027,90.601"
           id="path636"
           inkscape:connector-curvature="0" /><path
           d="M 715,1131.6 594.18,1010.01 h 241.64 z"
           id="path638"
           inkscape:connector-curvature="0" /><path
           d="M 715,298.41 835.82,420 H 594.18 Z"
           id="path640"
           inkscape:connector-curvature="0" /><path
           d="m 301.06,715 -90.379,90.957 C 167.345,849.57 140.474,903.34 129.993,959.567 51.567,906.552 0.003,816.797 0.003,714.997 c 0,-101.78 51.562,-191.54 129.99,-244.56 10.481,56.218 37.352,110 80.688,153.61 l 90.379,90.945"
           id="path642"
           inkscape:connector-curvature="0" /><path
           d="m 1300.3,961.06 c -10.28,-56.77 -37.22,-111.12 -80.93,-155.11 l -90.38,-90.957 90.38,-90.945 c 44.73,-45.031 71.88,-100.89 81.61,-159.09 72.75,49.863 121.82,137.92 129.06,250.04 6.63,102.62 -47.76,193.2 -129.74,246.07"
           id="path644"
           inkscape:connector-curvature="0" /><path
           d="M 1129,715 1010.05,595.29 V 420 h 125 c 61.99,-3.609 118.9,12.711 165.94,44.957 -9.73,58.203 -36.88,114.06 -81.61,159.09 L 1129,714.992"
           id="path646"
           inkscape:connector-curvature="0" /><path
           d="M 301.06,715 420,834.71 v 175.3 H 295 c -61.129,0 -117.91,-18.598 -165.01,-50.434 10.481,-56.23 37.352,-110 80.688,-153.61 l 90.379,-90.957"
           id="path648"
           inkscape:connector-curvature="0" /><path
           d="M 420,1010 V 834.7 L 594.18,1010 Z"
           id="path650"
           inkscape:connector-curvature="0" /><path
           d="M 1010,420 V 595.29 L 835.82,420 Z"
           id="path652"
           inkscape:connector-curvature="0" /><path
           d="M 420,420 V 595.29 L 301.06,715 210.681,624.055 c -43.336,-43.613 -70.207,-97.395 -80.688,-153.61 47.098,-31.836 103.88,-50.438 165.01,-50.438 h 125"
           id="path654"
           inkscape:connector-curvature="0" /><path
           d="M 1010,1010 V 834.7 l 118.95,-119.71 90.38,90.957 c 43.71,43.992 70.65,98.34 80.93,155.11 -47.89,30.886 -105.17,48.937 -165.26,48.937 h -125"
           id="path656"
           inkscape:connector-curvature="0" /><path
           d="M 420,420 H 594.18 L 420,595.29 Z"
           id="path658"
           inkscape:connector-curvature="0" /><path
           d="M 1010,1010 H 835.82 L 1010,834.7 Z"
           id="path660"
           inkscape:connector-curvature="0" /><path
           d="M 1010,595.29 1128.95,715 1010,834.71 Z"
           id="path662"
           inkscape:connector-curvature="0" /><path
           d="M 301.06,715 420,595.29 V 834.7 Z"
           id="path664"
           inkscape:connector-curvature="0" /><path
           d="M 835.82,1010 H 594.18 L 420,834.7 V 595.29 L 594.18,420 H 835.82 L 1010,595.29 V 834.7 L 835.82,1010"
           id="path666"
           inkscape:connector-curvature="0" /></g><g
         fill="#ffffff"
         fill-rule="evenodd"
         stroke="#f1c400"
         stroke-width="20"
         id="g682"><path
           d="m 420.1,435 c 8.343,0 15.109,-6.805 15.109,-15.207 0,-8.41 -6.766,-15.211 -15.109,-15.211 -8.34,0 -15.102,6.801 -15.102,15.211 0,8.402 6.762,15.207 15.102,15.207"
           id="path670"
           inkscape:connector-curvature="0" /><path
           d="m 420.1,1025 c 8.343,0 15.109,-6.81 15.109,-15.21 0,-8.41 -6.766,-15.216 -15.109,-15.216 -8.34,0 -15.102,6.806 -15.102,15.216 0,8.4 6.762,15.21 15.102,15.21"
           id="path672"
           inkscape:connector-curvature="0" /><path
           d="m 715,1150.5 c 11.047,0 20,-8.95 20,-20 0,-11.04 -8.953,-20 -20,-20 -11.047,0 -20,8.96 -20,20 0,11.05 8.953,20 20,20"
           id="path674"
           inkscape:connector-curvature="0" /><path
           d="m 715,315 c 11.047,0 20,-8.961 20,-20 0,-11.051 -8.953,-20 -20,-20 -11.047,0 -20,8.949 -20,20 0,11.039 8.953,20 20,20"
           id="path676"
           inkscape:connector-curvature="0" /><path
           d="m 1010.1,435 c 8.34,0 15.1,-6.805 15.1,-15.207 0,-8.41 -6.76,-15.211 -15.1,-15.211 -8.35,0 -15.11,6.801 -15.11,15.211 0,8.402 6.76,15.207 15.11,15.207"
           id="path678"
           inkscape:connector-curvature="0" /><path
           d="m 1010.1,1025 c 8.34,0 15.1,-6.81 15.1,-15.21 0,-8.41 -6.76,-15.216 -15.1,-15.216 -8.35,0 -15.11,6.806 -15.11,15.216 0,8.4 6.76,15.21 15.11,15.21"
           id="path680"
           inkscape:connector-curvature="0" /></g><g
         transform="matrix(1.4236,0,0,1.5694,-291.72,-403.82)"
         fill="#ffffff"
         stroke="#ffffff"
         id="g694" /></g></g><path
     style="stroke-width:0.18410352;font-variation-settings:normal;opacity:1;vector-effect:none;fill:#ffffff;fill-opacity:1;stroke:#ffffff;stroke-linecap:butt;stroke-linejoin:miter;stroke-miterlimit:4;stroke-dasharray:none;stroke-dashoffset:0;stroke-opacity:1;stop-color:#000000;stop-opacity:1"
     inkscape:connector-curvature="0"
     id="path792"
     d="m 13.897191,96.947587 c 0,5.007163 3.39216,9.704113 8.987938,9.704113 5.90324,0 8.766935,-5.40601 8.766935,-9.61622 0,-4.255633 -2.863695,-9.707064 -8.855227,-9.707064 -5.771994,0 -8.899646,4.964692 -8.899646,9.573747 z m -8.3274947,0.398106 c 0,-10.725594 8.1955167,-17.37448 17.1827197,-17.37448 10.044869,0 17.227143,7.88955 17.227143,17.018843 0,9.130214 -7.137853,17.018844 -17.271563,17.018844 -10.264954,0 -17.1382997,-8.19884 -17.1382997,-16.619998 v -0.04321" /><path
     style="stroke-width:0.18410352;font-variation-settings:normal;opacity:1;vector-effect:none;fill:#ffffff;fill-opacity:1;stroke:#ffffff;stroke-linecap:butt;stroke-linejoin:miter;stroke-miterlimit:4;stroke-dasharray:none;stroke-dashoffset:0;stroke-opacity:1;stop-color:#000000;stop-opacity:1"
     inkscape:connector-curvature="0"
     id="path794"
     d="m 55.660404,87.94958 h -6.431703 v -7.357019 h 21.147766 v 7.357019 h -6.388568 v 25.44111 H 55.660221 V 87.94958" /><path
     style="stroke-width:0.18410352;font-variation-settings:normal;opacity:1;vector-effect:none;fill:#ffffff;fill-opacity:1;stroke:#ffffff;stroke-linecap:butt;stroke-linejoin:miter;stroke-miterlimit:4;stroke-dasharray:none;stroke-dashoffset:0;stroke-opacity:1;stop-color:#000000;stop-opacity:1"
     inkscape:connector-curvature="0"
     id="path796"
     d="m 87.907949,96.947587 c 0,5.007163 3.39216,9.704113 8.98794,9.704113 5.903971,0 8.768401,-5.40601 8.768401,-9.61622 0,-4.255633 -2.86443,-9.707064 -8.855959,-9.707064 -5.771996,0 -8.900382,4.964692 -8.900382,9.573747 z m -8.326761,0.398106 c 0,-10.725594 8.194783,-17.37448 17.181986,-17.37448 10.047076,0 17.228066,7.88955 17.228066,17.018843 0,9.130214 -7.13804,17.018844 -17.271752,17.018844 -10.264954,0 -17.1383,-8.19884 -17.1383,-16.619998 v -0.04321" /><path
     style="stroke-width:0.18410352;font-variation-settings:normal;opacity:1;vector-effect:none;fill:#ffffff;fill-opacity:1;stroke:#ffffff;stroke-linecap:butt;stroke-linejoin:miter;stroke-miterlimit:4;stroke-dasharray:none;stroke-dashoffset:0;stroke-opacity:1;stop-color:#000000;stop-opacity:1"
     inkscape:connector-curvature="0"
     id="path798"
     d="M 128.90756,113.39069 V 80.593115 h 11.14843 l 6.12259,21.142455 5.94822,-21.142455 h 11.19154 v 32.797575 h -7.66724 l 0.26433,-24.552942 -7.04937,24.552942 h -5.50676 l -7.04827,-24.552942 0.26304,24.552942 h -7.66651" /><path
     style="stroke-width:0.18410352;font-variation-settings:normal;opacity:1;vector-effect:none;fill:#ffffff;fill-opacity:1;stroke:#ffffff;stroke-linecap:butt;stroke-linejoin:miter;stroke-miterlimit:4;stroke-dasharray:none;stroke-dashoffset:0;stroke-opacity:1;stop-color:#000000;stop-opacity:1"
     inkscape:connector-curvature="0"
     id="path800"
     d="m 177.96172,80.591269 h 8.32621 v 32.797571 h -8.32621 V 80.591269" /></svg>
