<?xml version="1.0" encoding="UTF-8" standalone="no"?>
<svg
   xmlns:dc="http://purl.org/dc/elements/1.1/"
   xmlns:cc="http://creativecommons.org/ns#"
   xmlns:rdf="http://www.w3.org/1999/02/22-rdf-syntax-ns#"
   xmlns:svg="http://www.w3.org/2000/svg"
   xmlns="http://www.w3.org/2000/svg"
   xmlns:sodipodi="http://sodipodi.sourceforge.net/DTD/sodipodi-0.dtd"
   xmlns:inkscape="http://www.inkscape.org/namespaces/inkscape"
   sodipodi:docname="otomi_logo.svg"
   inkscape:version="1.0rc1 (09960d6, 2020-04-09)"
   id="svg398"
   version="1.1"
   viewBox="0 0 309.00217 318.05435"
   height="318.05435mm"
   width="309.00217mm">
  <defs
     id="defs392" />
  <sodipodi:namedview
     inkscape:window-maximized="0"
     inkscape:window-y="23"
     inkscape:window-x="2240"
     inkscape:window-height="1174"
     inkscape:window-width="1252"
     fit-margin-bottom="0"
     fit-margin-right="0"
     fit-margin-left="0"
     fit-margin-top="0"
     showgrid="false"
     inkscape:document-rotation="0"
     inkscape:current-layer="layer1"
     inkscape:document-units="mm"
     inkscape:cy="601.04759"
     inkscape:cx="583.94112"
     inkscape:zoom="0.35"
     inkscape:pageshadow="2"
     inkscape:pageopacity="0.0"
     borderopacity="1.0"
     bordercolor="#666666"
     pagecolor="#ffffff"
     id="base" />
  <metadata
     id="metadata395">
    <rdf:RDF>
      <cc:Work
         rdf:about="">
        <dc:format>image/svg+xml</dc:format>
        <dc:type
           rdf:resource="http://purl.org/dc/dcmitype/StillImage" />
        <dc:title></dc:title>
      </cc:Work>
    </rdf:RDF>
  </metadata>
  <g
     transform="translate(48.667755,10.860508)"
     id="layer1"
     inkscape:groupmode="layer"
     inkscape:label="Layer 1">
    <path
       d="m 125.22049,260.97389 -19.4461,-20.15109 -19.446095,20.15109 c -9.31016,9.64816 -20.83587,15.6447 -32.9018,18.00188 11.50821,17.04864 30.65559,28.21807 52.347895,28.21807 21.68886,0 40.83386,-11.16507 52.34272,-28.20852 -11.93655,-2.33357 -23.34863,-8.23894 -32.61559,-17.72296 -0.14084,-0.14147 -0.14084,-0.14147 -0.28103,-0.28847"
       style="fill:#ef3520;fill-opacity:1;fill-rule:nonzero;stroke:none;stroke-width:0.219186"
       id="path22"
       inkscape:connector-curvature="0" />
    <path
       d="m 86.328295,35.357462 19.446095,20.153082 19.4461,-20.153082 c 9.3119,-9.646166 20.83501,-15.642492 32.90331,-18.000097 -11.50972,-17.04816033 -30.65795,-28.217873 -52.34941,-28.217873 -21.688855,0 -40.833855,11.16748867 -52.342705,28.211201 11.93676,2.333138 23.34863,8.23605 32.61559,17.719852 0.14083,0.144571 0.14083,0.144571 0.28102,0.286917"
       style="fill:#f1d10a;fill-opacity:1;fill-rule:nonzero;stroke:none;stroke-width:0.219186"
       id="path24"
       inkscape:connector-curvature="0" />
    <path
       d="M 42.05351,82.554062 V 54.752105 c 0,-13.905426 4.212923,-26.789962 11.378175,-37.401412 C 33.56783,13.467315 12.246821,19.476985 -3.0792404,35.357462 l -0.07927,0.08229 C -18.494727,51.32913 -24.299808,73.281553 -20.589955,93.771372 -10.416646,86.690547 1.8490846,82.554062 15.053132,82.554062 H 42.05351"
       style="fill:#ed0b7c;fill-opacity:1;fill-rule:nonzero;stroke:none;stroke-width:0.219186"
       id="path26"
       inkscape:connector-curvature="0" />
    <path
       d="m 196.49566,213.77929 h -27.00038 v 27.80195 c 0,13.90366 -4.21292,26.78974 -11.37817,37.40408 19.86493,3.88093 41.18659,-2.12852 56.512,-18.00966 l 0.0799,-0.0825 c 15.03166,-15.57509 20.89398,-36.97659 17.63016,-57.11299 -10.16077,7.17201 -22.45351,10.80183 -35.84353,9.99914"
       style="fill:#193137;fill-opacity:1;fill-rule:nonzero;stroke:none;stroke-width:0.219186"
       id="path28"
       inkscape:connector-curvature="0" />
    <path
       d="m 169.49528,213.77929 h -37.6234 l -26.09749,27.04351 19.4461,20.15109 c 0.14019,0.147 0.14019,0.147 0.28103,0.28847 9.26696,9.48402 20.67904,15.38939 32.61559,17.72296 7.16525,-10.61434 11.37817,-23.50042 11.37817,-37.40408 v -27.80195"
       style="fill:#f1d10a;fill-opacity:1;fill-rule:nonzero;stroke:none;stroke-width:0.219186"
       id="path30"
       inkscape:connector-curvature="0" />
    <path
       d="M 42.05351,82.554062 H 79.676915 L 105.77439,55.510544 86.328295,35.357462 c -0.14019,-0.142346 -0.14019,-0.142346 -0.28102,-0.286917 C 76.780315,25.586743 65.368445,19.683831 53.431685,17.350693 46.266433,27.962143 42.05351,40.846679 42.05351,54.752105 v 27.801957"
       style="fill:#ef3520;fill-opacity:1;fill-rule:nonzero;stroke:none;stroke-width:0.219186"
       id="path32"
       inkscape:connector-curvature="0" />
    <path
       d="m 169.49528,82.554062 h 27.00038 c 12.97962,0 25.35227,4.014824 35.69666,10.88435 3.58997,-20.392621 -2.23131,-42.196026 -17.48329,-57.998657 l -0.0799,-0.08229 c -0.14256,-0.146794 -0.14256,-0.146794 -0.2808,-0.28914 -15.3211,-15.675856 -36.49803,-21.563197 -56.22451,-17.710957 7.16115,10.609226 11.37148,23.49154 11.37148,37.39474 v 27.801954"
       style="fill:#64ccd5;fill-opacity:1;fill-rule:nonzero;stroke:none;stroke-width:0.219186"
       id="path34"
       inkscape:connector-curvature="0" />
    <path
       d="M 42.05351,213.77929 H 15.053132 c -13.2040474,0 -25.469778,-4.13738 -35.643087,-11.21821 -3.709853,20.48849 2.095228,42.44336 17.4314426,58.33206 l 0.07927,0.0825 c 0.13997,0.14679 0.13997,0.14679 0.280805,0.28938 15.3202304,15.67584 36.4960834,21.56296 56.2249324,17.71073 -7.162657,-10.6108 -11.372987,-23.49355 -11.372987,-37.39453 v -27.80193"
       style="fill:#292c57;fill-opacity:1;fill-rule:nonzero;stroke:none;stroke-width:0.219186"
       id="path36"
       inkscape:connector-curvature="0" />
    <path
       d="m 105.77439,55.510544 26.09749,27.043518 h 37.6234 V 54.752105 c 0,-13.9032 -4.21033,-26.785514 -11.37148,-37.39474 -12.0683,2.357605 -23.59141,8.353931 -32.90331,18.000097 l -19.4461,20.153082"
       style="fill:#292c57;fill-opacity:1;fill-rule:nonzero;stroke:none;stroke-width:0.219186"
       id="path38"
       inkscape:connector-curvature="0" />
    <path
       d="M 105.77439,240.8228 79.676915,213.77929 H 42.05351 v 27.80195 c 0,13.90098 4.21033,26.78373 11.372985,37.39453 12.06593,-2.35718 23.59164,-8.35372 32.9018,-18.00188 L 105.77439,240.8228"
       style="fill:#193137;fill-opacity:1;fill-rule:nonzero;stroke:none;stroke-width:0.219186"
       id="path40"
       inkscape:connector-curvature="0" />
    <path
       d="M 105.77439,55.510544 79.676915,82.554062 h 52.194965 z"
       style="fill:#ed0b7c;fill-opacity:1;fill-rule:nonzero;stroke:none;stroke-width:0.219186"
       id="path42"
       inkscape:connector-curvature="0" />
    <path
       d="m 105.77439,240.8228 26.09749,-27.04351 H 79.676915 Z"
       style="fill:#292c57;fill-opacity:1;fill-rule:nonzero;stroke:none;stroke-width:0.219186"
       id="path44"
       inkscape:connector-curvature="0" />
    <path
       d="M 16.361031,148.16756 -3.1611044,127.9373 c -9.3607066,-9.70021 -15.1649246,-21.6595 -17.4288506,-34.165928 -16.940145,11.791358 -28.0778,31.754948 -28.0778,54.396188 0,22.63858 11.137655,42.60216 28.0778,54.39352 2.263926,-12.50376 8.068144,-24.46571 17.4288506,-34.16593 L 16.361031,148.16756"
       style="fill:#f1d10a;fill-opacity:1;fill-rule:nonzero;stroke:none;stroke-width:0.219186"
       id="path46"
       inkscape:connector-curvature="0" />
    <path
       d="m 232.19232,93.438412 c -2.22052,12.626538 -8.03963,24.714378 -17.48113,34.498888 l -19.52235,20.23026 19.52235,20.22759 c 9.66182,10.0156 15.52631,22.43974 17.628,35.385 15.71424,-11.09031 26.3135,-30.67601 27.87734,-55.61259 1.43211,-22.8254 -10.31629,-42.96959 -28.02421,-54.729148"
       style="fill:#ef3520;fill-opacity:1;fill-rule:nonzero;stroke:none;stroke-width:0.219186"
       id="path48"
       inkscape:connector-curvature="0" />
    <path
       d="m 195.18884,148.16756 -25.69356,26.62471 v 38.98702 h 27.00038 c 13.39002,0.80269 25.68276,-2.82713 35.84353,-9.99914 -2.10169,-12.94526 -7.96618,-25.3694 -17.628,-35.385 l -19.52235,-20.22759"
       style="fill:#292c57;fill-opacity:1;fill-rule:nonzero;stroke:none;stroke-width:0.219186"
       id="path50"
       inkscape:connector-curvature="0" />
    <path
       d="M 16.361031,148.16756 42.05351,121.54285 V 82.554062 H 15.053132 c -13.2040474,0 -25.469778,4.136485 -35.643087,11.21731 2.263926,12.506428 8.068144,24.465718 17.4288506,34.165928 l 19.5221354,20.23026"
       style="fill:#193137;fill-opacity:1;fill-rule:nonzero;stroke:none;stroke-width:0.219186"
       id="path52"
       inkscape:connector-curvature="0" />
    <path
       d="M 42.05351,82.554062 V 121.54285 L 79.676915,82.554062 Z"
       style="fill:#64ccd5;fill-opacity:1;fill-rule:nonzero;stroke:none;stroke-width:0.219186"
       id="path54"
       inkscape:connector-curvature="0" />
    <path
       d="m 169.49528,213.77929 v -38.98702 l -37.6234,38.98702 z"
       style="fill:#193137;fill-opacity:1;fill-rule:nonzero;stroke:none;stroke-width:0.219186"
       id="path56"
       inkscape:connector-curvature="0" />
    <path
       d="M 42.05351,213.77929 V 174.79227 L 16.361031,148.16756 -3.1611044,168.39515 c -9.3607066,9.70022 -15.1649246,21.66217 -17.4288506,34.16593 10.173309,7.08083 22.4390396,11.21821 35.643087,11.21821 H 42.05351"
       style="fill:#64ccd5;fill-opacity:1;fill-rule:nonzero;stroke:none;stroke-width:0.219186"
       id="path58"
       inkscape:connector-curvature="0" />
    <path
       d="m 169.49528,82.554062 v 38.988788 l 25.69356,26.62471 19.52235,-20.23026 c 9.4415,-9.78451 15.26061,-21.87235 17.48113,-34.498888 -10.34439,-6.869526 -22.71704,-10.88435 -35.69666,-10.88435 h -27.00038"
       style="fill:#193137;fill-opacity:1;fill-rule:nonzero;stroke:none;stroke-width:0.219186"
       id="path60"
       inkscape:connector-curvature="0" />
    <path
       d="M 42.05351,213.77929 H 79.676915 L 42.05351,174.79227 Z"
       style="fill:#f1d10a;fill-opacity:1;fill-rule:nonzero;stroke:none;stroke-width:0.219186"
       id="path62"
       inkscape:connector-curvature="0" />
    <path
       d="m 169.49528,82.554062 h -37.6234 l 37.6234,38.988788 z"
       style="fill:#ef3520;fill-opacity:1;fill-rule:nonzero;stroke:none;stroke-width:0.219186"
       id="path64"
       inkscape:connector-curvature="0" />
    <path
       d="m 169.49528,174.79227 25.69356,-26.62471 -25.69356,-26.62471 z"
       style="fill:#64ccd5;fill-opacity:1;fill-rule:nonzero;stroke:none;stroke-width:0.219186"
       id="path66"
       inkscape:connector-curvature="0" />
    <path
       d="M 16.361031,148.16756 42.05351,174.79227 V 121.54285 Z"
       style="fill:#ef3520;fill-opacity:1;fill-rule:nonzero;stroke:none;stroke-width:0.219186"
       id="path68"
       inkscape:connector-curvature="0" />
    <path
       d="M 131.87188,82.554062 H 79.676915 L 42.05351,121.54285 v 53.24942 l 37.623405,38.98702 h 52.194965 l 37.6234,-38.98702 v -53.24942 l -37.6234,-38.988788"
       style="fill:#585a5c;fill-opacity:1;fill-rule:nonzero;stroke:none;stroke-width:0.219186"
       id="path70"
       inkscape:connector-curvature="0" />
    <path
       d="m 42.075542,210.44394 c 1.802114,0 3.26359,1.51354 3.26359,3.38228 0,1.87051 -1.461476,3.38316 -3.26359,3.38316 -1.801466,0 -3.262078,-1.51265 -3.262078,-3.38316 0,-1.86874 1.460612,-3.38228 3.262078,-3.38228"
       style="fill:#ffffff;fill-opacity:1;fill-rule:evenodd;stroke:none;stroke-width:0.219186"
       id="path72"
       inkscape:connector-curvature="0" />
    <path
       d="m 42.075542,79.217827 c 1.802114,0 3.26359,1.51465 3.26359,3.382941 0,1.870515 -1.461476,3.384275 -3.26359,3.384275 -1.801466,0 -3.262078,-1.51376 -3.262078,-3.384275 0,-1.868291 1.460612,-3.382941 3.262078,-3.382941"
       style="fill:#ffffff;fill-opacity:1;fill-rule:evenodd;stroke:none;stroke-width:0.219186"
       id="path74"
       inkscape:connector-curvature="0" />
    <path
       d="m 105.77439,51.306886 c 2.38619,0 4.32006,1.990622 4.32006,4.448316 0,2.455468 -1.93387,4.448312 -4.32006,4.448312 -2.38618,0 -4.32006,-1.992844 -4.32006,-4.448312 0,-2.457694 1.93388,-4.448316 4.32006,-4.448316"
       style="fill:#ffffff;fill-opacity:1;fill-rule:evenodd;stroke:none;stroke-width:0.219186"
       id="path76"
       inkscape:connector-curvature="0" />
    <path
       d="m 105.77439,237.13293 c 2.38619,0 4.32006,1.99306 4.32006,4.44831 0,2.45792 -1.93387,4.44831 -4.32006,4.44831 -2.38618,0 -4.32006,-1.99039 -4.32006,-4.44831 0,-2.45525 1.93388,-4.44831 4.32006,-4.44831"
       style="fill:#ffffff;fill-opacity:1;fill-rule:evenodd;stroke:none;stroke-width:0.219186"
       id="path78"
       inkscape:connector-curvature="0" />
    <path
       d="m 169.51904,210.44394 c 1.80146,0 3.26165,1.51354 3.26165,3.38228 0,1.87051 -1.46019,3.38316 -3.26165,3.38316 -1.80362,0 -3.26381,-1.51265 -3.26381,-3.38316 0,-1.86874 1.46019,-3.38228 3.26381,-3.38228"
       style="fill:#ffffff;fill-opacity:1;fill-rule:evenodd;stroke:none;stroke-width:0.219186"
       id="path80"
       inkscape:connector-curvature="0" />
    <path
       d="m 169.51904,79.217827 c 1.80146,0 3.26165,1.51465 3.26165,3.382941 0,1.870515 -1.46019,3.384275 -3.26165,3.384275 -1.80362,0 -3.26381,-1.51376 -3.26381,-3.384275 0,-1.868291 1.46019,-3.382941 3.26381,-3.382941"
       style="fill:#ffffff;fill-opacity:1;fill-rule:evenodd;stroke:none;stroke-width:0.219186"
       id="path82"
       inkscape:connector-curvature="0" />
    <path
       d="m 5.3988776,148.47427 c 0,6.03125 3.991737,11.68884 10.5765874,11.68884 6.946659,0 10.316522,-6.51167 10.316522,-11.58297 0,-5.12601 -3.369863,-11.69239 -10.420419,-11.69239 -6.7922144,0 -10.4726904,5.98009 -10.4726904,11.53181 z m -9.799407,0.47953 c 0,-12.91923 9.644102,-20.92798 20.2198264,-20.92798 11.820332,0 20.272097,9.50316 20.272097,20.49961 0,10.99756 -8.399494,20.4996 -20.324371,20.4996 -12.0793224,0 -20.1675524,-9.8757 -20.1675524,-20.01918 v -0.052"
       style="fill:#ffffff;fill-opacity:1;fill-rule:nonzero;stroke:none;stroke-width:0.219186"
       id="path84"
       inkscape:connector-curvature="0" />
    <path
       d="M 54.541935,137.63485 H 46.97341 v -8.86171 h 24.885925 v 8.86171 h -7.51777 v 30.64398 h -9.79963 v -30.64398"
       style="fill:#ffffff;fill-opacity:1;fill-rule:nonzero;stroke:none;stroke-width:0.219186"
       id="path86"
       inkscape:connector-curvature="0" />
    <path
       d="m 92.490215,148.47427 c 0,6.03125 3.99173,11.68884 10.576575,11.68884 6.94753,0 10.31825,-6.51167 10.31825,-11.58297 0,-5.12601 -3.37072,-11.69239 -10.42128,-11.69239 -6.792205,0 -10.473545,5.98009 -10.473545,11.53181 z m -9.79855,0.47953 c 0,-12.91923 9.64324,-20.92798 20.218955,-20.92798 11.82293,0 20.27318,9.50316 20.27318,20.49961 0,10.99756 -8.39971,20.4996 -20.32458,20.4996 -12.079315,0 -20.167555,-9.8757 -20.167555,-20.01918 v -0.052"
       style="fill:#ffffff;fill-opacity:1;fill-rule:nonzero;stroke:none;stroke-width:0.219186"
       id="path88"
       inkscape:connector-curvature="0" />
    <path
       d="m 140.73556,168.27883 v -39.50569 h 13.11894 l 7.20478,25.4657 6.99958,-25.4657 h 13.1697 v 39.50569 h -9.02244 l 0.31104,-29.57528 -8.29538,29.57528 h -6.48009 l -8.29408,-29.57528 0.30953,29.57528 h -9.02158"
       style="fill:#ffffff;fill-opacity:1;fill-rule:nonzero;stroke:none;stroke-width:0.219186"
       id="path90"
       inkscape:connector-curvature="0" />
    <path
       d="m 198.45264,128.77314 h 9.7979 v 39.50569 h -9.7979 v -39.50569"
       style="fill:#ffffff;fill-opacity:1;fill-rule:nonzero;stroke:none;stroke-width:0.219186"
       id="path92"
       inkscape:connector-curvature="0" />
  </g>
</svg>
