<?xml version="1.0" encoding="UTF-8" standalone="no"?>
<svg
   xmlns:dc="http://purl.org/dc/elements/1.1/"
   xmlns:cc="http://creativecommons.org/ns#"
   xmlns:rdf="http://www.w3.org/1999/02/22-rdf-syntax-ns#"
   xmlns:svg="http://www.w3.org/2000/svg"
   xmlns="http://www.w3.org/2000/svg"
   xmlns:sodipodi="http://sodipodi.sourceforge.net/DTD/sodipodi-0.dtd"
   xmlns:inkscape="http://www.inkscape.org/namespaces/inkscape"
   inkscape:version="1.0rc1 (09960d6, 2020-04-09)"
   sodipodi:docname="otomi_logo-ce.svg"
   id="svg808"
   xml:space="preserve"
   viewBox="0 0 194.73898 194.66324"
   version="1.1"
   height="194.66324"
   width="194.73898"><defs
     id="defs812" /><sodipodi:namedview
     inkscape:current-layer="svg808"
     inkscape:window-maximized="0"
     inkscape:window-y="23"
     inkscape:window-x="0"
     inkscape:cy="97.328232"
     inkscape:cx="98.000133"
     inkscape:zoom="1.6468244"
     fit-margin-bottom="2"
     fit-margin-right="2"
     fit-margin-left="2"
     fit-margin-top="2"
     lock-margins="true"
     showgrid="false"
     id="namedview810"
     inkscape:window-height="1075"
     inkscape:window-width="1792"
     inkscape:pageshadow="2"
     inkscape:pageopacity="0"
     guidetolerance="10"
     gridtolerance="10"
     objecttolerance="10"
     borderopacity="1"
     bordercolor="#666666"
     pagecolor="#ffffff" /><metadata
     id="metadata724"><rdf:RDF><cc:Work
         rdf:about=""><dc:format>image/svg+xml</dc:format><dc:type
           rdf:resource="http://purl.org/dc/dcmitype/StillImage" /><dc:title></dc:title></cc:Work></rdf:RDF></metadata><g
     id="g806"
     transform="matrix(1.3333,0,0,-1.3333,2.0001333,192.66323)"><g
       id="g804"
       transform="scale(0.1)"><g
         id="g776"><path
           inkscape:connector-curvature="0"
           id="path726"
           fill="#ef3520"
           d="M 805.04,207.81 715.001,298.399 624.962,207.81 C 581.88,164.411 528.521,137.462 472.662,126.88 525.943,50.232 614.572,0 715.002,0 c 100.39,0 189.06,50.199 242.3,126.84 -55.231,10.461 -108.08,37.031 -150.97,79.68 -0.668,0.628 -0.668,0.628 -1.289,1.289" /><path
           inkscape:connector-curvature="0"
           id="path728"
           fill="#f1d10a"
           d="m 624.96,1222.2 90.039,-90.59 90.039,90.59 c 43.082,43.4 96.441,70.35 152.3,80.93 -53.281,76.65 -141.91,126.88 -242.34,126.88 -100.39,0 -189.06,-50.2 -242.3,-126.84 55.231,-10.5 108.08,-37.03 150.97,-79.68 0.668,-0.63 0.668,-0.63 1.289,-1.29" /><path
           inkscape:connector-curvature="0"
           id="path730"
           fill="#ed0b7c"
           d="m 420,1010 v 125 c 0,62.54 19.488,120.47 52.699,168.16 -92,17.46 -190.71,-9.57 -261.65,-80.97 l -0.352,-0.35 c -71.008,-71.45 -97.89,-170.16 -80.699,-262.27 47.07,31.84 103.87,50.43 165,50.43 h 125" /><path
           inkscape:connector-curvature="0"
           id="path732"
           fill="#193137"
           d="M 1135,420 H 1010 V 295 c 0,-62.5 -19.488,-120.43 -52.699,-168.16 91.999,-17.461 190.71,9.57 261.65,80.969 l 0.39,0.351 c 69.57,70.039 96.71,166.25 81.6,256.8 -47.03,-32.262 -103.95,-48.551 -165.94,-44.961" /><path
           inkscape:connector-curvature="0"
           id="path734"
           fill="#f1d10a"
           d="M 1010,420 H 835.82 L 715,298.4 805.039,207.811 c 0.621,-0.661 0.621,-0.661 1.289,-1.289 42.891,-42.649 95.742,-69.219 150.97,-79.68 33.211,47.73 52.699,105.66 52.699,168.16 v 125" /><path
           inkscape:connector-curvature="0"
           id="path736"
           fill="#ef3520"
           d="m 420,1010 h 174.18 l 120.82,121.6 -90.039,90.59 c -0.621,0.66 -0.621,0.66 -1.289,1.29 -42.891,42.65 -95.742,69.18 -150.97,79.68 -33.211,-47.69 -52.699,-105.62 -52.699,-168.16 v -125" /><path
           inkscape:connector-curvature="0"
           id="path738"
           fill="#64ccd5"
           d="m 1010,1010 h 125 c 60.08,0 117.38,-18.051 165.27,-48.949 16.61,91.679 -10.35,189.73 -80.93,260.79 l -0.39,0.35 c -0.67,0.66 -0.67,0.66 -1.29,1.33 -70.94,70.46 -168.99,96.95 -260.32,79.6 33.172,-47.69 52.66,-105.62 52.66,-168.12 v -125" /><path
           inkscape:connector-curvature="0"
           id="path740"
           fill="#292c57"
           d="M 420,420 H 295 c -61.129,0 -117.93,18.59 -165,50.43 -17.191,-92.11 9.691,-190.82 80.699,-262.27 l 0.352,-0.351 c 0.668,-0.661 0.668,-0.661 1.289,-1.329 70.941,-70.46 168.99,-96.91 260.32,-79.601 C 439.488,174.57 420,232.499 420,294.999 v 125" /><path
           inkscape:connector-curvature="0"
           id="path742"
           fill="#292c57"
           d="M 715,1131.6 835.82,1010 H 1010 v 125 c 0,62.5 -19.488,120.43 -52.66,168.12 -55.86,-10.58 -109.22,-37.53 -152.3,-80.93 l -90.039,-90.59" /><path
           inkscape:connector-curvature="0"
           id="path744"
           fill="#193137"
           d="M 715,298.4 594.18,420 H 420 V 295 c 0,-62.5 19.488,-120.43 52.66,-168.12 55.86,10.582 109.22,37.531 152.3,80.93 l 90.039,90.589" /><path
           inkscape:connector-curvature="0"
           id="path746"
           fill="#ed0b7c"
           d="M 715,1131.6 594.18,1010 h 241.64 z" /><path
           inkscape:connector-curvature="0"
           id="path748"
           fill="#292c57"
           d="M 715,298.4 835.82,420 H 594.18 Z" /><path
           inkscape:connector-curvature="0"
           id="path750"
           fill="#f1d10a"
           d="m 301.05,715 -90.391,90.941 c -43.32,43.629 -70.191,97.379 -80.66,153.63 -78.441,-53.011 -130,-142.77 -130,-244.57 0,-101.8 51.559,-191.56 130,-244.57 10.469,56.211 37.34,110 80.66,153.63 l 90.391,90.941" /><path
           inkscape:connector-curvature="0"
           id="path752"
           fill="#ef3520"
           d="m 1300.3,961.05 c -10.31,-56.75 -37.22,-111.09 -80.93,-155.11 l -90.39,-90.941 90.39,-90.941 c 44.72,-45.039 71.87,-100.9 81.6,-159.1 72.73,49.84 121.83,137.93 129.06,250.04 6.64,102.62 -47.77,193.2 -129.73,246.05" /><path
           inkscape:connector-curvature="0"
           id="path754"
           fill="#292c57"
           d="M 1129,715 1010.05,595.27 V 420 h 125 c 61.99,-3.59 118.91,12.699 165.94,44.961 -9.73,58.199 -36.88,114.06 -81.6,159.1 L 1129,715.002" /><path
           inkscape:connector-curvature="0"
           id="path756"
           fill="#193137"
           d="M 301.05,715 420,834.69 V 1010 H 295 c -61.129,0 -117.93,-18.59 -165,-50.43 10.469,-56.25 37.34,-110 80.66,-153.63 l 90.391,-90.941" /><path
           inkscape:connector-curvature="0"
           id="path758"
           fill="#64ccd5"
           d="M 420,1010 V 834.69 L 594.18,1010 Z" /><path
           inkscape:connector-curvature="0"
           id="path760"
           fill="#193137"
           d="M 1010,420 V 595.27 L 835.82,420 Z" /><path
           inkscape:connector-curvature="0"
           id="path762"
           fill="#64ccd5"
           d="M 420,420 V 595.27 L 301.05,715 210.659,624.059 c -43.32,-43.629 -70.191,-97.418 -80.66,-153.63 47.07,-31.84 103.87,-50.43 165,-50.43 h 125" /><path
           inkscape:connector-curvature="0"
           id="path764"
           fill="#193137"
           d="M 1010,1010 V 834.69 L 1128.95,715 l 90.39,90.941 c 43.71,44.02 70.62,98.36 80.93,155.11 C 1252.38,991.949 1195.08,1010 1135,1010 h -125" /><path
           inkscape:connector-curvature="0"
           id="path766"
           fill="#f1d10a"
           d="M 420,420 H 594.18 L 420,595.27 Z" /><path
           inkscape:connector-curvature="0"
           id="path768"
           fill="#ef3520"
           d="M 1010,1010 H 835.82 L 1010,834.69 Z" /><path
           inkscape:connector-curvature="0"
           id="path770"
           fill="#64ccd5"
           d="M 1010,595.27 1128.95,715 1010,834.691 Z" /><path
           inkscape:connector-curvature="0"
           id="path772"
           fill="#ef3520"
           d="M 301.05,715 420,595.27 v 239.42 z" /><path
           inkscape:connector-curvature="0"
           id="path774"
           fill="#585a5c"
           d="M 835.82,1010 H 594.18 L 420,834.69 V 595.27 L 594.18,420 H 835.82 L 1010,595.27 V 834.69 L 835.82,1010" /></g><g
         id="g790"
         fill-rule="evenodd"
         fill="#ffffff"><path
           inkscape:connector-curvature="0"
           id="path778"
           d="m 420.12,435 c 8.32,0 15.078,-6.801 15.078,-15.199 0,-8.43 -6.758,-15.231 -15.078,-15.231 -8.359,0 -15.121,6.801 -15.121,15.231 0,8.398 6.762,15.199 15.121,15.199" /><path
           inkscape:connector-curvature="0"
           id="path780"
           d="m 420.12,1025 c 8.32,0 15.078,-6.8 15.078,-15.2 0,-8.43 -6.758,-15.23 -15.078,-15.23 -8.359,0 -15.121,6.8 -15.121,15.23 0,8.4 6.762,15.2 15.121,15.2" /><path
           inkscape:connector-curvature="0"
           id="path782"
           d="m 715,1150.5 c 11.051,0 20,-8.99 20,-20 0,-11.06 -8.949,-20 -20,-20 -11.051,0 -20,8.94 -20,20 0,11.01 8.949,20 20,20" /><path
           inkscape:connector-curvature="0"
           id="path784"
           d="m 715,315 c 11.051,0 20,-8.949 20,-20 0,-11.051 -8.949,-20 -20,-20 -11.051,0 -20,8.949 -20,20 0,11.051 8.949,20 20,20" /><path
           inkscape:connector-curvature="0"
           id="path786"
           d="m 1010.1,435 c 8.32,0 15.08,-6.801 15.08,-15.199 0,-8.43 -6.76,-15.231 -15.08,-15.231 -8.36,0 -15.12,6.801 -15.12,15.231 0,8.398 6.76,15.199 15.12,15.199" /><path
           inkscape:connector-curvature="0"
           id="path788"
           d="m 1010.1,1025 c 8.32,0 15.08,-6.8 15.08,-15.2 0,-8.43 -6.76,-15.23 -15.08,-15.23 -8.36,0 -15.12,6.8 -15.12,15.23 0,8.4 6.76,15.2 15.12,15.2" /></g><g
         id="g802"
         stroke="#ffffff"
         fill="#ffffff"
         transform="matrix(1.4236,0,0,1.5694,-288.71,-403.32)"><path
           inkscape:connector-curvature="0"
           id="path792"
           d="m 250.3,713.62 c 0,-27.117 18.48,-52.554 48.965,-52.554 32.16,0 47.761,29.277 47.761,52.078 0,23.047 -15.601,52.57 -48.242,52.57 -31.445,0 -48.484,-26.887 -48.484,-51.848 z m -45.367,-2.156 c 0,58.086 44.648,94.094 93.609,94.094 54.723,0 93.851,-42.727 93.851,-92.168 0,-49.446 -38.886,-92.168 -94.093,-92.168 -55.922,0 -93.367,44.402 -93.367,90.008 v 0.234" /><path
           inkscape:connector-curvature="0"
           id="path794"
           d="m 477.82,762.35 h -35.039 v 39.843 h 115.21 V 762.35 H 523.187 V 624.57 h -45.368 v 137.78" /><path
           inkscape:connector-curvature="0"
           id="path796"
           d="m 653.5,713.62 c 0,-27.117 18.48,-52.554 48.965,-52.554 32.164,0 47.769,29.277 47.769,52.078 0,23.047 -15.605,52.57 -48.246,52.57 -31.445,0 -48.488,-26.887 -48.488,-51.848 z m -45.363,-2.156 c 0,58.086 44.644,94.094 93.605,94.094 54.735,0 93.856,-42.727 93.856,-92.168 0,-49.446 -38.887,-92.168 -94.094,-92.168 -55.922,0 -93.367,44.402 -93.367,90.008 v 0.234" /><path
           inkscape:connector-curvature="0"
           id="path798"
           d="m 876.86,624.57 v 177.62 h 60.735 l 33.355,-114.5 32.405,114.5 h 60.97 V 624.57 h -41.77 l 1.44,132.97 -38.404,-132.97 h -30 l -38.398,132.97 1.433,-132.97 H 876.86" /><path
           inkscape:connector-curvature="0"
           id="path800"
           d="m 1144.1,802.2 h 45.36 V 624.58 H 1144.1 V 802.2" /></g></g></g></svg>
