<?xml version="1.0" encoding="UTF-8" standalone="no"?>
<svg
   xmlns:dc="http://purl.org/dc/elements/1.1/"
   xmlns:cc="http://creativecommons.org/ns#"
   xmlns:rdf="http://www.w3.org/1999/02/22-rdf-syntax-ns#"
   xmlns:svg="http://www.w3.org/2000/svg"
   xmlns="http://www.w3.org/2000/svg"
   xmlns:sodipodi="http://sodipodi.sourceforge.net/DTD/sodipodi-0.dtd"
   xmlns:inkscape="http://www.inkscape.org/namespaces/inkscape"
   inkscape:version="1.0rc1 (09960d6, 2020-04-09)"
   sodipodi:docname="otomi_logo-ee.svg"
   id="svg700"
   xml:space="preserve"
   viewBox="0 0 197.40612 197.32823"
   version="1.1"
   height="197.32823"
   width="197.40611"><defs
     id="defs704" /><sodipodi:namedview
     inkscape:current-layer="svg700"
     inkscape:window-maximized="0"
     inkscape:window-y="23"
     inkscape:window-x="0"
     inkscape:cy="98.660199"
     inkscape:cx="98.697898"
     inkscape:zoom="1.6468244"
     lock-margins="true"
     fit-margin-bottom="2"
     fit-margin-right="2"
     fit-margin-left="2"
     fit-margin-top="2"
     showgrid="false"
     id="namedview702"
     inkscape:window-height="1075"
     inkscape:window-width="1792"
     inkscape:pageshadow="2"
     inkscape:pageopacity="0"
     guidetolerance="10"
     gridtolerance="10"
     objecttolerance="10"
     borderopacity="1"
     bordercolor="#666666"
     pagecolor="#ffffff" /><metadata
     id="metadata616"><rdf:RDF><cc:Work
         rdf:about=""><dc:format>image/svg+xml</dc:format><dc:type
           rdf:resource="http://purl.org/dc/dcmitype/StillImage" /><dc:title></dc:title></cc:Work></rdf:RDF></metadata><g
     id="g698"
     transform="matrix(1.3333,0,0,-1.3333,3.3329,193.9952)"><g
       id="g696"
       transform="scale(0.1)"><g
         id="g668"
         stroke-width="20"
         stroke="#f1c400"
         fill="none"><path
           inkscape:connector-curvature="0"
           id="path618"
           d="M 805.03,207.81 715.003,298.411 624.976,207.81 C 581.874,164.431 528.515,137.47 472.656,126.872 525.934,50.22 614.576,0.002 715.006,0.002 c 100.41,0 189.04,50.199 242.32,126.83 -55.261,10.492 -108.09,37.043 -151,79.684 -0.652,0.636 -0.652,0.636 -1.301,1.297" /><path
           inkscape:connector-curvature="0"
           id="path620"
           d="m 624.97,1222.2 90.027,-90.61 90.027,90.61 c 43.11,43.37 96.457,70.33 152.33,80.93 -53.285,76.65 -141.93,126.87 -242.36,126.87 -100.41,0 -189.04,-50.21 -242.32,-126.84 55.262,-10.49 108.09,-37.03 151,-79.67 0.652,-0.65 0.652,-0.65 1.301,-1.29" /><path
           inkscape:connector-curvature="0"
           id="path622"
           d="m 420,1010 v 125 c 0,62.52 19.504,120.45 52.676,168.16 -91.961,17.46 -190.67,-9.56 -261.62,-80.96 l -0.367,-0.37 c -71,-71.44 -97.875,-170.14 -80.7,-262.26 47.098,31.836 103.88,50.434 165.01,50.434 h 125" /><path
           inkscape:connector-curvature="0"
           id="path624"
           d="M 1135,420 H 1010 V 295 c 0,-62.512 -19.504,-120.45 -52.676,-168.17 91.966,-17.449 190.68,9.57 261.63,80.973 l 0.37,0.371 c 69.59,70.027 96.73,166.25 81.62,256.78 -47.04,-32.246 -103.95,-48.566 -165.94,-44.957" /><path
           inkscape:connector-curvature="0"
           id="path626"
           d="M 1010,420 H 835.82 L 715,298.41 805.027,207.809 c 0.649,-0.661 0.649,-0.661 1.301,-1.297 42.902,-42.641 95.735,-69.192 151,-79.684 33.172,47.723 52.676,105.66 52.676,168.17 v 125" /><path
           inkscape:connector-curvature="0"
           id="path628"
           d="M 420,1010 H 594.18 L 715,1131.59 624.973,1222.2 c -0.649,0.64 -0.649,0.64 -1.301,1.29 -42.902,42.64 -95.734,69.18 -151,79.67 C 439.5,1255.45 419.996,1197.52 419.996,1135 v -125" /><path
           inkscape:connector-curvature="0"
           id="path630"
           d="m 1010,1010 h 125 c 60.09,0 117.37,-18.051 165.26,-48.937 16.62,91.687 -10.33,189.72 -80.94,260.77 l -1.67,1.67 c -70.93,70.48 -168.97,96.95 -260.3,79.63 33.153,-47.7 52.645,-105.62 52.645,-168.13 v -125" /><path
           inkscape:connector-curvature="0"
           id="path632"
           d="M 420,420 H 295 c -61.129,0 -117.91,18.602 -165.01,50.438 -17.175,-92.118 9.7,-190.83 80.7,-262.27 l 0.367,-0.371 c 0.648,-0.66 0.648,-0.66 1.3,-1.301 70.926,-70.48 168.96,-96.949 260.3,-79.629 -33.16,47.707 -52.652,105.63 -52.652,168.13 v 125" /><path
           inkscape:connector-curvature="0"
           id="path634"
           d="M 715,1131.6 835.82,1010.01 H 1010 v 125 c 0,62.51 -19.492,120.43 -52.645,168.13 -55.871,-10.6 -109.22,-37.56 -152.33,-80.93 l -90.027,-90.61" /><path
           inkscape:connector-curvature="0"
           id="path636"
           d="M 715,298.41 594.18,420 H 420 V 295 c 0,-62.5 19.492,-120.42 52.652,-168.13 55.86,10.598 109.22,37.559 152.32,80.938 l 90.027,90.601" /><path
           inkscape:connector-curvature="0"
           id="path638"
           d="M 715,1131.6 594.18,1010.01 h 241.64 z" /><path
           inkscape:connector-curvature="0"
           id="path640"
           d="M 715,298.41 835.82,420 H 594.18 Z" /><path
           inkscape:connector-curvature="0"
           id="path642"
           d="m 301.06,715 -90.379,90.957 C 167.345,849.57 140.474,903.34 129.993,959.567 51.567,906.552 0.003,816.797 0.003,714.997 c 0,-101.78 51.562,-191.54 129.99,-244.56 10.481,56.218 37.352,110 80.688,153.61 l 90.379,90.945" /><path
           inkscape:connector-curvature="0"
           id="path644"
           d="m 1300.3,961.06 c -10.28,-56.77 -37.22,-111.12 -80.93,-155.11 l -90.38,-90.957 90.38,-90.945 c 44.73,-45.031 71.88,-100.89 81.61,-159.09 72.75,49.863 121.82,137.92 129.06,250.04 6.63,102.62 -47.76,193.2 -129.74,246.07" /><path
           inkscape:connector-curvature="0"
           id="path646"
           d="M 1129,715 1010.05,595.29 V 420 h 125 c 61.99,-3.609 118.9,12.711 165.94,44.957 -9.73,58.203 -36.88,114.06 -81.61,159.09 L 1129,714.992" /><path
           inkscape:connector-curvature="0"
           id="path648"
           d="M 301.06,715 420,834.71 v 175.3 H 295 c -61.129,0 -117.91,-18.598 -165.01,-50.434 10.481,-56.23 37.352,-110 80.688,-153.61 l 90.379,-90.957" /><path
           inkscape:connector-curvature="0"
           id="path650"
           d="M 420,1010 V 834.7 L 594.18,1010 Z" /><path
           inkscape:connector-curvature="0"
           id="path652"
           d="M 1010,420 V 595.29 L 835.82,420 Z" /><path
           inkscape:connector-curvature="0"
           id="path654"
           d="M 420,420 V 595.29 L 301.06,715 210.681,624.055 c -43.336,-43.613 -70.207,-97.395 -80.688,-153.61 47.098,-31.836 103.88,-50.438 165.01,-50.438 h 125" /><path
           inkscape:connector-curvature="0"
           id="path656"
           d="M 1010,1010 V 834.7 l 118.95,-119.71 90.38,90.957 c 43.71,43.992 70.65,98.34 80.93,155.11 -47.89,30.886 -105.17,48.937 -165.26,48.937 h -125" /><path
           inkscape:connector-curvature="0"
           id="path658"
           d="M 420,420 H 594.18 L 420,595.29 Z" /><path
           inkscape:connector-curvature="0"
           id="path660"
           d="M 1010,1010 H 835.82 L 1010,834.7 Z" /><path
           inkscape:connector-curvature="0"
           id="path662"
           d="M 1010,595.29 1128.95,715 1010,834.71 Z" /><path
           inkscape:connector-curvature="0"
           id="path664"
           d="M 301.06,715 420,595.29 V 834.7 Z" /><path
           inkscape:connector-curvature="0"
           id="path666"
           d="M 835.82,1010 H 594.18 L 420,834.7 V 595.29 L 594.18,420 H 835.82 L 1010,595.29 V 834.7 L 835.82,1010" /></g><g
         id="g682"
         stroke-width="20"
         stroke="#f1c400"
         fill-rule="evenodd"
         fill="#ffffff"><path
           inkscape:connector-curvature="0"
           id="path670"
           d="m 420.1,435 c 8.343,0 15.109,-6.805 15.109,-15.207 0,-8.41 -6.766,-15.211 -15.109,-15.211 -8.34,0 -15.102,6.801 -15.102,15.211 0,8.402 6.762,15.207 15.102,15.207" /><path
           inkscape:connector-curvature="0"
           id="path672"
           d="m 420.1,1025 c 8.343,0 15.109,-6.81 15.109,-15.21 0,-8.41 -6.766,-15.216 -15.109,-15.216 -8.34,0 -15.102,6.806 -15.102,15.216 0,8.4 6.762,15.21 15.102,15.21" /><path
           inkscape:connector-curvature="0"
           id="path674"
           d="m 715,1150.5 c 11.047,0 20,-8.95 20,-20 0,-11.04 -8.953,-20 -20,-20 -11.047,0 -20,8.96 -20,20 0,11.05 8.953,20 20,20" /><path
           inkscape:connector-curvature="0"
           id="path676"
           d="m 715,315 c 11.047,0 20,-8.961 20,-20 0,-11.051 -8.953,-20 -20,-20 -11.047,0 -20,8.949 -20,20 0,11.039 8.953,20 20,20" /><path
           inkscape:connector-curvature="0"
           id="path678"
           d="m 1010.1,435 c 8.34,0 15.1,-6.805 15.1,-15.207 0,-8.41 -6.76,-15.211 -15.1,-15.211 -8.35,0 -15.11,6.801 -15.11,15.211 0,8.402 6.76,15.207 15.11,15.207" /><path
           inkscape:connector-curvature="0"
           id="path680"
           d="m 1010.1,1025 c 8.34,0 15.1,-6.81 15.1,-15.21 0,-8.41 -6.76,-15.216 -15.1,-15.216 -8.35,0 -15.11,6.806 -15.11,15.216 0,8.4 6.76,15.21 15.11,15.21" /></g><g
         id="g694"
         stroke="#ffffff"
         fill="#ffffff"
         transform="matrix(1.4236,0,0,1.5694,-291.72,-403.82)"><path
           inkscape:connector-curvature="0"
           id="path684"
           d="m 250.3,713.62 c 0,-27.117 18.48,-52.554 48.965,-52.554 32.16,0 47.761,29.277 47.761,52.078 0,23.047 -15.601,52.57 -48.242,52.57 -31.445,0 -48.484,-26.887 -48.484,-51.848 z m -45.367,-2.156 c 0,58.086 44.648,94.094 93.609,94.094 54.723,0 93.851,-42.727 93.851,-92.168 0,-49.446 -38.886,-92.168 -94.093,-92.168 -55.922,0 -93.367,44.402 -93.367,90.008 v 0.234" /><path
           inkscape:connector-curvature="0"
           id="path686"
           d="m 477.82,762.35 h -35.039 v 39.843 h 115.21 V 762.35 H 523.187 V 624.57 h -45.368 v 137.78" /><path
           inkscape:connector-curvature="0"
           id="path688"
           d="m 653.5,713.62 c 0,-27.117 18.48,-52.554 48.965,-52.554 32.164,0 47.769,29.277 47.769,52.078 0,23.047 -15.605,52.57 -48.246,52.57 -31.445,0 -48.488,-26.887 -48.488,-51.848 z m -45.363,-2.156 c 0,58.086 44.644,94.094 93.605,94.094 54.735,0 93.856,-42.727 93.856,-92.168 0,-49.446 -38.887,-92.168 -94.094,-92.168 -55.922,0 -93.367,44.402 -93.367,90.008 v 0.234" /><path
           inkscape:connector-curvature="0"
           id="path690"
           d="m 876.86,624.57 v 177.62 h 60.735 l 33.355,-114.5 32.405,114.5 h 60.97 V 624.57 h -41.77 l 1.44,132.97 -38.404,-132.97 h -30 l -38.398,132.97 1.433,-132.97 H 876.86" /><path
           inkscape:connector-curvature="0"
           id="path692"
           d="m 1144.1,802.2 h 45.36 V 624.58 H 1144.1 V 802.2" /></g></g></g></svg>
