<?xml version="1.0" encoding="UTF-8" standalone="no"?>
<svg
   xmlns:dc="http://purl.org/dc/elements/1.1/"
   xmlns:cc="http://creativecommons.org/ns#"
   xmlns:rdf="http://www.w3.org/1999/02/22-rdf-syntax-ns#"
   xmlns:svg="http://www.w3.org/2000/svg"
   xmlns="http://www.w3.org/2000/svg"
   viewBox="0 0 190.73334 190.66667"
   height="190.66667"
   width="190.73334"
   xml:space="preserve"
   id="svg2"
   version="1.1"><metadata
     id="metadata8"><rdf:RDF><cc:Work
         rdf:about=""><dc:format>image/svg+xml</dc:format><dc:type
           rdf:resource="http://purl.org/dc/dcmitype/StillImage" /></cc:Work></rdf:RDF></metadata><defs
     id="defs6" /><g
     transform="matrix(1.3333333,0,0,-1.3333333,0,190.66667)"
     id="g10"><g
       transform="scale(0.1)"
       id="g12"><path
         id="path14"
         style="fill:#ef3520;fill-opacity:1;fill-rule:nonzero;stroke:none"
         d="M 805.027,207.809 715,298.41 624.973,207.809 C 581.871,164.43 528.512,137.469 472.652,126.871 525.93,50.2188 614.574,0 715,0 815.41,0 904.043,50.1992 957.324,126.828 902.063,137.32 849.23,163.871 806.328,206.512 c -0.652,0.636 -0.652,0.636 -1.301,1.297" /><path
         id="path16"
         style="fill:#f1d10a;fill-opacity:1;fill-rule:nonzero;stroke:none"
         d="m 624.973,1222.2 90.027,-90.61 90.027,90.61 c 43.11,43.37 96.457,70.33 152.328,80.93 C 904.07,1379.78 815.422,1430 715,1430 c -100.41,0 -189.043,-50.21 -242.324,-126.84 55.262,-10.49 108.094,-37.03 150.996,-79.67 0.652,-0.65 0.652,-0.65 1.301,-1.29" /><path
         id="path18"
         style="fill:#ed0b7c;fill-opacity:1;fill-rule:nonzero;stroke:none"
         d="m 420,1010 v 125 c 0,62.52 19.504,120.45 52.676,168.16 -91.961,17.46 -190.668,-9.56 -261.621,-80.96 l -0.367,-0.37 c -71,-71.44 -97.875,-170.14 -80.7,-262.264 C 177.086,991.402 233.871,1010 295,1010 h 125" /><path
         id="path20"
         style="fill:#193137;fill-opacity:1;fill-rule:nonzero;stroke:none"
         d="M 1135,420 H 1010 V 295 c 0,-62.512 -19.504,-120.449 -52.676,-168.172 91.966,-17.449 190.676,9.57 261.626,80.973 l 0.37,0.371 c 69.59,70.027 96.73,166.25 81.62,256.785 C 1253.9,432.711 1196.99,416.391 1135,420" /><path
         id="path22"
         style="fill:#f1d10a;fill-opacity:1;fill-rule:nonzero;stroke:none"
         d="M 1010,420 H 835.82 L 715,298.41 805.027,207.809 c 0.649,-0.661 0.649,-0.661 1.301,-1.297 C 849.23,163.871 902.063,137.32 957.324,126.828 990.496,174.551 1010,232.488 1010,295 v 125" /><path
         id="path24"
         style="fill:#ef3520;fill-opacity:1;fill-rule:nonzero;stroke:none"
         d="M 420,1010 H 594.18 L 715,1131.59 624.973,1222.2 c -0.649,0.64 -0.649,0.64 -1.301,1.29 -42.902,42.64 -95.734,69.18 -150.996,79.67 C 439.504,1255.45 420,1197.52 420,1135 v -125" /><path
         id="path26"
         style="fill:#64ccd5;fill-opacity:1;fill-rule:nonzero;stroke:none"
         d="m 1010,1010 h 125 c 60.09,0 117.37,-18.051 165.26,-48.937 16.62,91.687 -10.33,189.717 -80.94,260.767 l -0.37,0.37 c -0.66,0.66 -0.66,0.66 -1.3,1.3 -70.93,70.48 -168.97,96.95 -260.295,79.63 C 990.508,1255.43 1010,1197.51 1010,1135 v -125" /><path
         id="path28"
         style="fill:#292c57;fill-opacity:1;fill-rule:nonzero;stroke:none"
         d="M 420,420 H 295 c -61.129,0 -117.914,18.602 -165.012,50.438 -17.175,-92.118 9.7,-190.829 80.7,-262.266 l 0.367,-0.371 c 0.648,-0.66 0.648,-0.66 1.3,-1.301 70.926,-70.48 168.961,-96.949 260.297,-79.629 C 439.492,174.578 420,232.5 420,295 v 125" /><path
         id="path30"
         style="fill:#292c57;fill-opacity:1;fill-rule:nonzero;stroke:none"
         d="M 715,1131.59 835.82,1010 H 1010 v 125 c 0,62.51 -19.492,120.43 -52.645,168.13 -55.871,-10.6 -109.218,-37.56 -152.328,-80.93 L 715,1131.59" /><path
         id="path32"
         style="fill:#193137;fill-opacity:1;fill-rule:nonzero;stroke:none"
         d="M 715,298.41 594.18,420 H 420 V 295 c 0,-62.5 19.492,-120.422 52.652,-168.129 55.86,10.598 109.219,37.559 152.321,80.938 L 715,298.41" /><path
         id="path34"
         style="fill:#ed0b7c;fill-opacity:1;fill-rule:nonzero;stroke:none"
         d="M 715,1131.59 594.18,1010 h 241.64 z" /><path
         id="path36"
         style="fill:#292c57;fill-opacity:1;fill-rule:nonzero;stroke:none"
         d="M 715,298.41 835.82,420 H 594.18 Z" /><path
         id="path38"
         style="fill:#f1d10a;fill-opacity:1;fill-rule:nonzero;stroke:none"
         d="m 301.055,714.996 -90.379,90.957 C 167.34,849.566 140.469,903.336 129.988,959.566 51.5625,906.551 0,816.793 0,714.996 0,613.211 51.5625,523.453 129.988,470.438 c 10.481,56.218 37.352,110 80.688,153.613 l 90.379,90.945" /><path
         id="path40"
         style="fill:#ef3520;fill-opacity:1;fill-rule:nonzero;stroke:none"
         d="m 1300.26,961.063 c -10.28,-56.77 -37.22,-111.118 -80.93,-155.11 l -90.38,-90.957 90.38,-90.945 c 44.73,-45.031 71.88,-100.891 81.61,-159.094 72.75,49.863 121.82,137.922 129.06,250.039 6.63,102.625 -47.76,193.195 -129.74,246.067" /><path
         id="path42"
         style="fill:#292c57;fill-opacity:1;fill-rule:nonzero;stroke:none"
         d="M 1128.95,714.996 1010,595.289 V 420 h 125 c 61.99,-3.609 118.9,12.711 165.94,44.957 -9.73,58.203 -36.88,114.063 -81.61,159.094 l -90.38,90.945" /><path
         id="path44"
         style="fill:#193137;fill-opacity:1;fill-rule:nonzero;stroke:none"
         d="M 301.055,714.996 420,834.703 V 1010 H 295 c -61.129,0 -117.914,-18.598 -165.012,-50.434 10.481,-56.23 37.352,-110 80.688,-153.613 l 90.379,-90.957" /><path
         id="path46"
         style="fill:#64ccd5;fill-opacity:1;fill-rule:nonzero;stroke:none"
         d="M 420,1010 V 834.703 L 594.18,1010 Z" /><path
         id="path48"
         style="fill:#193137;fill-opacity:1;fill-rule:nonzero;stroke:none"
         d="M 1010,420 V 595.289 L 835.82,420 Z" /><path
         id="path50"
         style="fill:#64ccd5;fill-opacity:1;fill-rule:nonzero;stroke:none"
         d="M 420,420 V 595.289 L 301.055,714.996 210.676,624.051 C 167.34,580.438 140.469,526.656 129.988,470.438 177.086,438.602 233.871,420 295,420 h 125" /><path
         id="path52"
         style="fill:#193137;fill-opacity:1;fill-rule:nonzero;stroke:none"
         d="M 1010,1010 V 834.703 l 118.95,-119.707 90.38,90.957 c 43.71,43.992 70.65,98.34 80.93,155.11 C 1252.37,991.949 1195.09,1010 1135,1010 h -125" /><path
         id="path54"
         style="fill:#f1d10a;fill-opacity:1;fill-rule:nonzero;stroke:none"
         d="M 420,420 H 594.18 L 420,595.289 Z" /><path
         id="path56"
         style="fill:#ef3520;fill-opacity:1;fill-rule:nonzero;stroke:none"
         d="M 1010,1010 H 835.82 L 1010,834.703 Z" /><path
         id="path58"
         style="fill:#64ccd5;fill-opacity:1;fill-rule:nonzero;stroke:none"
         d="M 1010,595.289 1128.95,714.996 1010,834.703 Z" /><path
         id="path60"
         style="fill:#ef3520;fill-opacity:1;fill-rule:nonzero;stroke:none"
         d="M 301.055,714.996 420,595.289 v 239.414 z" /><path
         id="path62"
         style="fill:#585a5c;fill-opacity:1;fill-rule:nonzero;stroke:none"
         d="M 835.82,1010 H 594.18 L 420,834.703 V 595.289 L 594.18,420 H 835.82 L 1010,595.289 V 834.703 L 835.82,1010" /><path
         id="path64"
         style="fill:#ffffff;fill-opacity:1;fill-rule:evenodd;stroke:none"
         d="m 420.102,434.996 c 8.343,0 15.109,-6.805 15.109,-15.207 0,-8.41 -6.766,-15.211 -15.109,-15.211 -8.34,0 -15.102,6.801 -15.102,15.211 0,8.402 6.762,15.207 15.102,15.207" /><path
         id="path66"
         style="fill:#ffffff;fill-opacity:1;fill-rule:evenodd;stroke:none"
         d="m 420.102,1025 c 8.343,0 15.109,-6.81 15.109,-15.21 0,-8.41 -6.766,-15.216 -15.109,-15.216 -8.34,0 -15.102,6.806 -15.102,15.216 0,8.4 6.762,15.21 15.102,15.21" /><path
         id="path68"
         style="fill:#ffffff;fill-opacity:1;fill-rule:evenodd;stroke:none"
         d="m 715,1150.49 c 11.047,0 20,-8.95 20,-20 0,-11.04 -8.953,-20 -20,-20 -11.047,0 -20,8.96 -20,20 0,11.05 8.953,20 20,20" /><path
         id="path70"
         style="fill:#ffffff;fill-opacity:1;fill-rule:evenodd;stroke:none"
         d="m 715,315 c 11.047,0 20,-8.961 20,-20 0,-11.051 -8.953,-20 -20,-20 -11.047,0 -20,8.949 -20,20 0,11.039 8.953,20 20,20" /><path
         id="path72"
         style="fill:#ffffff;fill-opacity:1;fill-rule:evenodd;stroke:none"
         d="m 1010.11,434.996 c 8.34,0 15.1,-6.805 15.1,-15.207 0,-8.41 -6.76,-15.211 -15.1,-15.211 -8.35,0 -15.11,6.801 -15.11,15.211 0,8.402 6.76,15.207 15.11,15.207" /><path
         id="path74"
         style="fill:#ffffff;fill-opacity:1;fill-rule:evenodd;stroke:none"
         d="m 1010.11,1025 c 8.34,0 15.1,-6.81 15.1,-15.21 0,-8.41 -6.76,-15.216 -15.1,-15.216 -8.35,0 -15.11,6.806 -15.11,15.216 0,8.4 6.76,15.21 15.11,15.21" /><path
         id="path76"
         style="fill:#ffffff;fill-opacity:1;fill-rule:nonzero;stroke:none"
         d="m 250.305,713.617 c 0,-27.117 18.48,-52.554 48.965,-52.554 32.16,0 47.761,29.277 47.761,52.078 0,23.047 -15.601,52.57 -48.242,52.57 -31.445,0 -48.484,-26.887 -48.484,-51.848 z m -45.367,-2.156 c 0,58.086 44.648,94.094 93.609,94.094 54.723,0 93.851,-42.727 93.851,-92.168 0,-49.446 -38.886,-92.168 -94.093,-92.168 -55.922,0 -93.367,44.402 -93.367,90.008 v 0.234" /><path
         id="path78"
         style="fill:#ffffff;fill-opacity:1;fill-rule:nonzero;stroke:none"
         d="m 477.816,762.352 h -35.039 v 39.843 H 557.988 V 762.352 H 523.184 V 624.574 h -45.368 v 137.778" /><path
         id="path80"
         style="fill:#ffffff;fill-opacity:1;fill-rule:nonzero;stroke:none"
         d="m 653.5,713.617 c 0,-27.117 18.48,-52.554 48.965,-52.554 32.164,0 47.769,29.277 47.769,52.078 0,23.047 -15.605,52.57 -48.246,52.57 -31.445,0 -48.488,-26.887 -48.488,-51.848 z m -45.363,-2.156 c 0,58.086 44.644,94.094 93.605,94.094 54.735,0 93.856,-42.727 93.856,-92.168 0,-49.446 -38.887,-92.168 -94.094,-92.168 -55.922,0 -93.367,44.402 -93.367,90.008 v 0.234" /><path
         id="path82"
         style="fill:#ffffff;fill-opacity:1;fill-rule:nonzero;stroke:none"
         d="m 876.855,624.574 v 177.621 h 60.735 l 33.355,-114.496 32.405,114.496 h 60.97 V 624.574 h -41.77 l 1.44,132.973 -38.404,-132.973 h -30 l -38.398,132.973 1.433,-132.973 h -41.766" /><path
         id="path84"
         style="fill:#ffffff;fill-opacity:1;fill-rule:nonzero;stroke:none"
         d="m 1144.06,802.195 h 45.36 V 624.574 h -45.36 v 177.621" /><path
         id="path86"
         style="fill:#ffffff;fill-opacity:1;fill-rule:nonzero;stroke:none"
         d="m 534.824,511.59 c 0,-8.598 5.297,-10.09 7.696,-10.09 4.496,0 7.199,3.691 7.199,7.09 0,3.906 -3.102,5.098 -14.492,9.902 -5.204,2.102 -18.094,7.293 -18.094,21.184 0,14.89 13.492,22.793 25.887,22.793 10.195,0 24.585,-5.196 24.886,-22.989 h -18.691 c -0.402,2.5 -0.996,7.196 -6.797,7.196 -3.297,0 -6.496,-2.305 -6.496,-5.801 0,-3.398 2,-4.297 15.293,-10.293 13.789,-6.199 17.293,-12.598 17.293,-21.191 0,-11.786 -6.199,-23.68 -25.789,-23.68 -19.391,0 -27.188,11.387 -26.684,25.879 h 18.789" /><path
         id="path88"
         style="fill:#ffffff;fill-opacity:1;fill-rule:nonzero;stroke:none"
         d="m 605.93,544.48 h -14.59 v 16.583 h 47.973 V 544.48 H 624.82 v -57.375 h -18.89 v 57.375" /><path
         id="path90"
         style="fill:#ffffff;fill-opacity:1;fill-rule:nonzero;stroke:none"
         d="m 691.211,538.578 -7.996,-25.789 h 16.293 z m -16.094,-51.473 h -20.488 l 29.289,73.958 h 16.285 l 28.391,-73.958 h -20.696 l -3.496,10.696 h -25.886 l -3.399,-10.696" /><path
         id="path92"
         style="fill:#ffffff;fill-opacity:1;fill-rule:nonzero;stroke:none"
         d="m 823.086,514.793 c -4.297,-17.492 -19.481,-29.082 -37.371,-29.082 -23.195,0 -38.977,18.484 -38.977,38.477 0,18.882 14.59,38.281 38.77,38.281 23.191,0 35.586,-17.895 37.578,-29.485 h -19.785 c -2.09,5.489 -7.696,12.891 -17.891,12.891 -12.695,0 -19.785,-11.094 -19.785,-21.594 0,-11.187 7.598,-21.98 19.883,-21.98 11.797,0 16.601,9.894 17.793,12.492 h 19.785" /><path
         id="path94"
         style="fill:#ffffff;fill-opacity:1;fill-rule:nonzero;stroke:none"
         d="m 854.426,561.063 h 18.887 v -33.286 l 21.082,33.286 h 19.793 l -24.383,-36.782 26.883,-37.176 h -22.989 l -20.386,31.985 v -31.985 h -18.887 v 73.958" /></g></g></svg>