<?xml version="1.0" encoding="UTF-8" standalone="no"?>
<!DOCTYPE svg PUBLIC "-//W3C//DTD SVG 1.1//EN" "http://www.w3.org/Graphics/SVG/1.1/DTD/svg11.dtd">
<svg xmlns="http://www.w3.org/2000/svg" xmlns:xlink="http://www.w3.org/1999/xlink" version="1.1" width="200pt" height="200pt" viewBox="0 0 200 200">
<g enable-background="new">
<g>
<g id="Layer-1" data-name="Layer">
<clipPath id="cp0">
<path transform="matrix(1,0,0,-1,0,200)" d="M 0 200 L 200 200 L 200 0 L 0 0 Z "/>
</clipPath>
<g clip-path="url(#cp0)">
<path transform="matrix(1,0,0,-1,99.9995,23.707505)" d="M 0 0 C -41.62 0 -75.36 -33.741 -75.36 -75.36 C -75.36 -116.981 -41.62 -150.721 0 -150.721 C 41.619 -150.721 75.36 -116.981 75.36 -75.36 C 75.36 -33.741 41.619 0 0 0 M .001 -164.43 C -49.19 -164.43 -89.067 -124.552 -89.067 -75.361 C -89.067 -26.17 -49.19 13.708 .001 13.708 C 49.19 13.708 89.068 -26.17 89.068 -75.361 C 89.068 -124.552 49.19 -164.43 .001 -164.43 "/>
<path transform="matrix(1,0,0,-1,128.9268,162.1836)" d="M 0 0 C -2.849 .002 -13.229 18.476 -14.624 23.742 C -17.54 34.77 -16.912 39.429 -16.738 40.918 C -16.204 45.466 -11.792 47.738 -11.524 53.889 C -11.442 55.787 -10.482 65.283 -9.717 72.7 C -11.606 73.069 -13.488 73.921 -15.161 75.243 C -10.139 68.506 -17.531 60.433 -28.272 49.69 C -39.673 38.289 -64.979 27.708 -64.979 27.708 C -64.979 27.708 -54.397 53.014 -42.997 64.415 C -34.616 72.794 -27.861 79.136 -22.097 79.136 C -20.472 79.136 -18.925 78.631 -17.444 77.528 C -18.767 79.2 -19.617 81.081 -19.988 82.97 C -27.405 82.203 -36.901 81.246 -38.799 81.162 C -44.95 80.895 -47.223 76.482 -51.768 75.949 C -52.291 75.888 -53.205 75.77 -54.648 75.77 C -57.316 75.77 -61.791 76.171 -68.944 78.065 C -74.672 79.58 -96.018 91.723 -92.242 93.249 C -90.317 94.028 -84.181 94.555 -76.101 94.555 C -68.33 94.555 -58.76 94.068 -49.412 92.85 C -37.756 91.331 -27.068 89.41 -19.784 87.981 C -19.666 88.373 -19.524 88.753 -19.354 89.123 L -26.801 92.691 C -26.801 92.691 -32.748 99.517 -32.113 99.987 C -32.089 100.005 -32.058 100.014 -32.02 100.014 C -31.087 100.014 -26.329 94.574 -25.872 93.955 C -25.52 93.838 -23.502 93.165 -21.38 92.459 L -23.486 94.301 C -23.486 94.301 -26.369 104.978 -25.618 105.229 C -25.609 105.232 -25.6 105.234 -25.589 105.234 C -24.797 105.234 -22.182 95.95 -21.957 95.283 C -21.443 94.833 -19.706 94.156 -17.536 92.904 L -19.818 98.773 C -19.818 98.773 -18.785 108.457 -18.013 108.457 C -18.006 108.457 -18.001 108.456 -17.994 108.455 C -17.216 108.299 -18.146 100.378 -18.344 99.392 C -18.062 98.958 -16.312 96.274 -14.557 93.582 C -13.477 93.989 -12.314 94.189 -11.122 94.189 C -9.754 94.189 -8.346 93.924 -6.979 93.402 C -8.729 97.127 -8.597 101.009 -6.276 103.327 C -5.543 104.063 -4.65 104.576 -3.657 104.88 C -3.537 105.557 -3.223 106.2 -2.708 106.716 C -2.037 107.387 -1.153 107.72 -.259 107.72 C .678 107.72 1.627 107.354 2.354 106.626 C 3.051 105.932 3.412 105.033 3.442 104.139 C 4.562 106.446 5.884 109.561 5.792 110.57 C 5.576 112.854 2.928 116.896 2.903 116.936 C 2.73 117.197 2.803 117.549 3.065 117.723 C 3.16 117.786 3.269 117.815 3.376 117.815 C 3.56 117.815 3.74 117.726 3.849 117.559 C 3.966 117.385 6.68 113.241 6.922 110.675 C 7.056 109.208 5.371 105.509 4.453 103.62 C 5.742 102.914 7 101.982 8.147 100.834 C 9.295 99.687 10.227 98.43 10.934 97.14 C 12.751 98.023 16.237 99.615 17.81 99.615 C 17.872 99.615 17.933 99.614 17.989 99.608 C 20.554 99.367 24.698 96.652 24.872 96.537 C 25.133 96.366 25.206 96.013 25.033 95.751 C 24.925 95.586 24.744 95.497 24.56 95.497 C 24.453 95.497 24.345 95.526 24.25 95.59 C 24.209 95.616 20.168 98.264 17.884 98.478 C 17.849 98.481 17.812 98.482 17.772 98.482 C 16.662 98.482 13.679 97.213 11.45 96.13 C 12.347 96.101 13.245 95.737 13.938 95.041 C 15.362 93.619 15.401 91.354 14.028 89.981 C 13.514 89.465 12.872 89.148 12.194 89.03 C 11.888 88.036 11.374 87.144 10.64 86.41 C 9.361 85.13 7.608 84.517 5.666 84.517 C 4.088 84.517 2.385 84.923 .714 85.707 C 1.692 83.153 1.767 80.449 .896 78.131 C 3.585 76.376 6.273 74.625 6.704 74.343 C 7.411 74.483 11.654 74.999 14.077 74.999 C 15.045 74.999 15.724 74.917 15.768 74.695 C 15.924 73.917 6.088 72.868 6.088 72.868 L .218 75.152 C 1.47 72.98 2.144 71.245 2.596 70.729 C 3.273 70.502 12.792 67.819 12.541 67.068 C 12.513 66.981 12.346 66.944 12.072 66.944 C 9.975 66.944 1.614 69.201 1.614 69.201 L -.229 71.307 C .479 69.185 1.149 67.169 1.269 66.816 C 1.913 66.339 7.769 61.212 7.3 60.575 C 7.274 60.542 7.234 60.527 7.18 60.527 C 6.152 60.527 .005 65.886 .005 65.886 L -3.564 73.333 C -3.934 73.162 -4.314 73.022 -4.707 72.903 C -3.278 65.62 -1.356 54.932 .164 43.276 C 2.647 24.208 2.089 4.224 .562 .445 C .44 .142 .248 0 0 0 "/>
<g>
<clipPath id="cp1">
<path transform="matrix(1,0,0,-1,0,200)" d="M 156.878 10 L 180.483 10 L 180.483 30.1816 L 156.878 30.1816 Z "/>
</clipPath>
<g clip-path="url(#cp1)">
<g>
<clipPath id="cp2">
<path transform="matrix(1,0,0,-1,0,200)" d="M 156.878 10 L 180.483 10 L 180.483 30.1816 L 156.878 30.1816 Z "/>
</clipPath>
<g clip-path="url(#cp2)">
<text xml:space="preserve" transform="matrix(1 0 -0 1 0 200)" font-size="16.3489" font-family="Arial" font-weight="bold"><tspan y="-16.1553" x="156.8779 166.86708">TM</tspan></text>
</g>
</g>
</g>
</g>
</g>
</g>
</g>
</g>
</svg>
