<?xml version="1.0" standalone="no"?>
<!DOCTYPE svg PUBLIC "-//W3C//DTD SVG 20010904//EN"
 "http://www.w3.org/TR/2001/REC-SVG-20010904/DTD/svg10.dtd">
<svg version="1.0" xmlns="http://www.w3.org/2000/svg"
 width="220.000000pt" height="234.000000pt" viewBox="0 0 220.000000 234.000000"
 preserveAspectRatio="xMidYMid meet">

<g transform="translate(0.000000,234.000000) scale(0.100000,-0.100000)"
fill="#22577E" stroke="none">
<path d="M1004 2237 c-59 -15 -97 -36 -449 -240 -264 -154 -335 -206 -379
-281 -55 -94 -57 -118 -54 -572 l3 -419 32 -67 c53 -112 93 -144 448 -349 176
-103 345 -194 374 -204 69 -23 170 -23 241 -2 31 9 196 98 375 202 276 160
328 193 380 248 40 41 69 83 85 122 25 60 25 61 28 469 3 386 2 413 -17 475
-24 77 -68 148 -121 194 -48 41 -650 391 -710 412 -61 22 -174 27 -236 12z
m211 -65 c79 -28 662 -371 712 -420 24 -23 56 -68 71 -100 l27 -57 3 -416 c3
-408 2 -418 -19 -475 -40 -105 -102 -154 -444 -351 -165 -95 -317 -179 -338
-188 -66 -28 -154 -30 -223 -6 -88 29 -672 371 -725 424 -23 23 -56 71 -73
107 l-31 65 0 410 c0 406 0 411 23 468 41 101 90 141 372 305 330 192 385 223
429 238 51 19 157 16 216 -4z"/>
<path d="M906 1629 c-22 -18 -26 -28 -26 -75 l0 -54 -97 0 -98 0 -87 -87 -88
-88 0 -77 0 -78 240 0 240 0 0 39 c0 59 18 71 106 71 99 0 114 -9 114 -65 l0
-45 240 0 240 0 0 78 0 77 -88 88 -87 87 -98 0 -97 0 0 50 c0 41 -5 56 -25 75
-24 25 -27 25 -193 25 -156 0 -171 -2 -196 -21z m339 -94 l0 -30 -142 -3 -143
-3 0 36 0 36 143 -3 142 -3 0 -30z"/>
<path d="M1040 1135 l0 -95 60 0 60 0 0 95 0 95 -60 0 -60 0 0 -95z"/>
<path d="M512 914 c3 -181 4 -186 27 -205 22 -18 47 -19 563 -19 l539 0 24 25
c25 24 25 26 25 205 l0 180 -240 0 -240 0 0 -43 c0 -24 -5 -48 -12 -55 -7 -7
-44 -12 -98 -12 -54 0 -91 5 -98 12 -7 7 -12 31 -12 55 l0 43 -241 0 -240 0 3
-186z"/>
</g>
</svg>
